<?xml version="1.0" encoding="UTF-8" standalone="no"?>
<svg width="1508px" height="771px" viewBox="0 0 1508 771" version="1.1" xmlns="http://www.w3.org/2000/svg" xmlns:xlink="http://www.w3.org/1999/xlink">
    <!-- Generator: Sketch 3.7.2 (28276) - http://www.bohemiancoding.com/sketch -->
    <title>404</title>
    <desc>Created with Sketch.</desc>
    <defs></defs>
    <g id="404" stroke="none" stroke-width="1" fill="none" fill-rule="evenodd">
        <path d="M0,651.389551 L316.077292,651.389551 L316.077292,764.200032 L424.728862,764.200032 L424.728862,651.389551 L485.033082,651.389551 L485.033082,548.97635 L424.728862,548.97635 L424.728862,331.153347 L316.077292,331.153347 L316.077292,548.97635 L118.009121,548.97635 L374.302057,6.23836761 L253.173752,6.23836761 L0,548.97635 L0,651.389551 Z M859.855002,545.857166 C857.775536,622.45084 822.251854,661.093675 753.282889,661.786831 C683.967347,661.093675 648.61695,622.45084 647.23064,545.857166 L647.23064,224.581234 C648.61695,148.680715 683.967347,110.03788 753.282889,108.651569 C822.251854,110.03788 857.775536,148.680715 859.855002,224.581234 L859.855002,545.857166 Z M538.57907,552.095534 C539.272226,621.757654 561.626153,675.476393 605.641522,713.253364 C646.88427,750.683756 696.097567,769.745245 753.282889,770.4384 C812.2011,769.745245 862.280828,750.683756 903.523576,713.253364 C945.459479,675.476393 967.120261,621.757654 968.506572,552.095534 L968.506572,217.823002 C967.120261,147.814305 945.459479,93.922279 903.523576,56.1453085 C862.280828,18.7149157 812.2011,0 753.282889,0 C696.097567,0 646.88427,18.7149157 605.641522,56.1453085 C561.626153,93.922279 539.272226,147.814305 538.57907,217.823002 L538.57907,552.095534 Z M1022.05256,651.389551 L1338.12985,651.389551 L1338.12985,764.200032 L1446.78142,764.200032 L1446.78142,651.389551 L1507.08564,651.389551 L1507.08564,548.97635 L1446.78142,548.97635 L1446.78142,331.153347 L1338.12985,331.153347 L1338.12985,548.97635 L1140.06168,548.97635 L1396.35462,6.23836761 L1275.22631,6.23836761 L1022.05256,548.97635 L1022.05256,651.389551 Z" fill="#BCBCEB"></path>
    </g>
</svg>