<?xml version="1.0" encoding="UTF-8" standalone="no"?>
<svg width="30px" height="22px" viewBox="0 0 30 22" version="1.1" xmlns="http://www.w3.org/2000/svg" xmlns:xlink="http://www.w3.org/1999/xlink">
    <!-- Generator: Sketch 3.6.1 (26313) - http://www.bohemiancoding.com/sketch -->
    <title>“</title>
    <desc>Created with Sketch.</desc>
    <defs></defs>
    <g id="Portfolio-Pages" stroke="none" stroke-width="1" fill="none" fill-rule="evenodd">
        <g id="Epoch" transform="translate(-175.000000, -3019.000000)" fill="#FFD56F">
            <g id="Process" transform="translate(0.000000, 2589.000000)">
                <g id="Quote" transform="translate(170.000000, 412.060008)">
                    <path d="M23.2973633,31.2514648 C23.2973633,27.44155 24.2184966,24.4588324 26.060791,22.3032227 C27.9030854,20.1476129 30.4910315,18.7314487 33.824707,18.0546875 L33.824707,21.9648438 C31.2931189,22.7418659 29.5887088,24.1454977 28.7114258,26.1757812 C28.2101212,27.2535861 28.0096024,28.2937775 28.1098633,29.2963867 L34.0126953,29.2963867 L34.0126953,39.1845703 L23.2973633,39.1845703 L23.2973633,31.2514648 Z M5.47607422,31.2514648 C5.47607422,27.4916804 6.37214273,24.5214953 8.16430664,22.3408203 C9.95647055,20.1601453 12.5694815,18.7314487 16.003418,18.0546875 L16.003418,21.9648438 C13.4467646,22.7669311 11.7298221,24.145498 10.8525391,26.1005859 C10.4013649,27.1282603 10.2133785,28.1935166 10.2885742,29.2963867 L16.1914062,29.2963867 L16.1914062,39.1845703 L5.47607422,39.1845703 L5.47607422,31.2514648 Z" id="“"></path>
                </g>
            </g>
        </g>
    </g>
</svg>