<svg xmlns="http://www.w3.org/2000/svg" width="510" height="343" viewBox="0 0 510 343" xmlns:xlink="http://www.w3.org/1999/xlink">
  <defs>
    <circle id="a" cx="35" cy="35" r="35"/>
    <circle id="b" cx="35" cy="35" r="35"/>
    <circle id="c" cx="35" cy="35" r="35"/>
    <circle id="d" cx="35" cy="35" r="35"/>
    <circle id="e" cx="35" cy="35" r="35"/>
    <circle id="f" cx="35" cy="35" r="35"/>
    <linearGradient id="g" x1="25.407%" x2="78.641%" y1="11.893%" y2="84.955%">
      <stop stop-color="#4E5FD3" offset="0%"/>
      <stop stop-color="#913BAF" offset="46.257%"/>
      <stop stop-color="#D52D88" offset="76.146%"/>
      <stop stop-color="#F26D4F" offset="100%"/>
    </linearGradient>
    <radialGradient id="i" cx="30.274%" cy="100%" r="93.395%" fx="30.274%" fy="100%" gradientTransform="matrix(.84656 .53229 -.38307 .60925 .43 .23)">
      <stop stop-color="#FED276" offset="0%"/>
      <stop stop-color="#FDBD61" stop-opacity=".975" offset="17.024%"/>
      <stop stop-color="#F6804D" offset="45.408%"/>
      <stop stop-color="#E83D5C" stop-opacity="0" offset="100%"/>
    </radialGradient>
    <circle id="h" cx="35" cy="35" r="35"/>
    <circle id="j" cx="35" cy="35" r="35"/>
    <circle id="k" cx="35" cy="35" r="35"/>
    <circle id="m" cx="35" cy="35" r="35"/>
    <circle id="n" cx="35" cy="35" r="35"/>
    <circle id="o" cx="35" cy="35" r="35"/>
    <circle id="p" cx="35" cy="35" r="35"/>
    <circle id="q" cx="35" cy="35" r="35"/>
  </defs>
  <g fill="none" fill-rule="evenodd">
    <g transform="translate(166)">
      <use fill="#3ABCCA" xlink:href="#a"/>
      <circle cx="35" cy="35" r="34" stroke="#000000" stroke-opacity=".1" stroke-width="2"/>
      <path fill="#FFFFFF" d="M36.6886038,30.9007407 C36.229434,30.4503704 36,29.9031111 36,29.2592593 L36,16.1271111 L22.6200755,16.1271111 C21.9643774,16.1271111 21.4067925,16.3522963 20.9476226,16.802963 C20.4884528,17.2533333 20.2590189,17.8005926 20.2590189,18.4444444 L20.2590189,50.8888889 C20.2590189,51.5327407 20.4884528,52.08 20.9476226,52.5303704 C21.4067925,52.9807407 21.9643774,53.2062222 22.6200755,53.2062222 L49.3805283,53.2062222 C50.0362264,53.2062222 50.5935094,52.9807407 51.0523774,52.5303704 C51.5115472,52.0797037 51.7409811,51.5327407 51.7409811,50.8888889 L51.7409811,31.5765926 L38.3613585,31.5765926 C37.7050566,31.5765926 37.1474717,31.3514074 36.6886038,30.9007407 Z M45.2235472,46.8088889 C45.0762264,46.9534815 44.8875472,47.0257778 44.6581132,47.0257778 L27.3424906,47.0257778 C27.1130566,47.0257778 26.9243774,46.9534815 26.7767547,46.8088889 C26.629434,46.6642963 26.5554717,46.4791111 26.5554717,46.2539259 L26.5554717,44.7087407 C26.5554717,44.4832593 26.6291321,44.2980741 26.7767547,44.1531852 C26.9243774,44.0088889 27.1130566,43.9362963 27.3424906,43.9362963 L44.6581132,43.9362963 C44.8875472,43.9362963 45.0762264,44.0088889 45.2235472,44.1531852 C45.3708679,44.2980741 45.4448302,44.4832593 45.4448302,44.7087407 L45.4448302,46.2539259 C45.4448302,46.4791111 45.3708679,46.6642963 45.2235472,46.8088889 Z M45.2235472,40.6293333 C45.0762264,40.7739259 44.8875472,40.8465185 44.6581132,40.8465185 L27.3424906,40.8465185 C27.1130566,40.8465185 26.9243774,40.7739259 26.7767547,40.6293333 C26.629434,40.4844444 26.5554717,40.2995556 26.5554717,40.0740741 L26.5554717,38.5288889 C26.5554717,38.3037037 26.6291321,38.1185185 26.7767547,37.9739259 C26.9243774,37.829037 27.1130566,37.7567407 27.3424906,37.7567407 L44.6581132,37.7567407 C44.8875472,37.7567407 45.0762264,37.829037 45.2235472,37.9739259 C45.3708679,38.1185185 45.4448302,38.3037037 45.4448302,38.5288889 L45.4448302,40.0740741 C45.4448302,40.2995556 45.3708679,40.4844444 45.2235472,40.6293333 Z M42.3951698,17.7685926 L50.0691321,25.3004444 C50.8884528,26.1048889 51.4215849,27.1668148 51.6676226,28.4868148 L39.1480755,28.4868148 L39.1480755,16.1994074 C40.4926792,16.4405926 41.5749434,16.9638519 42.3951698,17.7685926 Z"/>
    </g>
    <g transform="translate(110 88)">
      <use fill="#35ABE1" xlink:href="#b"/>
      <circle cx="35" cy="35" r="34" stroke="#000000" stroke-opacity=".1" stroke-width="2"/>
      <path fill="#FFFFFF" d="M50.6679688,30.5664062 L51.7890625,24.5234375 L46.0742188,24.5234375 L48.0976562,14.515625 L42.0273438,14.515625 L40.0039062,24.5234375 L33.6054688,24.5234375 L35.6289062,14.515625 L29.5859375,14.515625 L27.5625,24.5234375 L21.9296875,24.5234375 L20.78125,30.5664062 L26.3867188,30.5664062 L24.9648438,37.4570312 L19.3046875,37.4570312 L18.15625,43.5546875 L23.7890625,43.5546875 L21.6835938,54 L27.7265625,54 L29.8320312,43.5546875 L36.2304688,43.5546875 L34.125,54 L40.1953125,54 L42.3007812,43.5546875 L48.0429688,43.5546875 L49.1640625,37.4570312 L43.4492188,37.4570312 L44.8984375,30.5664062 L50.6679688,30.5664062 Z M32.1289062,30.046875 L39.3203125,30.046875 L37.6523438,38.0039062 L30.515625,38.0039062 L32.1289062,30.046875 Z"/>
    </g>
    <g transform="translate(0 88)">
      <use fill="#724BB8" xlink:href="#c"/>
      <circle cx="35" cy="35" r="34" stroke="#000000" stroke-opacity=".1" stroke-width="2"/>
      <path fill="#FFFFFF" d="M55.9865627,34.9433906 C54.6450553,33.2611144 52.943617,32.1784232 50.8834239,31.6956135 C51.5385923,30.6813871 51.8655884,29.5705394 51.8655884,28.3633669 C51.8655884,26.6567872 51.2665857,25.2000593 50.0688743,23.9925904 C48.8711628,22.7854179 47.4258518,22.1816835 45.7326472,22.1816835 C44.1994119,22.1816835 42.8737838,22.6807943 41.755763,23.679016 C40.8138848,21.3930053 39.3159368,19.5417902 37.2639775,18.1250741 C35.21143,16.7086544 32.9233395,16 30.3997059,16 C27.0138848,16 24.1226747,17.2077653 21.7269577,19.6224066 C19.3309467,22.0367516 18.1332353,24.9508002 18.1332353,28.3636633 C18.1332353,28.6052164 18.1494087,28.9510966 18.1811673,29.4018969 C16.3285815,30.2711915 14.8350444,31.5871369 13.7011443,33.350326 C12.5672441,35.112626 12,37.0569057 12,39.1819798 C12,42.1600474 13.0503868,44.7074689 15.1505721,46.8242442 C17.2507575,48.9416123 19.778508,50 22.7332353,50 L48.8002941,50 C51.3395129,50 53.5076264,49.0939538 55.3046347,47.2833432 C57.1013488,45.4724363 58,43.2871962 58,40.7273266 C57.9997059,38.5539419 57.3283641,36.6253705 55.9865627,34.9433906 L55.9865627,34.9433906 Z"/>
    </g>
    <g transform="translate(440 88)">
      <use fill="#236792" xlink:href="#d"/>
      <circle cx="35" cy="35" r="34" stroke="#000000" stroke-opacity=".1" stroke-width="2"/>
      <g fill="#FFFFFF" transform="translate(14 14)">
        <path d="M14.0638452,24.7318661 C14.3916341,24.0325561 14.0911778,23.1993162 13.3918678,22.8715273 C10.4524981,21.4953808 8.56756002,18.5096469 8.58395959,15.2670877 C8.60035916,12.160989 10.3268693,9.33914962 13.085945,7.90084668 C13.7688554,7.54440913 14.0366138,6.69892024 13.6759245,6.01459255 C13.320803,5.32753159 12.4739981,5.06665697 11.7910877,5.42036125 C8.10867579,7.33809851 5.80848439,11.1064563 5.78671953,15.2505869 C5.76485343,19.5803768 8.28360452,23.5653708 12.2063409,25.4038435 C12.397568,25.4940411 12.5997281,25.5376721 12.7964217,25.5376721 C13.320803,25.5377733 13.8234194,25.2372158 14.0638452,24.7318661 L14.0638452,24.7318661 Z"/>
        <path d="M11.1135425,14.933731 C11.0971429,17.430616 12.5504282,19.7279729 14.8123539,20.7851377 C15.003581,20.8753353 15.2057411,20.916233 15.4079012,20.916233 C15.9323838,20.916233 16.4350002,20.6212432 16.675426,20.1130591 C17.0032149,19.4110158 16.697292,18.577776 15.997982,18.249987 C14.7195243,17.654541 13.8999507,16.3596836 13.910985,14.9500293 C13.9164515,13.600608 14.6704268,12.3712477 15.8668867,11.748469 C16.5552637,11.3906142 16.8229208,10.5464414 16.462434,9.86079764 C16.1073125,9.17515393 15.2549398,8.91286206 14.5774959,9.26798359 C12.452132,10.3717151 11.1244755,12.5434432 11.1135425,14.933731 L11.1135425,14.933731 Z"/>
        <path d="M10.9277819 28.0208908C5.96691232 25.693468 2.78165035 20.6485759 2.80898297 15.1741568 2.84178211 9.92103063 5.75381916 5.15138807 10.4141312 2.72283461 11.1025082 2.36639707 11.3701654 1.52232542 11.0096786.836580483 10.654557.149519527 9.80218437-.112671113 9.12474044.242450418 3.54109212 3.15033696.0500085623 8.86376458.0117429013 15.157656-.0210562368 21.7221402 3.79791747 27.7667987 9.74225508 30.5532069 9.93348215 30.6433033 10.1356423 30.6843022 10.3378024 30.6843022 10.8623861 30.6843022 11.3649013 30.3893125 11.6053271 29.8811283 11.933116 29.1819195 11.627092 28.3486797 10.9277819 28.0208908L10.9277819 28.0208908zM37.5186708 15.2505869C37.4968047 11.1064563 35.1966133 7.33809851 31.5143026 5.42036125 30.8368587 5.06797298 29.9845873 5.32753159 29.6293645 6.01459255 29.2687765 6.69892024 29.5365349 7.5443079 30.2194453 7.90084668 32.978521 9.33914962 34.7050311 12.160989 34.7214307 15.2670877 34.7378303 18.5096469 32.8528922 21.4953808 29.9135225 22.8715273 29.2142125 23.1993162 28.9137562 24.0325561 29.2414439 24.7318661 29.4818696 25.2372158 29.9845873 25.5377733 30.5089686 25.5377733 30.7056622 25.5377733 30.9077211 25.4940411 31.0990494 25.4039447 35.021887 23.5653708 37.5405369 19.580478 37.5186708 15.2505869L37.5186708 15.2505869z"/>
        <path d="M27.307307,18.2500883 C26.6080983,18.5778772 26.3020742,19.411117 26.6299643,20.1131603 C26.8702889,20.6213445 27.3730065,20.9163343 27.8974891,20.9163343 C28.0996492,20.9163343 28.3018093,20.8754366 28.4930364,20.7852389 C30.7549621,19.7280741 32.2082474,17.430616 32.1918478,14.9338322 C32.1809148,12.5435444 30.8532583,10.3718163 28.7279956,9.26818605 C28.0505517,8.91306452 27.198179,9.1753564 26.8430575,9.86100011 C26.4824695,10.5466438 26.7502278,11.3908167 27.4386048,11.7486715 C28.6350647,12.3714502 29.3891412,13.6008105 29.3945065,14.9502318 C29.4053383,16.3596836 28.585866,17.654541 27.307307,18.2500883 L27.307307,18.2500883 Z"/>
        <path d="M34.1804474.242450418C33.50847-.109937851 32.650732.152252789 32.2956105.836580483 31.9349212 1.52222419 32.2026796 2.36629584 32.8911578 2.72283461 37.5514699 5.15138807 40.4636082 9.92103063 40.4963061 15.1714235 40.5237399 20.6485759 37.338478 25.693468 32.3776084 28.0208908 31.6782983 28.3486797 31.3722743 29.1819195 31.7001644 29.8812295 31.9405902 30.3894137 32.4432066 30.6844035 32.9676891 30.6844035 33.169748 30.6844035 33.3719081 30.6434045 33.5632365 30.5533081 39.5074728 27.7668999 43.3264465 21.7222415 43.2936474 15.1577572 43.2552805 8.86376458 39.7641969 3.15033696 34.1804474.242450418L34.1804474.242450418zM23.2753414 16.840434C23.6031303 16.4634463 23.8215888 15.9854293 23.8215888 15.4472805 23.8215888 14.2643856 22.8599869 13.305517 21.6799265 13.305517 20.4943997 13.305517 19.5382643 14.2643856 19.5382643 15.4472805 19.5382643 15.9799628 19.7513575 16.4525133 20.0736799 16.8295009L12.5176291 39.4969447C12.2717367 40.2317871 12.6705905 41.024028 13.4026996 41.2670858 14.1402753 41.5129781 14.9270497 41.119591 15.1728408 40.3820153L15.6918567 38.8248661 27.6186964 38.8248661 28.1377124 40.3820153C28.3289394 40.9665283 28.8752881 41.3380494 29.4652676 41.3380494 29.607296 41.3380494 29.7603586 41.3161833 29.902387 41.2670858 30.6398614 41.0266601 31.0333499 40.2345204 30.7929241 39.50231L23.2753414 16.840434 23.2753414 16.840434zM24.914286 30.6733692L18.4073014 30.6733692 21.6690947 20.8834339 24.914286 30.6733692 24.914286 30.6733692zM16.6262272 36.027626L17.4784987 33.4707105 25.84319 33.4707105 26.6899949 36.027626 16.6262272 36.027626 16.6262272 36.027626z"/>
      </g>
    </g>
    <g transform="translate(220 88)">
      <use fill="#F6A235" xlink:href="#e"/>
      <circle cx="35" cy="35" r="34" stroke="#000000" stroke-opacity=".1" stroke-width="2"/>
      <g fill="#FFFFFF" transform="translate(22 10)">
        <path d="M13,30 C17.9632209,30 22,25.973871 22,21.0245448 L22,8.9754552 C22,4.02612904 17.9632209,0 13,0 C8.03677911,0 4,4.02612904 4,8.9754552 L4,21.0245448 C4,25.973871 8.03677911,30 13,30 Z"/>
        <path d="M24.964023,26 C23.8340185,26 23.2840048,26.4248872 23.0344132,26.739593 C22.9861893,26.8174087 22.9379653,26.895913 22.884528,26.9737286 C22.856506,27.0274421 22.8408658,27.070826 22.8408658,27.070826 L22.8310906,27.0598079 C20.6440692,30.2013566 17.1387092,32.2596839 13.1732666,32.2596839 C9.19935225,32.2596839 5.68877884,30.1937816 3.5024091,27.0412148 C3.5024091,27.0460352 3.4971957,27.0598079 3.4971957,27.0598079 C3.4971957,27.0598079 3.494589,27.0432807 3.4919823,27.021933 C3.37207409,26.8497745 3.26063766,26.670041 3.14854955,26.4896188 C2.85790249,26.238956 2.33134906,26.0027545 1.340803,26.0055091 C-0.196498403,26.0082636 -0.0746351719,26.8015701 0.0987103874,27.2209482 C2.43040366,31.6461109 6.70213352,34.7745756 11.6991777,35.2938057 L11.6991777,42.8797989 L4.76470364,42.8797989 C3.95010984,42.8797989 3.28865968,43.5787625 3.28865968,44.4395551 C3.28865968,45.3003478 3.95010984,46 4.76470364,46 L21.5863913,46 C22.4009851,46 23.0624353,45.3003478 23.0624353,44.4395551 C23.0624353,43.5787625 22.4009851,42.8797989 21.5863913,42.8797989 L14.6519173,42.8797989 L14.6519173,35.2882967 C19.2801134,34.8041869 23.2840048,32.0875254 25.7049775,28.1733292 C25.8346609,27.8696416 26.6088508,26 24.964023,26 Z"/>
      </g>
    </g>
    <g transform="translate(276)">
      <use fill="#1DA1F2" xlink:href="#f"/>
      <circle cx="35" cy="35" r="34" stroke="#000000" stroke-opacity=".1" stroke-width="2"/>
      <path fill="#FFFFFF" fill-rule="nonzero" d="M51.6752,28.5757813 C51.6752,28.1983813 51.6752,27.8226813 51.6497,27.4486813 C53.3562133,26.2143297 54.8293043,24.6859763 56,22.9351813 C54.4085944,23.6403443 52.7204098,24.10279 50.9918,24.3070813 C52.8120648,23.2173508 54.17441,21.5033937 54.8253,19.4841813 C53.1136677,20.4998553 51.2410984,21.2156517 49.2884,21.6006813 C46.5855407,18.7266516 42.2907229,18.0232227 38.8122338,19.8848372 C35.3337446,21.7464517 33.5366675,25.710135 34.4287,29.5532813 C27.4177228,29.2018055 20.8856088,25.8903309 16.458,20.4429813 C14.1436587,24.4271773 15.3257794,29.5241424 19.1576,32.0828813 C17.76996,32.0417541 16.4125749,31.6674237 15.2,30.9914813 L15.2,31.1019813 C15.2011358,35.2526893 18.1269775,38.8276911 22.1955,39.6495813 C20.9117783,39.9996794 19.564887,40.0508566 18.2583,39.7991813 C19.4006115,43.3512001 22.6741768,45.7845139 26.4047,45.8545813 C23.3170496,48.2812156 19.5028012,49.5985384 15.5757,49.5945813 C14.8819361,49.5932494 14.1888469,49.551244 13.5,49.4687813 C17.4875811,52.0277514 22.1273528,53.3851001 26.8654,53.3787813 C42.9032,53.3855813 51.6752,40.0983813 51.6752,28.5757813 Z"/>
    </g>
    <g transform="translate(386)">
      <use fill="url(#g)" xlink:href="#h"/>
      <use fill="url(#i)" xlink:href="#h"/>
      <circle cx="35" cy="35" r="34" stroke="#000000" stroke-opacity=".1" stroke-width="2"/>
      <g fill="#FFFFFF" transform="translate(14 14)">
        <path d="M20.9999583,3.78386038 C26.6072273,3.78386038 27.2713535,3.80520045 29.4857187,3.90623232 C31.533198,3.99967847 32.6451321,4.3417864 33.3851989,4.62929377 C34.3653414,5.01024728 35.0649788,5.46539087 35.799794,6.20020602 C36.5346091,6.93502117 36.9897527,7.63465855 37.3706229,8.6148011 C37.6582136,9.3548679 38.0003215,10.466802 38.0937677,12.5141979 C38.1947995,14.7286465 38.2161396,15.3927727 38.2161396,21.0000417 C38.2161396,26.6073106 38.1947995,27.2714368 38.0937677,29.4858021 C38.0003215,31.5332813 37.6582136,32.6452155 37.3706229,33.3852823 C36.9897527,34.3654248 36.5346091,35.0650622 35.799794,35.7998773 C35.0649788,36.5346925 34.3653414,36.9898361 33.3851989,37.3707062 C32.6451321,37.658297 31.533198,38.0004049 29.4857187,38.093851 C27.2716869,38.1948829 26.6075607,38.216223 20.9999583,38.216223 C15.3923559,38.216223 14.7282297,38.1948829 12.5141979,38.093851 C10.4667187,38.0004049 9.35478455,37.658297 8.6148011,37.3707062 C7.63457519,36.9898361 6.93493781,36.5346925 6.20012266,35.7998773 C5.46530751,35.0650622 5.01016392,34.3654248 4.62929377,33.3852823 C4.34170304,32.6452155 3.99959511,31.5332813 3.90614896,29.4858854 C3.80511709,27.2714368 3.78377702,26.6073106 3.78377702,21.0000417 C3.78377702,15.3927727 3.80511709,14.7286465 3.90614896,12.5142813 C3.99959511,10.466802 4.34170304,9.3548679 4.62929377,8.6148011 C5.01016392,7.63465855 5.46530751,6.93502117 6.20012266,6.20020602 C6.93493781,5.46539087 7.63457519,5.01024728 8.6148011,4.62929377 C9.35478455,4.3417864 10.4667187,3.99967847 12.5141146,3.90623232 C14.7285632,3.80520045 15.3926894,3.78386038 20.9999583,3.78386038 M20.9999583,0 C15.2966591,0 14.5816001,0.0241742931 12.3417269,0.126373201 C10.1064383,0.22840539 8.57995677,0.5833507 7.24411868,1.10251448 C5.86318303,1.63918379 4.69206357,2.35724365 3.52461193,3.52469529 C2.35716029,4.69214693 1.63910043,5.86326639 1.10243112,7.24420204 C0.58326734,8.58004013 0.22832203,10.1065217 0.126289841,12.3418102 C0.0240909334,14.5816001 0,15.2967424 0,21.0000417 C0,26.7033409 0.0240909334,27.4184832 0.126289841,29.6582731 C0.22832203,31.8935617 0.58326734,33.4200432 1.10243112,34.7558813 C1.63910043,36.1367336 2.35716029,37.3079364 3.52461193,38.4753881 C4.69206357,39.6428397 5.86318303,40.3608996 7.24411868,40.8975689 C8.57995677,41.4167327 10.1064383,41.771678 12.3417269,41.8737102 C14.5816001,41.9759091 15.2966591,42 20.9999583,42 C26.7032576,42 27.4183999,41.9759091 29.6581898,41.8737102 C31.8934783,41.771678 33.4199599,41.4167327 34.755798,40.8975689 C36.1367336,40.3608996 37.3078531,39.6428397 38.4753047,38.4753881 C39.6427563,37.3079364 40.3608162,36.136817 40.8974855,34.7558813 C41.4166493,33.4200432 41.7715946,31.8935617 41.8736268,29.6582731 C41.9758257,27.4184832 42,26.7033409 42,21.0000417 C42,15.2967424 41.9758257,14.5816001 41.8736268,12.3418102 C41.7715946,10.1065217 41.4166493,8.58004013 40.8974855,7.24420204 C40.3608162,5.86326639 39.6427563,4.69214693 38.4753047,3.52469529 C37.3078531,2.35724365 36.1367336,1.63918379 34.755798,1.10251448 C33.4199599,0.5833507 31.8934783,0.22840539 29.6581898,0.126373201 C27.4183999,0.0241742931 26.7032576,0 20.9999583,0"/>
        <path d="M21 10C14.9248947 10 10 14.9248947 10 21 10 27.0751053 14.9248947 32 21 32 27.0751053 32 32 27.0751053 32 21 32 14.9248947 27.0751053 10 21 10zM21 28.1403703C17.05653 28.1403703 13.8596297 24.94347 13.8596297 21 13.8596297 17.05653 17.05653 13.8596297 21 13.8596297 24.94347 13.8596297 28.1403703 17.05653 28.1403703 21 28.1403703 24.94347 24.94347 28.1403703 21 28.1403703L21 28.1403703zM36 10.9999504C36 12.6568201 34.6569193 14 33.0000496 14 31.3431799 14 30 12.6568201 30 10.9999504 30 9.34308066 31.3431799 8 33.0000496 8 34.6569193 8 36 9.34308066 36 10.9999504"/>
      </g>
    </g>
    <g transform="translate(276 176)">
      <use fill="#CA1F20" xlink:href="#j"/>
      <circle cx="35" cy="35" r="34" stroke="#000000" stroke-opacity=".1" stroke-width="2"/>
      <path fill="#FFFFFF" d="M30.5642364,40.561536 L30.5620588,27.2644828 L43.3494689,33.936175 L30.5642364,40.561536 Z M58.6399218,24.960942 C58.6399218,24.960942 58.1775365,21.6997355 56.7585046,20.2636074 C54.9589083,18.3787154 52.9417407,18.3693565 52.016692,18.2590419 C45.3942499,17.7803016 35.4602392,17.7803016 35.4602392,17.7803016 L35.4396681,17.7803016 C35.4396681,17.7803016 25.5058891,17.7803016 18.8832153,18.2590419 C17.9581203,18.3693565 15.941694,18.3787154 14.1414491,20.2636074 C12.7225099,21.6997355 12.2607732,24.960942 12.2607732,24.960942 C12.2607732,24.960942 11.7875,28.7906787 11.7875,32.620369 L11.7875,36.2107124 C11.7875,40.0403563 12.2607732,43.8700467 12.2607732,43.8700467 C12.2607732,43.8700467 12.7225099,47.1312995 14.1414491,48.5674276 C15.941694,50.452366 18.3064382,50.3927377 19.3596853,50.590294 C23.1457317,50.9533452 35.45,51.0656984 35.45,51.0656984 C35.45,51.0656984 45.3942499,51.0507334 52.016692,50.5720395 C52.9417407,50.4616786 54.9589083,50.452366 56.7585046,48.5674276 C58.1775365,47.1312995 58.6399218,43.8700467 58.6399218,43.8700467 C58.6399218,43.8700467 59.1125,40.0403563 59.1125,36.2107124 L59.1125,32.620369 C59.1125,28.7906787 58.6399218,24.960942 58.6399218,24.960942 L58.6399218,24.960942 Z"/>
    </g>
    <g transform="translate(56 176)">
      <mask id="l" fill="white">
        <use xlink:href="#k"/>
      </mask>
      <use fill="#FFFFFF" xlink:href="#k"/>
      <g mask="url(#l)">
        <use fill="#EC192B" xlink:href="#m"/>
        <circle cx="35" cy="35" r="34" stroke="#000000" stroke-opacity=".1" stroke-width="2"/>
      </g>
      <path fill="#FFFFFF" d="M46.8689615,29.7872131 L46.8689615,27.6560656 C46.8569289,24.5342754 44.2447591,22.0068197 41.0224913,22 L19.8429505,22 C16.6189665,22.0099908 14.0101183,24.5373869 14,27.6607541 L14,42.3392459 C14.0103111,45.4626984 16.6190545,47.9901967 19.8429505,48 L41.0224913,48 C44.2464749,47.9933423 46.8588427,45.4642754 46.8689615,42.3392459 L46.8689615,40.2080984 L53.7981438,44.4021115 C56.1078713,45.8006557 58,44.7850531 58,42.147741 L58,27.8439049 C57.9948526,25.1966361 56.1027239,24.1909902 53.7929964,25.5895344 L46.8689615,29.7872131 Z" mask="url(#l)"/>
    </g>
    <g transform="translate(166 176)">
      <use fill="#A7D17B" xlink:href="#n"/>
      <circle cx="35" cy="35" r="34" stroke="#000000" stroke-opacity=".1" stroke-width="2"/>
      <path fill="#FFFFFF" d="M20.5867928,51.428427 C20.5867928,53.5430437 22.5943618,54.5115705 24.237459,53.1607305 C24.237459,53.1607305 28.1701873,49.9187147 29.6798996,48.6808696 C31.406256,48.9960655 33.1878355,49.1549379 35,49.1549379 C47.0632555,49.1549379 57,41.9801938 57,32.8471565 C57,23.7141192 47.0632555,16.5393751 35,16.5393751 C22.9367445,16.5393751 13,23.7141192 13,32.8471565 C13,37.702534 15.8410118,42.1492611 20.5969878,45.1958725 C20.5867928,45.816919 20.5867928,51.428427 20.5867928,51.428427 Z"/>
    </g>
    <g transform="translate(330 88)">
      <use fill="#2BB490" xlink:href="#o"/>
      <circle cx="35" cy="35" r="34" stroke="#000000" stroke-opacity=".1" stroke-width="2"/>
      <g fill="#FFFFFF" transform="translate(16 14)">
        <path d="M41.2646133,12.9186358 C42.2451289,11.9387178 42.2451289,10.3983344 41.2646133,9.4178189 L32.5821811,0.735386655 C31.6016656,-0.245128885 30.0612822,-0.245128885 29.0813642,0.735386655 L26,3.81615334 L38.1838467,16 L41.2646133,12.9186358 Z"/>
        <polygon points="4 26.675 15.325 38 36 17.457 24.543 6"/>
        <path d="M0.0516959204,38.980507 C-0.0861844089,39.6668619 0.0516959204,40.4902535 0.46592614,41.0395717 C0.88015636,41.5883042 1.57073647,42 2.39978614,42 C2.53766647,42 2.81401636,42 2.95189669,41.8629633 L14,39.1175437 L2.81401636,28 L0.0516959204,38.980507 Z"/>
      </g>
    </g>
    <g transform="translate(56)">
      <use fill="#E34B85" xlink:href="#p"/>
      <circle cx="35" cy="35" r="34" stroke="#000000" stroke-opacity=".1" stroke-width="2"/>
      <g transform="translate(15 21)">
        <rect width="40" height="24" stroke="#FFFFFF" stroke-width="3" rx="2"/>
        <rect width="22" height="3" x="9" y="28" fill="#FFFFFF" rx="1.5"/>
      </g>
    </g>
    <g transform="translate(386 176)">
      <use fill="#FF5930" xlink:href="#q"/>
      <circle cx="35" cy="35" r="34" stroke="#000000" stroke-opacity=".1" stroke-width="2"/>
      <g fill="#FFFFFF" transform="translate(14 18)">
        <path d="M42.8103601,0 L1.18963034,0 C0.53111997,0 0,0.517242663 0,1.15287502 L0,32.847125 C0,33.4852897 0.533733107,34 1.18963034,34 L42.8103601,34 C43.4688705,34 43.9999904,33.4827573 43.9999904,32.847125 L43.9999904,1.15287502 C44.0026036,0.517242663 43.4688705,0 42.8103601,0 Z M42,32 L2,32 L2,2 L41.9946736,2 L41.9946736,32 L42,32 Z"/>
        <path d="M39.6691261 28.0475408L26.2400167 14.3356379C25.8017291 13.8881207 25.0915921 13.8881207 24.6533044 14.3356379L16.9835785 22.1662454 14.3279621 19.4547064C13.8896745 19.0071892 13.1795375 19.0071892 12.7412498 19.4547064L4.32501712 28.0475408C4.27200342 28.1016709 4.22392123 28.1608363 4.18570205 28.22189 4.16844178 28.2489551 4.1542637 28.2810555 4.13946918 28.3081205 4.12035959 28.3427386 4.09878424 28.3792449 4.08460616 28.4188983 4.06981164 28.4560341 4.06056507 28.4950581 4.05070205 28.5347115 4.04083904 28.5687002 4.02912671 28.5982829 4.02172945 28.6329009 3.99275685 28.7801851 3.99275685 28.9325046 4.02172945 29.0804182 4.02666096 29.1144068 4.04083904 29.1439895 4.05070205 29.1786076 4.06241438 29.2176316 4.06981164 29.257285 4.08460616 29.2944208 4.09878424 29.3334448 4.12035959 29.3680629 4.13946918 29.4045692 4.1542637 29.4341519 4.16844178 29.4637346 4.18570205 29.4907997 4.26707191 29.6160541 4.37309931 29.7243143 4.49638698 29.8080271 4.52289383 29.8275391 4.55371574 29.8401275 4.58268835 29.8546041 4.61659245 29.8741161 4.65296232 29.8967752 4.68871574 29.9112519 4.7250856 29.9257285 4.76330478 29.9357992 4.8021404 29.9458699 4.83542807 29.9553112 4.86440067 29.9678996 4.89830478 29.9754526 4.97042806 29.9899293 5.0450171 30 5.11714039 30L38.7833042 30C38.7974822 30 38.8141261 29.9949646 38.8289206 29.9949646 38.8430987 29.9949646 38.8628247 30 38.8770028 30 39.1636466 30 39.4502905 29.8867045 39.6715918 29.6632606 40.1098795 29.2201493 40.1098795 28.4950581 39.6691261 28.0475408zM13.0002996 6C10.2424642 6 8 8.24292905 8 11 8 13.7576702 10.2424642 16 13.0002996 16 15.7575358 16 18 13.7576702 18 11 18 8.24292905 15.7551387 6 13.0002996 6z"/>
      </g>
    </g>
    <g transform="translate(0 293)">
      <rect width="102" height="50" x="408" fill="#F7F7F7"/>
      <rect width="102" height="50" x="306" fill="#D6D6D6"/>
      <rect width="102" height="50" x="204" fill="#212121"/>
      <rect width="102" height="50" fill="#2196F3"/>
      <rect width="102" height="50" x="102" fill="#02263E"/>
      <rect width="509" height="49" x=".5" y=".5" stroke="#000000" stroke-opacity=".1"/>
    </g>
  </g>
</svg>
