<?xml version="1.0" encoding="UTF-8" standalone="no"?>
<svg width="579px" height="179px" viewBox="0 0 579 179" version="1.1" xmlns="http://www.w3.org/2000/svg" xmlns:xlink="http://www.w3.org/1999/xlink">
    <!-- Generator: Sketch 3.7.1 (28215) - http://www.bohemiancoding.com/sketch -->
    <title>elnn-logo</title>
    <desc>Created with Sketch.</desc>
    <defs>
        <radialGradient cx="50.5907173%" cy="-128.955052%" fx="50.5907173%" fy="-128.955052%" r="365.274262%" id="radialGradient-1">
            <stop stop-color="#FFE495" offset="36%"></stop>
            <stop stop-color="#FDE190" offset="44%"></stop>
            <stop stop-color="#F7D881" offset="54%"></stop>
            <stop stop-color="#ECC969" offset="66%"></stop>
            <stop stop-color="#E6C05A" offset="71%"></stop>
            <stop stop-color="#DFB031" offset="90%"></stop>
        </radialGradient>
        <radialGradient cx="22505%" cy="29399%" fx="22505%" fy="29399%" r="8657%" id="radialGradient-2">
            <stop stop-color="#FFE495" offset="36%"></stop>
            <stop stop-color="#FDE190" offset="44%"></stop>
            <stop stop-color="#F7D881" offset="54%"></stop>
            <stop stop-color="#ECC969" offset="66%"></stop>
            <stop stop-color="#E6C05A" offset="71%"></stop>
            <stop stop-color="#DFB031" offset="90%"></stop>
        </radialGradient>
        <radialGradient cx="22505%" cy="29399%" fx="22505%" fy="29399%" r="8658%" id="radialGradient-3">
            <stop stop-color="#FFE495" offset="36%"></stop>
            <stop stop-color="#FDE190" offset="44%"></stop>
            <stop stop-color="#F7D881" offset="54%"></stop>
            <stop stop-color="#ECC969" offset="66%"></stop>
            <stop stop-color="#E6C05A" offset="71%"></stop>
            <stop stop-color="#DFB031" offset="90%"></stop>
        </radialGradient>
        <radialGradient cx="22505%" cy="29398%" fx="22505%" fy="29398%" r="8657%" id="radialGradient-4">
            <stop stop-color="#FFE495" offset="36%"></stop>
            <stop stop-color="#FDE190" offset="44%"></stop>
            <stop stop-color="#F7D881" offset="54%"></stop>
            <stop stop-color="#ECC969" offset="66%"></stop>
            <stop stop-color="#E6C05A" offset="71%"></stop>
            <stop stop-color="#DFB031" offset="90%"></stop>
        </radialGradient>
        <radialGradient cx="22506%" cy="29398%" fx="22506%" fy="29398%" r="8658%" id="radialGradient-5">
            <stop stop-color="#FFE495" offset="36%"></stop>
            <stop stop-color="#FDE190" offset="44%"></stop>
            <stop stop-color="#F7D881" offset="54%"></stop>
            <stop stop-color="#ECC969" offset="66%"></stop>
            <stop stop-color="#E6C05A" offset="71%"></stop>
            <stop stop-color="#DFB031" offset="90%"></stop>
        </radialGradient>
        <radialGradient cx="22505%" cy="29400%" fx="22505%" fy="29400%" r="8656%" id="radialGradient-6">
            <stop stop-color="#FFE495" offset="36%"></stop>
            <stop stop-color="#FDE190" offset="44%"></stop>
            <stop stop-color="#F7D881" offset="54%"></stop>
            <stop stop-color="#ECC969" offset="66%"></stop>
            <stop stop-color="#E6C05A" offset="71%"></stop>
            <stop stop-color="#DFB031" offset="90%"></stop>
        </radialGradient>
        <radialGradient cx="22506%" cy="29399%" fx="22506%" fy="29399%" r="8657%" id="radialGradient-7">
            <stop stop-color="#FFE495" offset="36%"></stop>
            <stop stop-color="#FDE190" offset="44%"></stop>
            <stop stop-color="#F7D881" offset="54%"></stop>
            <stop stop-color="#ECC969" offset="66%"></stop>
            <stop stop-color="#E6C05A" offset="71%"></stop>
            <stop stop-color="#DFB031" offset="90%"></stop>
        </radialGradient>
        <radialGradient cx="22505%" cy="29397%" fx="22505%" fy="29397%" r="8659%" id="radialGradient-8">
            <stop stop-color="#FFE495" offset="36%"></stop>
            <stop stop-color="#FDE190" offset="44%"></stop>
            <stop stop-color="#F7D881" offset="54%"></stop>
            <stop stop-color="#ECC969" offset="66%"></stop>
            <stop stop-color="#E6C05A" offset="71%"></stop>
            <stop stop-color="#DFB031" offset="90%"></stop>
        </radialGradient>
    </defs>
    <g id="Page-1" stroke="none" stroke-width="1" fill="none" fill-rule="evenodd">
        <g id="elnn-logo">
            <path d="M99.28,126.42 C98.3057021,120.229746 92.7732202,115.802894 86.52,116.21 C81.1032198,116.589812 76.616516,120.559766 75.58,125.89 L87.25,137.59 L99.28,126.42 Z" id="Shape" fill="url(#radialGradient-1)"></path>
            <path d="M107.64,69.21 C111.296017,72.412771 116.529524,73.0773433 120.87,70.89 L120.87,54.03 L105.52,53.44 C102.18949,58.488523 103.094456,65.2202744 107.64,69.21 L107.64,69.21 Z" id="Shape" fill="url(#radialGradient-2)"></path>
            <path d="M88.17,60.47 C92.9506524,60.1499466 97.0750213,56.9985663 98.64,52.47 L86.26,40.09 L75.39,50.16 C76.3184331,56.3984792 81.8762946,60.8821687 88.17,60.47 L88.17,60.47 Z" id="Shape" fill="url(#radialGradient-2)"></path>
            <path d="M80.91,23.37 C80.8506219,23.4587054 80.7800383,23.5393723 80.7,23.61 C78.9302369,24.787865 77.4912731,26.3989537 76.52,28.29 C67.9012446,29.8202577 59.7146296,33.1938253 52.52,38.18 L51.96,52.73 L68.5,52.73 C68.2526111,52.413184 67.9889221,52.1094409 67.71,51.82 C65.65,49.7 63.56,47.6 61.46,45.52 C65.7444535,42.9384961 70.3932502,41.0169486 75.25,39.82 L75.25,47.53 L97.32,27.08 C97.17,26.85 97.02,26.62 96.84,26.4 C95.94,25.24 94.99,24.11 94.12,23.04 C97.9120858,20.4469217 99.9086752,15.9300777 99.2739923,11.3802263 C98.6393094,6.83037491 95.4828363,3.03235881 91.1258777,1.5760339 C86.7689192,0.119708984 81.9630442,1.25628914 78.72,4.51 C76.1546899,7.14992829 74.9125041,10.8035006 75.3370887,14.4599695 C75.7616734,18.1164385 77.8080148,21.3881511 80.91,23.37 L80.91,23.37 Z M87.38,4.49 C92.0802969,4.50090192 95.8925576,8.29977052 95.92,13 C95.92,17.7468874 92.0718874,21.595 87.325,21.595 C82.5781126,21.595 78.73,17.7468874 78.73,13 C78.743192,10.7244967 79.6618751,8.54789252 81.2830762,6.95108443 C82.9042774,5.35427634 85.0945582,4.46869502 87.37,4.49 L87.38,4.49 Z" id="Shape" fill="url(#radialGradient-2)"></path>
            <path d="M88,19.59 C89.0589554,18.5635375 90.0136173,17.4346917 90.85,16.22 C90.8764075,16.1319371 90.8764075,16.0380629 90.85,15.95 C90.8858611,15.4892496 90.7303367,15.0340741 90.4200306,14.6916021 C90.1097245,14.3491302 89.6720439,14.14961 89.21,14.14 C87.92,14.08 86.62,14.09 85.33,14.14 C84.5506931,14.1408217 83.8883754,14.7097357 83.77,15.48 C83.6,16.28 85.24,18.01 85.41,18.39 C85.94,19.47 87.17,20.23 88,19.59 L88,19.59 Z" id="Shape" fill="url(#radialGradient-3)"></path>
            <path d="M115.22,89.17 C115.560399,94.2349509 119.066168,98.5309227 123.96,99.88 L135.52,88.34 L124.59,76.59 C118.808339,77.9243282 114.842821,83.2483643 115.22,89.17 L115.22,89.17 Z" id="Shape" fill="url(#radialGradient-2)"></path>
            <path d="M136.45,40.16 C137.92532,40.1832604 139.399282,40.0593136 140.85,39.79 C140.935439,39.7556319 141.008595,39.6964101 141.06,39.62 C141.408131,39.3197218 141.617994,38.889894 141.64067,38.4307121 C141.663346,37.9715302 141.496852,37.5231169 141.18,37.19 C140.31,36.19 139.39,35.32 138.44,34.45 C137.894588,33.929047 137.057016,33.866229 136.44,34.3 C135.76,34.75 135.69,37.13 135.54,37.52 C135.05,38.65 135.38,40.06 136.45,40.16 L136.45,40.16 Z" id="Shape" fill="url(#radialGradient-4)"></path>
            <path d="M171.18,79.78 C168.549576,77.2041562 164.900139,75.9479391 161.241567,76.3589711 C157.582995,76.7700031 154.303283,78.8046936 152.31,81.9 C152.221429,81.8404473 152.140783,81.7698823 152.07,81.69 C150.91712,79.9668859 149.353441,78.5578567 147.52,77.59 C146.045435,69.4016208 142.903782,61.6036488 138.29,54.68 L122.88,54.09 L122.88,69.59 C123.228658,69.3216506 123.562484,69.034561 123.88,68.73 C126.01,66.66 128.12,64.55 130.21,62.44 C132.816542,66.7331024 134.758521,71.3958735 135.97,76.27 L127.08,76.27 L147.93,98.78 C148.406553,98.5077256 148.864252,98.2037061 149.3,97.87 C150.47,96.97 151.59,96.02 152.66,95.15 C155.225855,98.9997797 159.762333,101.049471 164.347242,100.43058 C168.932151,99.8116894 172.762821,96.632564 174.216124,92.2402611 C175.669426,87.8479581 174.490935,83.0114272 171.18,79.78 L171.18,79.78 Z M162.69,96.91 C157.943113,96.91 154.095,93.0618874 154.095,88.315 C154.095,83.5681126 157.943113,79.72 162.69,79.72 C167.439649,79.7200004 171.289999,83.5703514 171.289999,88.32 C171.289999,93.0696486 167.439649,96.9199996 162.69,96.92 L162.69,96.91 Z" id="Shape" fill="url(#radialGradient-2)"></path>
            <path d="M67.05,107.46 C63.0094443,103.954284 57.1363394,103.54643 52.65,106.46 L52.65,123.65 L68.41,124.25 C68.54,124.1 68.68,123.96 68.79,123.8 C72.5544305,118.7315 71.7973709,111.622102 67.05,107.46 L67.05,107.46 Z" id="Shape" fill="url(#radialGradient-2)"></path>
            <path d="M122.19,106.48 C117.164848,103.205887 110.500142,104.103305 106.52,108.59 C103.036417,112.597843 102.601177,118.418665 105.45,122.9 L121.52,122.9 L122.19,106.48 Z" id="Shape" fill="url(#radialGradient-2)"></path>
            <path d="M87.73,38.74 L99.2,50.21 C99.27513,49.7032022 99.3185478,49.1922083 99.33,48.68 L99.33,39.82 C104.186377,41.0132389 108.835231,42.9314391 113.12,45.51 L107.29,51.33 L107.12,51.5 L137.6,52.67 C137.716516,52.2189612 137.806668,51.7615203 137.87,51.3 C138.06,49.84 138.18,48.37 138.32,47 C142.827084,47.8297166 147.416144,46.0419501 150.174165,42.3819562 C152.932186,38.7219622 153.385811,33.8179025 151.345941,29.7141036 C149.306071,25.6103047 145.122806,23.0110982 140.54,23 C136.859796,23.039933 133.392563,24.7324121 131.097207,27.6093617 C128.801851,30.4863113 127.921637,34.2428275 128.7,37.84 C128.593812,37.854286 128.486188,37.854286 128.38,37.84 C126.308791,37.4345603 124.168537,37.5618745 122.16,38.21 C115.154022,33.3414562 107.201573,30.0023815 98.82,28.41 L87.73,38.74 Z M134.52,28.98 C136.690388,26.8078252 139.854752,25.9585414 142.821104,26.7520655 C145.787457,27.5455897 148.10514,29.8613666 148.901104,32.8270655 C149.697069,35.7927645 148.850388,38.9578252 146.68,41.13 C144.509612,43.3021749 141.345248,44.1514589 138.378896,43.3579348 C135.412543,42.5644106 133.09486,40.2486336 132.298895,37.2829346 C131.502931,34.3172356 132.349611,31.1521748 134.52,28.98 L134.52,28.98 Z" id="Shape" fill="url(#radialGradient-2)"></path>
            <path d="M36.85,46.95 C36.8636,47.0562332 36.8636,47.1637668 36.85,47.27 C36.4486419,49.327513 36.572457,51.4530055 37.21,53.45 C32.1553684,60.6739492 28.7328896,68.9111016 27.18,77.59 L36.67,87.83 L48.15,76.35 L47.69,76.35 L38.69,76.35 C39.9211627,71.4648757 41.8868966,66.7949932 44.52,62.5 L49.52,67.5 L50.65,37.85 L50.36,37.8 C48.9,37.61 47.43,37.49 46.06,37.35 C46.8897166,32.8429161 45.1019501,28.2538563 41.4419562,25.4958353 C37.7819622,22.7378143 32.8779025,22.2841888 28.7741036,24.324059 C24.6703047,26.3639291 22.0710982,30.5471938 22.06,35.13 C22.1089456,38.7958433 23.7971981,42.247063 26.6611291,44.5358841 C29.5250601,46.8247052 33.2635743,47.7104959 36.85,46.95 L36.85,46.95 Z M28.07,29.02 C31.4075974,25.707443 36.7924026,25.707443 40.13,29.02 C42.3021748,31.1903885 43.1514586,34.3547516 42.3579345,37.3211043 C41.5644103,40.2874571 39.2486334,42.60514 36.2829345,43.4011043 C33.3172355,44.1970686 30.1521748,43.3503885 27.98,41.18 C26.3698433,39.5605573 25.4735452,37.3648595 25.490447,35.081241 C25.5073488,32.7976225 26.436049,30.615432 28.07,29.02 L28.07,29.02 Z" id="Shape" fill="url(#radialGradient-2)"></path>
            <path d="M137.84,129.73 C137.826614,129.623753 137.826614,129.516247 137.84,129.41 C138.228022,127.415263 138.125063,125.356082 137.54,123.41 C142.248336,116.655077 145.53484,109.013787 147.2,100.95 L136.88,89.81 L126.37,100.29 L127,100.29 L136,100.29 C134.809711,105.189891 132.880983,109.880207 130.28,114.2 L124.34,108.25 L124.13,108.04 L122.97,138.59 C123.437664,138.710083 123.911757,138.803566 124.39,138.87 C125.85,139.06 127.32,139.18 128.69,139.32 C127.860019,143.828283 129.64893,148.418495 133.310656,151.176258 C136.972381,153.93402 141.87811,154.385756 145.981877,152.343066 C150.085645,150.300376 152.682729,146.114041 152.69,141.53 C152.638797,137.854668 150.939935,134.396568 148.062157,132.109849 C145.184379,129.82313 141.431866,128.949497 137.84,129.73 L137.84,129.73 Z M146.62,147.66 C143.282403,150.972557 137.897597,150.972557 134.56,147.66 C131.202109,144.30487 131.19987,138.862891 134.555,135.505 C137.91013,132.147109 143.352109,132.14487 146.71,135.5 C148.317069,137.119041 149.211409,139.31258 149.194512,141.593737 C149.177614,143.874894 148.250877,146.054944 146.62,147.65 L146.62,147.66 Z" id="Shape" fill="url(#radialGradient-2)"></path>
            <path d="M85.78,138.93 L75.35,128.49 L75.35,137.1 C70.4330913,135.894049 65.7289631,133.944955 61.4,131.32 L66.55,126.18 L36.86,125.05 C36.86,125.16 36.86,125.27 36.8,125.39 C36.61,126.85 36.49,128.32 36.35,129.69 C31.8417166,128.860019 27.2515049,130.64893 24.4937424,134.310656 C21.7359799,137.972381 21.284244,142.87811 23.3269341,146.981877 C25.3696242,151.085645 29.5559587,153.682729 34.14,153.69 C37.8188763,153.646405 41.2836976,151.952959 43.5782514,149.077015 C45.8728052,146.201071 46.7544971,142.446691 45.98,138.85 C46.0863004,138.8375 46.1936996,138.8375 46.3,138.85 C48.29387,139.242071 50.353236,139.142535 52.3,138.56 C59.2653951,143.434156 67.1756941,146.793137 75.52,148.42 L85.78,138.93 Z M40.16,147.7 C36.7680036,150.750771 31.5828898,150.617836 28.3516769,147.397261 C25.120464,144.176685 24.9704314,138.992038 28.01,135.59 C30.1363213,133.246972 33.378526,132.262535 36.4486145,133.027766 C39.518703,133.792997 41.9195689,136.18399 42.6974431,139.2509 C43.4753173,142.317809 42.504247,145.564043 40.17,147.7 L40.16,147.7 Z" id="Shape" fill="url(#radialGradient-2)"></path>
            <path d="M22.62,94.98 C23.7698349,96.6844717 25.3223598,98.0789962 27.14,99.04 C28.6448485,107.652723 31.9910474,115.839142 36.95,123.04 L50.65,123.59 L50.65,108.08 C48.5433333,110.126667 46.46,112.193333 44.4,114.28 C41.7952916,109.957353 39.8631975,105.263679 38.67,100.36 L45.52,100.36 L25.52,78.72 L25.44,78.77 C24.27,79.67 23.15,80.62 22.08,81.49 C19.4591215,77.7669837 14.9701863,75.8303578 10.4635363,76.4784007 C5.9568862,77.1264437 2.19550971,80.24944 0.729848533,84.5600887 C-0.735812648,88.8707373 0.34238201,93.6392335 3.52,96.9 C6.15207656,99.4723124 9.8004912,100.726138 13.4577837,100.31525 C17.1150763,99.9043615 20.3943214,97.8722297 22.39,94.78 C22.4744773,94.837114 22.5517089,94.9042719 22.62,94.98 L22.62,94.98 Z M12.01,96.98 C7.37717571,96.8219531 3.70321494,93.0205194 3.70321494,88.385 C3.70321494,83.7494806 7.37717571,79.9480469 12.01,79.79 C15.17417,79.6371879 18.1656255,81.238284 19.7934778,83.9558969 C21.4213301,86.6735099 21.4213301,90.0664901 19.7934778,92.7841031 C18.1656255,95.501716 15.17417,97.1028121 12.01,96.95 L12.01,96.98 Z" id="Shape" fill="url(#radialGradient-2)"></path>
            <path d="M38.23,136.52 C36.7546796,136.49674 35.2807176,136.620686 33.83,136.89 C33.74487,136.924891 33.6718524,136.984001 33.62,137.06 C33.2718691,137.360278 33.0620055,137.790106 33.0393299,138.249288 C33.0166542,138.70847 33.1831478,139.156883 33.5,139.49 C34.37,140.49 35.29,141.36 36.24,142.23 C36.7854116,142.750953 37.6229841,142.813771 38.24,142.38 C38.92,141.93 38.99,139.55 39.14,139.16 C39.64,138.03 39.31,136.59 38.23,136.52 L38.23,136.52 Z" id="Shape" fill="url(#radialGradient-5)"></path>
            <path d="M86.69,157.13 C85.6309485,158.156373 84.6762782,159.285228 83.84,160.5 C83.8135925,160.588063 83.8135925,160.681937 83.84,160.77 C83.8041389,161.23075 83.9596633,161.685926 84.2699694,162.028398 C84.5802755,162.37087 85.0179561,162.57039 85.48,162.58 C86.77,162.64 88.07,162.63 89.36,162.58 C90.1393069,162.579178 90.8016246,162.010264 90.92,161.24 C91.09,160.45 89.45,158.71 89.28,158.33 C88.75,157.21 87.52,156.45 86.69,157.13 L86.69,157.13 Z" id="Shape" fill="url(#radialGradient-6)"></path>
            <path d="M139.46,136.59 C139.026708,136.657769 138.583358,136.616527 138.17,136.47 C137.04,136.03 135.63,136.36 135.52,137.47 C135.498644,138.945255 135.622575,140.419029 135.89,141.87 C135.92539,141.954833 135.984395,142.027721 136.06,142.08 C136.360481,142.431281 136.792429,142.643228 137.254134,142.665935 C137.715839,142.688641 138.1665,142.520101 138.5,142.2 C139.5,141.33 140.37,140.41 141.24,139.46 C141.788399,138.907023 141.852066,138.036914 141.39,137.41 C140.990867,136.749003 140.212857,136.41845 139.46,136.59 L139.46,136.59 Z" id="Shape" fill="url(#radialGradient-7)"></path>
            <path d="M160.24,84.8 C159.495821,84.6359012 158.729337,84.9609547 158.33,85.61 C158.08,85.95 155.46,88.16 156.14,89 C157.16574,90.0597286 158.294666,91.0144584 159.51,91.85 C159.598063,91.8764075 159.691937,91.8764075 159.78,91.85 C160.24075,91.8858611 160.695926,91.7303367 161.038398,91.4200306 C161.38087,91.1097245 161.58039,90.6720439 161.59,90.21 C161.65,88.92 161.64,87.62 161.59,86.33 C161.573782,85.5588466 161.003133,84.9121108 160.24,84.8 L160.24,84.8 Z" id="Shape" fill="url(#radialGradient-2)"></path>
            <path d="M36.52,40.19 C37.65,40.63 39.06,40.3 39.17,39.19 C39.1922692,37.7147136 39.0683306,36.2408496 38.8,34.79 C38.7639606,34.7082374 38.7048886,34.6387409 38.63,34.59 C38.3295188,34.2387193 37.8975706,34.0267721 37.4358656,34.0040653 C36.9741607,33.9813585 36.5235,34.1498987 36.19,34.47 C35.19,35.34 34.32,36.26 33.45,37.22 C32.929047,37.7654116 32.866229,38.6029841 33.3,39.22 C33.74,39.98 36.13,40.04 36.52,40.19 L36.52,40.19 Z" id="Shape" fill="url(#radialGradient-2)"></path>
            <path d="M51.39,69.36 C51.55,69.5 51.71,69.65 51.88,69.78 C56.950998,73.5419957 64.0606887,72.7805539 68.22,68.03 C71.4430007,64.3441776 72.0891198,59.064235 69.85,54.71 L51.95,54.71 L51.39,69.36 Z" id="Shape" fill="url(#radialGradient-2)"></path>
            <path d="M93.78,153.31 C93.8395527,153.221429 93.9101177,153.140783 93.99,153.07 C95.6563077,151.944655 97.0280837,150.435701 97.99,148.67 C106.182677,147.223471 113.990781,144.109079 120.93,139.52 L121.52,124.94 L107,124.94 C109.086667,127.086667 111.193333,129.21 113.32,131.31 C108.975577,133.942 104.254401,135.894543 99.32,137.1 L99.32,129.1 L77.26,149.59 C77.43,149.84 77.6,150.08 77.78,150.32 C78.68,151.48 79.63,152.61 80.5,153.68 C76.7245177,156.279484 74.7420788,160.789219 75.3794079,165.328535 C76.016737,169.867852 79.1643988,173.65731 83.5097431,175.116614 C87.8550874,176.575918 92.6519793,175.454493 95.9,172.22 C98.4874002,169.587278 99.7508653,165.928891 99.3396075,162.260549 C98.9283498,158.592208 96.8861487,155.304418 93.78,153.31 L93.78,153.31 Z M87.31,172.19 C82.6097031,172.179098 78.7974424,168.380229 78.77,163.68 C78.77,158.933113 82.6181126,155.085 87.365,155.085 C92.1118874,155.085 95.96,158.933113 95.96,163.68 C95.9468243,165.957254 95.0267674,168.13539 93.4033954,169.732488 C91.7800235,171.329585 89.5871655,172.213982 87.31,172.19 L87.31,172.19 Z" id="Shape" fill="url(#radialGradient-2)"></path>
            <path d="M15.18,84.83 C15.0919371,84.8035925 14.9980629,84.8035925 14.91,84.83 C14.4509429,84.7942053 13.9973139,84.9483952 13.6551577,85.2565248 C13.3130015,85.5646544 13.1123105,85.9997141 13.1,86.46 C13.04,87.75 13.05,89.05 13.1,90.34 C13.1008217,91.1193069 13.6697357,91.7816246 14.44,91.9 C15.23,92.07 16.97,90.43 17.35,90.26 C18.46,89.77 19.22,88.54 18.54,87.71 C17.5182153,86.6410171 16.3926796,85.6762722 15.18,84.83 L15.18,84.83 Z" id="Shape" fill="url(#radialGradient-2)"></path>
            <path d="M59.52,87.51 C59.1590221,82.3981658 55.5917329,78.079657 50.64,76.76 L38.08,89.32 L48.3,100.32 C48.6011097,100.314264 48.9016246,100.290891 49.2,100.25 C55.4262408,99.327305 59.9099804,93.7921458 59.52,87.51 L59.52,87.51 Z" id="Shape" fill="url(#radialGradient-8)"></path>
            <path d="M249.93,96.91 C254.81,96.91 259.61,94.19 263.93,90.58 C264.499057,92.5571162 265.989356,94.1368337 267.93,94.82 C270.120864,95.7293069 272.494237,96.1128824 274.86,95.94 C276.31,95.76 276.58,95.09 276.58,93.88 L276.58,51.93 C276.58003,51.4257778 276.174192,51.0154807 275.67,51.01 L264.67,51.01 C264.161898,51.01 263.75,51.421898 263.75,51.93 L263.75,83.35 C261.38,84.94 258.75,86.46 255.85,86.46 C249.99,86.46 248.8,83.14 248.8,78 L248.8,51.93 C248.8,51.421898 248.388102,51.01 247.88,51.01 L236.88,51.01 C236.371898,51.01 235.96,51.421898 235.96,51.93 L235.96,82.59 C235.96,90.42 239.84,96.89 250.02,96.89 L250.02,96.89 L249.93,96.91 Z" id="Shape" fill="#002596"></path>
            <path d="M307.84,86.19 C302.66,87.47 299.11,85.71 299.11,80.48 L299.11,60.23 L308.94,60.23 C309.448102,60.23 309.86,59.818102 309.86,59.31 L309.86,51.85 C309.86,51.6060008 309.763072,51.3719952 309.590538,51.1994618 C309.418005,51.0269283 309.183999,50.93 308.94,50.93 L299.11,50.93 L299.11,42.77 C299.11,40.35 298.11,38.77 295.03,37.47 C292.804789,36.6021303 290.409206,36.259904 288.03,36.47 C286.57,36.65 286.31,37.31 286.31,38.54 L286.31,50.94 L281.52,50.94 C281.276001,50.94 281.041995,51.0369283 280.869462,51.2094618 C280.696928,51.3819952 280.6,51.6160008 280.6,51.86 L280.6,59.32 C280.6,59.828102 281.011898,60.24 281.52,60.24 L286.23,60.24 L286.23,82.09 C286.23,94 292.6,96.43 301.44,96.43 C304.407921,96.4228794 307.367095,96.1078597 310.27,95.49 C310.932286,95.39672 311.401262,94.7950157 311.33,94.13 L311.33,88.31 C311.33,86.17 310.57,85.5 307.8,86.19" id="Shape" fill="#002596"></path>
            <path d="M347.77,52.15 C347.260432,51.5443944 346.612016,51.0709478 345.88,50.77 C345.061863,50.4250957 344.20065,50.1929718 343.32,50.08 C342.454861,49.963101 341.582996,49.9029724 340.71,49.9 C339.409625,49.8891884 338.115059,50.074608 336.87,50.45 C335.744417,50.7901996 334.660877,51.2564907 333.64,51.84 C332.733741,52.3561962 331.891295,52.9771226 331.13,53.69 C330.643468,54.1477551 330.185916,54.6353655 329.76,55.15 C329.28,53.72 328.14,52.63 325.97,51.72 C323.744882,50.8517791 321.349215,50.509541 318.97,50.72 C317.51,50.9 317.25,51.56 317.25,52.79 L317.25,94.86 C317.25,95.1039992 317.346928,95.3380048 317.519462,95.5105382 C317.691995,95.6830717 317.926001,95.78 318.17,95.78 L329.17,95.78 C329.674192,95.7745193 330.08003,95.3642222 330.08,94.86 L330.08,66.41 L330.08,66.41 C330.096555,64.8045638 330.900135,63.309532 332.23,62.41 C333.767667,61.269534 335.646687,60.6843233 337.56,60.75 C338.957391,60.7269598 340.347125,60.9608419 341.66,61.44 C342.457122,61.7854728 343.229018,62.1864577 343.97,62.64 C344.183047,62.7827442 344.433554,62.8592879 344.69,62.86 C345.164035,62.862455 345.602986,62.6105353 345.84,62.2 C346.077014,61.7894647 346.84,60.2 347.39,58.91 C348.046381,57.4557 348.429431,55.8929913 348.52,54.3 C348.529554,53.5176072 348.264119,52.7566927 347.77,52.15 L347.77,52.15 Z" id="Shape" fill="#002596"></path>
            <path d="M365.19,40.79 C365.19,44.07 361.55,45.61 357.73,45.61 C353.91,45.61 350.27,44.06 350.27,40.79 C350.27,37.52 353.91,35.98 357.73,35.98 C361.55,35.98 365.19,37.52 365.19,40.79" id="Shape" fill="#002596"></path>
            <path d="M355.38,51.83 C352.38,53.1 351.3,54.71 351.3,57.13 L351.3,94.83 C351.3,95.338102 351.711898,95.75 352.22,95.75 L363.22,95.75 C363.728102,95.75 364.14,95.338102 364.14,94.83 L364.14,52.89 C364.14,51.67 363.87,51 362.42,50.82 C360.040794,50.609904 357.645211,50.9521303 355.42,51.82" id="Shape" fill="#002596"></path>
            <path d="M394.16,86.19 C388.98,87.47 385.44,85.71 385.44,80.48 L385.44,60.23 L395.26,60.23 C395.768102,60.23 396.18,59.818102 396.18,59.31 L396.18,51.85 C396.18,51.341898 395.768102,50.93 395.26,50.93 L385.44,50.93 L385.44,42.77 C385.44,40.35 384.39,38.77 381.36,37.47 C379.135067,36.6010752 376.739235,36.2588135 374.36,36.47 C372.9,36.65 372.64,37.31 372.64,38.54 L372.64,50.94 L367.94,50.94 C367.431898,50.94 367.02,51.351898 367.02,51.86 L367.02,59.32 C367.02,59.828102 367.431898,60.24 367.94,60.24 L372.64,60.24 L372.64,82.09 C372.64,94 379.01,96.43 387.86,96.43 C390.827917,96.4228075 393.787084,96.1077886 396.69,95.49 C397.352286,95.39672 397.821262,94.7950157 397.75,94.13 L397.75,88.31 C397.75,86.17 396.99,85.5 394.22,86.19" id="Shape" fill="#002596"></path>
            <path d="M415.69,40.79 C415.69,44.07 412.05,45.61 408.23,45.61 C404.41,45.61 400.77,44.06 400.77,40.79 C400.77,37.52 404.42,35.98 408.23,35.98 C412.04,35.98 415.69,37.52 415.69,40.79" id="Shape" fill="#002596"></path>
            <path d="M405.88,51.83 C402.88,53.1 401.8,54.71 401.8,57.13 L401.8,94.83 C401.8,95.338102 402.211898,95.75 402.72,95.75 L413.72,95.75 C414.224192,95.7445193 414.63003,95.3342222 414.63,94.83 L414.63,52.89 C414.63,51.67 414.37,51 412.91,50.82 C410.530785,50.609541 408.135118,50.9517791 405.91,51.82" id="Shape" fill="#002596"></path>
            <path d="M465.69,72.78 C465.701942,75.7773984 465.284366,78.7610466 464.45,81.64 C463.654132,84.4041002 462.257529,86.9582787 460.36,89.12 C458.337192,91.3689041 455.835825,93.1355804 453.04,94.29 C446.038837,96.8431455 438.361163,96.8431455 431.36,94.29 C428.59952,93.1655813 426.130681,91.4285036 424.14,89.21 C422.264826,87.0706275 420.870148,84.5540685 420.05,81.83 C419.178597,78.9716695 418.743697,75.9981651 418.76,73.01 C418.741608,69.9797584 419.245653,66.9690189 420.25,64.11 C421.208535,61.3739179 422.716035,58.8625516 424.68,56.73 C426.760875,54.5396303 429.297241,52.8327896 432.11,51.73 C435.445661,50.4353806 439.002664,49.8068748 442.58,49.88 C446.236814,49.7878402 449.876001,50.416458 453.29,51.73 C456.037626,52.8193011 458.495302,54.5307741 460.47,56.73 C462.311183,58.8446881 463.675434,61.3310362 464.47,64.02 C465.300973,66.8650331 465.711977,69.8161771 465.69,72.78 L465.69,72.78 Z M452.03,72.87 C452.029109,71.2152811 451.895346,69.5633055 451.63,67.93 C451.402881,66.4187288 450.894069,64.9635265 450.13,63.64 C449.393218,62.4074989 448.362501,61.3767817 447.13,60.64 C444.115212,59.0711896 440.524788,59.0711896 437.51,60.64 C436.246288,61.4062567 435.186257,62.4662884 434.42,63.73 C433.627021,65.0542943 433.06881,66.5056407 432.77,68.02 C432.437381,69.628741 432.269846,71.2672332 432.27,72.91 C432.26868,74.5868371 432.419296,76.2603451 432.72,77.91 C432.983738,79.4777934 433.504043,80.9914068 434.26,82.39 C434.967525,83.6920681 436.001319,84.7878903 437.26,85.57 C438.729126,86.4153501 440.406125,86.8311351 442.1,86.77 C443.823061,86.8373422 445.530642,86.4217038 447.03,85.57 C448.288681,84.7878903 449.322475,83.6920681 450.03,82.39 C450.785472,80.9947162 451.293006,79.4788812 451.53,77.91 C451.831396,76.2459019 452.001919,74.5607431 452.04,72.87 L452.03,72.87 Z" id="Shape" fill="#002596"></path>
            <path d="M496.39,49.85 C491.51,49.85 486.71,52.57 482.39,56.18 C481.819455,54.2037326 480.32971,52.6246021 478.39,51.94 C476.199341,51.0299737 473.825796,50.6463705 471.46,50.82 C470,51 469.74,51.67 469.74,52.89 L469.74,94.84 C469.73997,95.3442222 470.145808,95.7545193 470.65,95.76 L481.65,95.76 C482.154192,95.7545193 482.56003,95.3442222 482.56,94.84 L482.56,63.4 C484.94,61.81 487.56,60.29 490.46,60.29 C496.32,60.29 497.51,63.61 497.51,68.75 L497.51,94.83 C497.51,95.338102 497.921898,95.75 498.43,95.75 L509.43,95.75 C509.938102,95.75 510.35,95.338102 510.35,94.83 L510.35,64.15 C510.35,56.32 506.47,49.85 496.29,49.85 L496.29,49.85 L496.39,49.85 Z" id="Shape" fill="#002596"></path>
            <path d="M217.14,49.85 C212.26,49.85 207.46,52.57 203.14,56.18 C202.570943,54.2028838 201.080644,52.6231663 199.14,51.94 C196.949341,51.0299737 194.575796,50.6463705 192.21,50.82 C190.75,51 190.49,51.67 190.49,52.89 L190.49,94.84 C190.48997,95.3442222 190.895808,95.7545193 191.4,95.76 L202.4,95.76 C202.904192,95.7545193 203.31003,95.3442222 203.31,94.84 L203.31,63.4 C205.68,61.81 208.31,60.29 211.21,60.29 C217.07,60.29 218.26,63.61 218.26,68.75 L218.26,94.83 C218.26,95.338102 218.671898,95.75 219.18,95.75 L230.18,95.75 C230.688102,95.75 231.1,95.338102 231.1,94.83 L231.1,64.15 C231.1,56.32 227.22,49.85 217.04,49.85 L217.04,49.85 L217.14,49.85 Z" id="Shape" fill="#002596"></path>
            <path d="M217.14,114.59 C212.26,114.59 207.46,117.31 203.14,120.92 C202.570943,118.942884 201.080644,117.363166 199.14,116.68 C196.949136,115.770693 194.575763,115.387118 192.21,115.56 C190.75,115.74 190.49,116.41 190.49,117.62 L190.49,159.59 C190.48997,160.094222 190.895808,160.504519 191.4,160.51 L202.4,160.51 C202.904192,160.504519 203.31003,160.094222 203.31,159.59 L203.31,128.15 C205.68,126.56 208.31,125.04 211.21,125.04 C217.07,125.04 218.26,128.36 218.26,133.5 L218.26,159.59 C218.26,159.833999 218.356928,160.068005 218.529462,160.240538 C218.701995,160.413072 218.936001,160.51 219.18,160.51 L230.18,160.51 C230.423999,160.51 230.658005,160.413072 230.830538,160.240538 C231.003072,160.068005 231.1,159.833999 231.1,159.59 L231.1,128.9 C231.1,121.07 227.22,114.6 217.04,114.6 L217.04,114.6 L217.14,114.59 Z" id="Shape" fill="#002596"></path>
            <path d="M416.52,114.67 C408.45,114.67 400.85,118.46 397.88,122.59 C395.66,125.67 398.23,128.18 400.39,127.05 C404.341552,124.762636 408.824187,123.552324 413.39,123.54 C419.19,123.54 422.83,125.94 422.93,131.27 C418.906269,131.433201 414.897623,131.86079 410.93,132.55 C397.84,134.95 393.85,139.97 393.85,147.43 C393.85,155.07 399.56,161.21 409.01,161.21 C414.75,161.21 419.1,158.85 422.92,156.21 L422.92,159.59 C422.92,159.833999 423.016928,160.068005 423.189462,160.240538 C423.361995,160.413072 423.596001,160.51 423.84,160.51 L434.84,160.51 C435.344192,160.504519 435.75003,160.094222 435.75,159.59 L435.75,130.67 C435.83,120.85 430.52,114.67 416.52,114.67 L416.52,114.67 Z M422.97,148.96 C419.54,151.04 416.6,152.38 413.19,152.38 C409.42,152.38 406.99,150.02 406.99,146.63 C406.99,143.63 409.06,140.86 413.36,139.71 C416.524349,138.975351 419.73514,138.457481 422.97,138.16 L422.97,148.96 L422.97,148.96 Z" id="Shape" fill="#002596"></path>
            <path d="M258.52,114.67 C250.45,114.67 242.85,118.46 239.88,122.59 C237.66,125.67 240.23,128.18 242.39,127.05 C246.341733,124.763071 250.82425,123.552792 255.39,123.54 C261.2,123.54 264.82,125.94 264.93,131.27 C260.906255,131.432999 256.897595,131.86059 252.93,132.55 C239.84,134.95 235.85,139.97 235.85,147.43 C235.85,155.07 241.56,161.21 251.01,161.21 C256.75,161.21 261.1,158.85 264.92,156.21 L264.92,159.59 C264.92,159.833999 265.016928,160.068005 265.189462,160.240538 C265.361995,160.413072 265.596001,160.51 265.84,160.51 L276.84,160.51 C277.083999,160.51 277.318005,160.413072 277.490538,160.240538 C277.663072,160.068005 277.76,159.833999 277.76,159.59 L277.76,130.67 C277.8,120.85 272.52,114.67 258.52,114.67 L258.52,114.67 Z M264.97,148.96 C261.54,151.04 258.6,152.38 255.2,152.38 C251.43,152.38 248.99,150.02 248.99,146.63 C248.99,143.63 251.07,140.86 255.36,139.71 C258.524295,138.975076 261.735105,138.457203 264.97,138.16 L264.97,148.96 L264.97,148.96 Z" id="Shape" fill="#002596"></path>
            <path d="M353.44,166.14 C354.401397,166.731092 355.403971,167.252431 356.44,167.7 C357.736337,168.237238 359.07404,168.668647 360.44,168.99 C362.046868,169.358386 363.691525,169.536277 365.34,169.52 C367.476275,169.589893 369.607494,169.271396 371.63,168.58 C373.121071,168.05127 374.441126,167.128614 375.45,165.91 C376.40916,164.664092 377.066371,163.212752 377.37,161.67 C377.764893,159.792869 377.952683,157.878084 377.93,155.96 L377.93,154.35 C376.665563,155.580631 375.160881,156.537228 373.51,157.16 C371.027987,158.102096 368.383248,158.540619 365.73,158.45 C363.333815,158.464405 360.948459,158.127491 358.65,157.45 C356.372846,156.768635 354.287074,155.563066 352.56,153.93 C350.661089,152.094527 349.204371,149.851318 348.3,147.37 C347.152885,144.123187 346.61718,140.691961 346.72,137.25 C346.626932,133.703292 347.17924,130.169197 348.35,126.82 C349.291278,124.204264 350.777402,121.818286 352.71,119.82 C354.455854,118.044813 356.587844,116.696492 358.94,115.88 C361.31769,115.078567 363.810885,114.673169 366.32,114.68 C368.811883,114.593503 371.292708,115.050766 373.59,116.02 C375.303231,116.787744 376.813373,117.945178 378,119.4 C378.525659,118.030878 379.620539,116.957896 381,116.46 C382.61435,115.843884 384.332428,115.545088 386.06,115.58 L387.72,115.58 C388.29,115.58 388.84,115.68 389.32,115.72 L389.64,115.72 C390.299981,115.771666 390.811676,116.318052 390.82,116.98 L390.82,154.74 C390.846378,157.971975 390.463331,161.194279 389.68,164.33 C388.242983,170.123217 383.91164,174.760969 378.23,176.59 C374.463225,177.823394 370.512081,178.398474 366.55,178.29 C363.281451,178.349242 360.015177,178.08124 356.8,177.49 C354.693224,177.084967 352.646712,176.412878 350.71,175.49 C349.6795,175.081516 348.799678,174.365788 348.19,173.44 C347.846909,172.809865 347.658402,172.107247 347.64,171.39 C347.761499,170.180842 348.207179,169.026911 348.93,168.05 C349.72,166.81 350.98,165.24 350.98,165.24 C351.133955,165.050036 351.365484,164.939784 351.61,164.94 C351.813008,164.939505 352.008982,165.014331 352.16,165.15 C352.566699,165.50504 352.994117,165.835622 353.44,166.14 L353.44,166.14 Z M360.62,136.53 C360.62,140.696667 361.313333,143.983333 362.7,146.39 C364.086667,148.796667 366.693333,149.996667 370.52,149.99 C372.408635,150.091122 374.289178,149.676296 375.96,148.79 C377.161279,148.184153 377.930409,146.965082 377.96,145.62 L377.96,126.53 C377.113288,125.865188 376.194115,125.298253 375.22,124.84 C373.820467,124.154695 372.278059,123.811938 370.72,123.84 C363.986667,123.853333 360.62,128.08 360.62,136.52 L360.62,136.53 Z" id="Shape" fill="#002596"></path>
            <path d="M343.59,105.49 C343.59,108.77 339.95,110.32 336.13,110.32 C332.31,110.32 328.67,108.77 328.67,105.49 C328.67,102.21 332.32,100.67 336.13,100.67 C339.94,100.67 343.59,102.21 343.59,105.49" id="Shape" fill="#002596"></path>
            <path d="M333.78,116.54 C330.78,117.81 329.7,119.43 329.7,121.84 L329.7,159.59 C329.7,159.833999 329.796928,160.068005 329.969462,160.240538 C330.141995,160.413072 330.376001,160.51 330.62,160.51 L341.62,160.51 C342.120275,160.499122 342.520118,160.090393 342.52,159.59 L342.52,117.59 C342.52,116.37 342.26,115.7 340.8,115.52 C338.412635,115.313499 336.009878,115.662617 333.78,116.54 L333.78,116.54 Z" id="Shape" fill="#002596"></path>
            <path d="M517.03,137.59 C517.044005,140.590821 516.626397,143.578062 515.79,146.46 C514.993214,149.223722 513.596716,151.77771 511.7,153.94 C509.672284,156.187829 507.167942,157.954193 504.37,159.11 C497.365981,161.666437 489.684019,161.666437 482.68,159.11 C479.915585,157.98752 477.443078,156.250267 475.45,154.03 C473.576129,151.885916 472.181705,149.366406 471.36,146.64 C470.48536,143.782155 470.04709,140.808663 470.06,137.82 C470.042867,134.785756 470.550337,131.771383 471.56,128.91 C472.521819,126.170251 474.032645,123.65561 476,121.52 C478.080875,119.32963 480.617241,117.62279 483.43,116.52 C486.765871,115.22613 490.322725,114.597651 493.9,114.67 C497.560087,114.577569 501.202598,115.206174 504.62,116.52 C507.367626,117.609301 509.825302,119.320774 511.8,121.52 C513.64399,123.636527 515.008504,126.126764 515.8,128.82 C516.636872,131.66741 517.051288,134.622233 517.03,137.59 L517.03,137.59 Z M503.37,137.68 C503.370898,136.025209 503.237124,134.373089 502.97,132.74 C502.74831,131.228834 502.242755,129.773244 501.48,128.45 C500.743549,127.217241 499.712759,126.186451 498.48,125.45 C495.463973,123.886264 491.876027,123.886264 488.86,125.45 C487.597751,126.218119 486.538119,127.277751 485.77,128.54 C484.978101,129.864821 484.419965,131.315974 484.12,132.83 C483.785237,134.441788 483.617683,136.083817 483.62,137.73 C483.620629,139.40675 483.771229,141.080083 484.07,142.73 C484.337757,144.298161 484.861401,145.811661 485.62,147.21 C486.324991,148.516548 487.35915,149.616203 488.62,150.4 C490.107817,151.252356 491.806967,151.665007 493.52,151.59 C495.24621,151.657087 496.956935,151.241526 498.46,150.39 C499.719378,149.604407 500.753126,148.505189 501.46,147.2 C502.214818,145.805285 502.719127,144.288973 502.95,142.72 C503.22365,141.050462 503.364093,139.361806 503.37,137.67 L503.37,137.68 Z" id="Shape" fill="#002596"></path>
            <path d="M551.34,116.86 C550.829311,116.248854 550.177077,115.771694 549.44,115.47 C548.621623,115.125795 547.760506,114.893697 546.88,114.78 C546.011501,114.663177 545.136315,114.603049 544.26,114.6 C542.959584,114.588576 541.664927,114.774008 540.42,115.15 C539.294358,115.490039 538.210801,115.956337 537.19,116.54 C536.28313,117.055256 535.440578,117.676261 534.68,118.39 C534.191495,118.845781 533.73382,119.333522 533.31,119.85 C532.83,118.42 531.69,117.33 529.51,116.41 C527.284882,115.541779 524.889215,115.199541 522.51,115.41 C521.05,115.59 520.78,116.25 520.78,117.48 L520.78,159.59 C520.78,159.833999 520.876928,160.068005 521.049462,160.240538 C521.221995,160.413072 521.456001,160.51 521.7,160.51 L532.7,160.51 C533.204192,160.504519 533.61003,160.094222 533.61,159.59 L533.61,131.13 L533.61,131.13 C533.628268,129.525005 534.431447,128.030717 535.76,127.13 C537.297667,125.989534 539.176687,125.404323 541.09,125.47 C542.487391,125.44696 543.877125,125.680842 545.19,126.16 C545.991164,126.503732 546.766507,126.904771 547.51,127.36 C547.726139,127.504089 547.980236,127.580666 548.24,127.58 C548.714035,127.582455 549.152986,127.330535 549.39,126.92 C549.627014,126.509465 550.39,124.92 550.94,123.63 C551.599101,122.173121 551.982248,120.606624 552.07,119.01 C552.086054,118.229944 551.827693,117.469017 551.34,116.86 L551.34,116.86 Z" id="Shape" fill="#002596"></path>
            <path d="M465.85,150.8 C460.66,152.08 457.12,150.32 457.12,145.08 L457.12,124.81 L466.95,124.81 C467.458102,124.81 467.87,124.398102 467.87,123.89 L467.87,116.42 C467.87,115.911898 467.458102,115.5 466.95,115.5 L457.12,115.5 L457.12,107.34 C457.12,104.92 456.07,103.34 453.04,102.03 C450.799445,101.154084 448.38576,100.811718 445.99,101.03 C444.53,101.21 444.27,101.88 444.27,103.1 L444.27,115.51 L439.52,115.51 C439.011898,115.51 438.6,115.921898 438.6,116.43 L438.6,123.9 C438.6,124.408102 439.011898,124.82 439.52,124.82 L444.23,124.82 L444.23,146.69 C444.23,158.61 450.6,161.05 459.46,161.05 C462.431736,161.042536 465.394535,160.724136 468.3,160.1 C468.962286,160.00672 469.431262,159.405016 469.36,158.74 L469.36,152.92 C469.36,150.78 468.6,150.11 465.82,150.8" id="Shape" fill="#002596"></path>
            <path d="M309.77,124.66 C310.183333,123.366667 310.61,122.18 311.05,121.1 C311.453494,120.091827 312.043849,119.168973 312.79,118.38 C313.544861,117.615023 314.45076,117.015632 315.45,116.62 C316.747115,116.15144 318.121609,115.934236 319.5,115.98 C321.520282,116.025573 323.530663,116.276871 325.5,116.73 C326.085422,116.879931 326.496176,117.405696 326.5,118.01 C326.500546,118.188163 326.466588,118.364747 326.4,118.53 L310.21,159.89 C310.110754,160.255712 309.778939,160.509694 309.4,160.51 L295.92,160.51 C295.538504,160.510767 295.203228,160.257266 295.1,159.89 L278.92,118.52 C278.849985,118.355432 278.812625,118.178824 278.81,118 C278.81728,117.396904 279.226586,116.872992 279.81,116.72 C281.779373,116.267076 283.789734,116.015781 285.81,115.97 C287.188422,115.923746 288.563007,116.140964 289.86,116.61 C290.860062,117.004055 291.766269,117.60365 292.52,118.37 C293.272634,119.155841 293.866798,120.079341 294.27,121.09 C294.716667,122.163333 295.143333,123.35 295.55,124.65 L302.69,147.38 L309.77,124.66 Z" id="Shape" fill="#002596"></path>
            <path d="M220.75,10.03 C217.3,10.03 214.06,11.65 212.75,13.41 C211.8,14.73 212.9,15.8 213.82,15.31 C215.509647,14.330888 217.427167,13.8135714 219.38,13.81 C221.86,13.81 223.38,14.81 223.45,17.11 C221.736686,17.1779897 220.029682,17.3583776 218.34,17.65 C212.75,18.65 211.05,20.82 211.05,24 C211.05,27.18 213.52,29.89 217.52,29.89 C219.670798,29.8265026 221.746425,29.0844571 223.45,27.77 L223.45,29.19 C223.45,29.4053911 223.624609,29.58 223.84,29.58 L228.55,29.58 C228.765391,29.58 228.94,29.4053911 228.94,29.19 L228.94,16.85 C228.99,12.66 226.72,10.03 220.75,10.03 L220.75,10.03 Z M223.52,24.66 C222.296378,25.531878 220.850243,26.0381986 219.35,26.12 C218.664097,26.1855853 217.98276,25.9556787 217.476823,25.4879261 C216.970887,25.0201735 216.68833,24.3589325 216.7,23.67 C216.7,22.39 217.59,21.21 219.42,20.67 C220.770019,20.3567709 222.139883,20.1362562 223.52,20.01 L223.52,24.62 L223.52,24.66 Z" id="Shape" fill="#002596"></path>
            <path d="M319.66,20.83 C319.723358,22.1585716 320.226377,23.4284311 321.09,24.44 C322.147981,25.4828303 323.610092,26.0091904 325.09,25.88 C325.71697,25.8886568 326.34235,25.8146872 326.95,25.66 C327.443011,25.5310263 327.92202,25.3534913 328.38,25.13 C328.766488,24.9332247 329.134618,24.7023064 329.48,24.44 C329.72,24.26 330.05,23.97 330.05,23.97 C330.11366,23.9231474 330.190971,23.8985486 330.27,23.9 C330.38297,23.8999474 330.489775,23.9515083 330.56,24.04 C330.630225,24.1284917 331.12,24.83 331.38,25.28 C331.684656,25.7341769 331.873486,26.2560347 331.93,26.8 C331.867937,27.4697167 331.473406,28.0633911 330.88,28.38 C330.110929,28.8825408 329.262243,29.2510936 328.37,29.47 C327.12272,29.7912272 325.837782,29.9425943 324.55,29.92 C323.235789,29.9214199 321.926247,29.7636032 320.65,29.45 C319.403428,29.1503357 318.236633,28.5839969 317.23,27.79 C316.183902,26.9396701 315.354515,25.8532418 314.81,24.62 C314.142097,23.0401895 313.824802,21.3343072 313.88,19.62 C313.840232,18.1507909 314.120013,16.6904709 314.7,15.34 C315.20106,14.1914385 315.948742,13.1672167 316.89,12.34 C317.795238,11.5589559 318.849982,10.9703409 319.99,10.61 C321.134475,10.244777 322.328664,10.0592392 323.53,10.06 C324.89573,10.0247825 326.254998,10.2592563 327.53,10.75 C328.553708,11.1530861 329.473225,11.7820496 330.22,12.59 C330.905467,13.3584828 331.417102,14.2657828 331.72,15.25 C332.030728,16.2709243 332.185803,17.332852 332.18,18.4 L332.18,18.95 L332.18,19.62 L332.18,20.27 C332.18,20.5848023 331.924802,20.84 331.61,20.84 L319.66,20.84 L319.66,20.83 Z M327,17.83 C327.047273,16.752258 326.775979,15.6844729 326.22,14.76 C325.553457,13.9032176 324.488412,13.4559744 323.41,13.58 C322.360477,13.5244512 321.3398,13.9341854 320.62,14.7 C319.906684,15.5814104 319.549856,16.6982831 319.62,17.83 L327,17.83 L327,17.83 Z" id="Shape" fill="#002596"></path>
            <path d="M298.47,6.11 C298.47,7.51 296.91,8.17 295.29,8.17 C293.67,8.17 292.1,7.51 292.1,6.11 C292.1,4.71 293.66,4.05 295.29,4.05 C296.92,4.05 298.47,4.71 298.47,6.11" id="Shape" fill="#002596"></path>
            <path d="M294.28,10.83 C293.236432,11.0781537 292.504953,12.0174382 292.52,13.09 L292.52,29.19 C292.52,29.4053911 292.694609,29.58 292.91,29.58 L297.62,29.58 C297.835391,29.58 298.01,29.4053911 298.01,29.19 L298.01,11.28 C298.059974,11.0615296 298.005366,10.8322469 297.862279,10.6597575 C297.719191,10.4872681 297.503942,10.3912445 297.28,10.4 C296.260213,10.3097889 295.233389,10.4569671 294.28,10.83 L294.28,10.83 Z" id="Shape" fill="#002596"></path>
            <path d="M253.64,32.97 C253.584194,32.956029 253.525806,32.956029 253.47,32.97 C253.349528,32.9697768 253.236929,33.0298294 253.17,33.13 C252.900379,33.5165727 252.662916,33.924607 252.46,34.35 C252.261646,34.7274603 252.14897,35.1440179 252.13,35.57 C252.119013,36.3657261 252.637539,37.0720652 253.4,37.3 C254.437836,37.6741204 255.537418,37.8472027 256.64,37.81 C258.621108,37.9192932 260.582807,37.3708612 262.22,36.25 C263.590196,35.1912611 264.60527,33.7401583 265.13,32.09 C265.49,30.98 266.24,28.79 266.24,28.79 L272.52,11.11 C272.533559,11.0372934 272.533559,10.9627066 272.52,10.89 C272.53007,10.6455211 272.380247,10.4228112 272.15,10.34 C271.387784,10.1463305 270.606206,10.0389893 269.82,10.02 C269.28286,10.0027331 268.748055,10.0981123 268.25,10.3 C267.867703,10.477012 267.526975,10.7325584 267.25,11.05 C266.957947,11.3926801 266.730893,11.7857883 266.58,12.21 C266.406667,12.67 266.24,13.1766667 266.08,13.73 L263.33,23.43 L260.57,13.73 C260.41,13.18 260.25,12.67 260.08,12.21 C259.925273,11.7854279 259.694884,11.3924108 259.4,11.05 C259.123025,10.7325584 258.782297,10.477012 258.4,10.3 C257.902028,10.0978261 257.367161,10.0024359 256.83,10.02 C256.043759,10.0385651 255.262134,10.1459128 254.5,10.34 C254.265796,10.4193296 254.111345,10.6428769 254.12,10.89 C254.106441,10.9627066 254.106441,11.0372934 254.12,11.11 L260.49,29.11 L259.99,30.67 C259.722387,31.5656924 259.20563,32.3668383 258.5,32.98 C257.8476,33.4343893 257.064372,33.6626845 256.27,33.63 C255.707808,33.6330343 255.148311,33.5521432 254.61,33.39 C254.27,33.25 253.64,32.97 253.64,32.97 L253.64,32.97 Z" id="Shape" fill="#002596"></path>
            <path d="M248.21,3.18 C247.170683,3.43690589 246.448069,4.37962658 246.47,5.45 L246.47,29.19 C246.47,29.4053911 246.644609,29.58 246.86,29.58 L251.52,29.58 C251.735391,29.58 251.91,29.4053911 251.91,29.19 L251.91,3.59 C251.960536,3.36974703 251.904734,3.13854571 251.759296,2.9655921 C251.613858,2.79263849 251.395657,2.69799967 251.17,2.71 C250.150213,2.61978892 249.123389,2.76696708 248.17,3.14" id="Shape" fill="#002596"></path>
            <path d="M286.08,3.18 C285.036703,3.43294241 284.309151,4.37668068 284.33,5.45 L284.33,29.19 C284.335266,29.4031718 284.506828,29.5747341 284.72,29.58 L289.43,29.58 C289.645391,29.58 289.82,29.4053911 289.82,29.19 L289.82,3.59 C289.870536,3.36974703 289.814734,3.13854571 289.669296,2.9655921 C289.523858,2.79263849 289.305657,2.69799967 289.08,2.71 C288.060203,2.61942353 287.033295,2.76661363 286.08,3.14" id="Shape" fill="#002596"></path>
            <path d="M244.42,10.96 C244.202118,10.7002603 243.924048,10.4977158 243.61,10.37 C243.258798,10.2201076 242.888673,10.1191643 242.51,10.07 C242.138891,10.0181731 241.764708,9.99144569 241.39,9.99 C240.834402,9.98745981 240.281572,10.0683618 239.75,10.23 C239.269326,10.3742826 238.806414,10.5721944 238.37,10.82 C237.984123,11.041283 237.62508,11.3063709 237.3,11.61 C237.090321,11.8038815 236.893252,12.0109705 236.71,12.23 C236.42069,11.519806 235.824877,10.9791606 235.09,10.76 C234.136798,10.3862591 233.109807,10.239057 232.09,10.33 C231.864343,10.3179997 231.646142,10.4126385 231.500704,10.5855921 C231.355266,10.7585457 231.299464,10.989747 231.35,11.21 L231.35,29.21 C231.35,29.4253911 231.524609,29.6 231.74,29.6 L236.44,29.6 C236.655391,29.6 236.83,29.4253911 236.83,29.21 L236.83,17.05 L236.83,17.05 C236.84369,16.3706018 237.186828,15.7402722 237.75,15.36 C238.407451,14.8715402 239.211463,14.6211682 240.03,14.65 C240.626806,14.6416915 241.220037,14.7433883 241.78,14.95 C242.125358,15.095314 242.459588,15.2657716 242.78,15.46 C242.910436,15.544059 243.069505,15.5713055 243.220482,15.5354487 C243.371458,15.4995918 243.501289,15.4037314 243.58,15.27 C243.658711,15.1362686 244.02,14.41 244.24,13.87 C244.523886,13.2392927 244.686712,12.560851 244.72,11.87 C244.728451,11.5410704 244.622411,11.2194145 244.42,10.96 L244.42,10.96 Z" id="Shape" fill="#002596"></path>
            <path d="M315.82,4.52 C315.057115,4.08649439 314.224753,3.78873902 313.36,3.64 C312.48291,3.44825931 311.587803,3.35103786 310.69,3.35 C308.528996,3.19440103 306.388163,3.85449115 304.69,5.2 C303.247583,6.61211068 302.498075,8.58642601 302.64,10.6 L302.64,12.17 L300.64,12.17 C300.424609,12.17 300.25,12.3446089 300.25,12.56 L300.25,15.75 C300.25,15.9653911 300.424609,16.14 300.64,16.14 L302.64,16.14 L302.64,29.2 C302.64,29.4153911 302.814609,29.59 303.03,29.59 L307.74,29.59 C307.955391,29.59 308.13,29.4153911 308.13,29.2 L308.13,16.14 L312.33,16.14 C312.545391,16.14 312.72,15.9653911 312.72,15.75 L312.72,12.59 C312.72,12.3746089 312.545391,12.2 312.33,12.2 L308.13,12.2 L308.13,10.48 C308.030253,9.55372698 308.366495,8.63367912 309.04,7.99 C309.750926,7.46954572 310.620259,7.21157285 311.5,7.26 C312.203252,7.25441439 312.900433,7.39044968 313.55,7.66 C314.057362,7.87412877 314.540153,8.142346 314.99,8.46 C315.055195,8.52016125 315.141322,8.55245888 315.23,8.55 C315.332759,8.5492298 315.430569,8.50575864 315.5,8.43 C315.796619,8.07882326 316.073704,7.71160229 316.33,7.33 C316.602492,6.96482451 316.771739,6.533074 316.82,6.08 C316.811904,5.41170787 316.423875,4.80638289 315.82,4.52 L315.82,4.52 Z" id="Shape" fill="#002596"></path>
            <path d="M209.23,26.71 C209.034003,25.9118636 208.311724,25.355626 207.49,25.37 L196.59,25.37 L196.59,18.13 L205.44,18.13 C205.677482,18.13 205.87,17.9374824 205.87,17.7 L205.87,14.34 C205.87,14.2259569 205.824697,14.1165847 205.744056,14.0359441 C205.663415,13.9553034 205.554043,13.91 205.44,13.91 L196.59,13.91 L196.59,7.4 L206.84,7.4 C207.661724,7.41437398 208.384003,6.85813637 208.58,6.06 C208.866337,5.32566486 208.97927,4.53513619 208.91,3.75 C208.918112,3.57680661 208.844081,3.40992807 208.710241,3.29970708 C208.576401,3.1894861 208.398424,3.14882866 208.23,3.19 L190.98,3.19 C190.742518,3.19 190.55,3.38251756 190.55,3.62 L190.55,29.17 C190.55,29.4074824 190.742518,29.6 190.98,29.6 L208.89,29.6 C209.058424,29.6411713 209.236401,29.6005139 209.370241,29.4902929 C209.504081,29.3800719 209.578112,29.2131934 209.57,29.04 C209.64034,28.2474343 209.523891,27.4494161 209.23,26.71 L209.23,26.71 Z" id="Shape" fill="#002596"></path>
            <path d="M556.52,103.15 L552.45,103.15 C552.402824,102.986886 552.372664,102.819326 552.36,102.65 L552.36,102.29 C552.355522,101.965971 552.442145,101.647199 552.61,101.37 C552.910729,101.039244 553.359361,100.884674 553.8,100.96 L563.09,100.96 C563.193575,101.224005 563.241246,101.506628 563.23,101.79 C563.22931,102.128335 563.120713,102.45763 562.92,102.73 C562.585617,103.068129 562.110706,103.22767 561.64,103.16 L558.94,103.16 L558.94,114.32 L556.52,114.32 L556.52,103.15 L556.52,103.15 Z M565.38,101.21 C565.552721,101.089095 565.751359,101.010325 565.96,100.98 C566.161557,100.946143 566.36562,100.929417 566.57,100.93 C566.880885,100.929799 567.185655,101.016381 567.45,101.18 C567.722502,101.34629 567.93051,101.60013 568.04,101.9 L571.39,110 L574.74,101.94 C574.86912,101.600074 575.118087,101.319097 575.44,101.15 C575.712613,101.010237 576.013689,100.934968 576.32,100.93 C576.501074,100.931686 576.681695,100.94841 576.86,100.98 C577.068641,101.010325 577.267279,101.089095 577.44,101.21 L578.09,114.31 L575.82,114.31 L575.42,105.52 L572.42,112.25 L570.22,112.25 L567.34,105.7 L566.87,114.3 L564.52,114.3 L565.38,101.21 Z" id="Shape" fill="#002596"></path>
        </g>
    </g>
</svg>