<svg xmlns="http://www.w3.org/2000/svg" width="276" height="276" viewBox="0 0 276 276">
  <defs>
    <linearGradient id="a" x1="0%" x2="102%" y1="0%" y2="101%">
      <stop stop-color="#FFCE55" offset="0%"/>
      <stop stop-color="#4DF1FF" offset="100%"/>
    </linearGradient>
  </defs>
  <path fill="url(#a)" fill-rule="evenodd" d="M350,360 C273.784705,360 212,298.215295 212,222 C212,145.784705 273.784705,84 350,84 C426.215295,84 488,145.784705 488,222 C488,298.215295 426.215295,360 350,360 Z M350,347.964164 C419.568087,347.964164 475.964164,291.568087 475.964164,222 C475.964164,152.431913 419.568087,96.0358364 350,96.0358364 C280.431913,96.0358364 224.035836,152.431913 224.035836,222 C224.035836,291.568087 280.431913,347.964164 350,347.964164 Z M399.622492,283.028437 L358.906162,242.312107 C357.505504,240.911448 357.500955,238.62861 358.906162,237.223403 L399.622492,196.507073 C401.02315,195.106415 403.305989,195.101866 404.711195,196.507073 L445.427526,237.223403 C446.828184,238.624061 446.832732,240.9069 445.427526,242.312107 L404.711195,283.028437 C403.310537,284.429095 401.027699,284.433643 399.622492,283.028437 Z M295.288805,283.028437 C296.694011,284.433643 298.97685,284.429095 300.377508,283.028437 L341.093838,242.312107 C342.499045,240.9069 342.494496,238.624061 341.093838,237.223403 L300.377508,196.507073 C298.972301,195.101866 296.689463,195.106415 295.288805,196.507073 L254.572474,237.223403 C253.167268,238.62861 253.171816,240.911448 254.572474,242.312107 L295.288805,283.028437 L295.288805,283.028437 Z M347.455648,230.861593 C348.860855,232.2668 351.143693,232.262251 352.544352,230.861593 L393.260682,190.145263 C394.665889,188.740056 394.66134,186.457218 393.260682,185.056559 L352.544352,144.340229 C351.139145,142.935023 348.856307,142.939571 347.455648,144.340229 L306.739318,185.056559 C305.334111,186.461766 305.33866,188.744605 306.739318,190.145263 L347.455648,230.861593 L347.455648,230.861593 Z" transform="translate(-212 -84)"/>
</svg>
