<?xml version="1.0" encoding="UTF-8"?>
<svg width="94px" height="94px" viewBox="0 0 94 94" version="1.1" xmlns="http://www.w3.org/2000/svg" xmlns:xlink="http://www.w3.org/1999/xlink">
    <!-- Generator: Sketch 55.2 (78181) - https://sketchapp.com -->
    <title>calendar-dark</title>
    <desc>Created with Sketch.</desc>
    <g id="Case-Studies" stroke="none" stroke-width="1" fill="none" fill-rule="evenodd">
        <g id="calendar-dark" fill="#32ADFF">
            <circle id="Oval" opacity="0.100000001" cx="47" cy="47" r="47"></circle>
            <path d="M67.7030235,37.8750671 L26.2968722,37.8750671 C25.9713526,37.8750671 25.6946596,37.7611345 25.4667961,37.533271 C25.2389325,37.3054075 25.125,37.0287144 25.125,36.7031948 L25.125,33.1875782 C25.125,31.8854985 25.5807286,30.7787293 26.4921842,29.8672736 C27.4036399,28.955818 28.5104091,28.5000894 29.8124888,28.5000894 L34.4999776,28.5000894 L34.4999776,23.4219765 C34.4999776,23.096457 34.6139102,22.8197639 34.8417737,22.5919004 C35.0696373,22.3640368 35.3463303,22.2501043 35.6718499,22.2501043 L39.5780905,22.2501043 C39.9036101,22.2501043 40.1803031,22.3640368 40.4081667,22.5919004 C40.6360302,22.8197639 40.7499627,23.096457 40.7499627,23.4219765 L40.7499627,28.5000894 L53.2499329,28.5000894 L53.2499329,23.4219765 C53.2499329,23.096457 53.3638655,22.8197639 53.591729,22.5919004 C53.8195925,22.3640368 54.0962856,22.2501043 54.4218052,22.2501043 L58.3280458,22.2501043 C58.6535654,22.2501043 58.9302584,22.3640368 59.158122,22.5919004 C59.3859855,22.8197639 59.499918,23.096457 59.499918,23.4219765 L59.499918,28.5000894 L64.1874069,28.5000894 C65.4894866,28.5000894 66.5962558,28.955818 67.5077115,29.8672736 C68.4191671,30.7787293 68.8748957,31.8854985 68.8748957,33.1875782 L68.8748957,36.7031948 C68.8748957,37.0287144 68.7609632,37.3054075 68.5330996,37.533271 C68.3052361,37.7611345 68.028543,37.8750671 67.7030235,37.8750671 Z M26.2968722,41.0000596 L67.7030235,41.0000596 C68.028543,41.0000596 68.3052361,41.1139921 68.5330996,41.3418557 C68.7609632,41.5697192 68.8748957,41.8464123 68.8748957,42.1719318 L68.8748957,67.5624963 C68.8748957,68.864576 68.4191671,69.9713452 67.5077115,70.8828009 C66.5962558,71.7942565 65.4894866,72.2499851 64.1874069,72.2499851 L29.8124888,72.2499851 C28.5104091,72.2499851 27.4036399,71.7942565 26.4921842,70.8828009 C25.5807286,69.9713452 25.125,68.864576 25.125,67.5624963 L25.125,42.1719318 C25.125,41.8464123 25.2389325,41.5697192 25.4667961,41.3418557 C25.6946596,41.1139921 25.9713526,41.0000596 26.2968722,41.0000596 Z M37.6249702,60.9218871 C37.6249702,60.5963675 37.5110377,60.3196745 37.2831741,60.091811 C37.0553106,59.8639474 36.7786176,59.7500149 36.453098,59.7500149 L32.5468573,59.7500149 C32.2213377,59.7500149 31.9446447,59.8639474 31.7167812,60.091811 C31.4889176,60.3196745 31.3749851,60.5963675 31.3749851,60.9218871 L31.3749851,64.8281278 C31.3749851,65.1536474 31.4889176,65.4303404 31.7167812,65.6582039 C31.9446447,65.8860675 32.2213377,66 32.5468573,66 L36.453098,66 C36.7786176,66 37.0553106,65.8860675 37.2831741,65.6582039 C37.5110377,65.4303404 37.6249702,65.1536474 37.6249702,64.8281278 L37.6249702,60.9218871 Z M37.6249702,48.4219169 C37.6249702,48.0963973 37.5110377,47.8197043 37.2831741,47.5918408 C37.0553106,47.3639772 36.7786176,47.2500447 36.453098,47.2500447 L32.5468573,47.2500447 C32.2213377,47.2500447 31.9446447,47.3639772 31.7167812,47.5918408 C31.4889176,47.8197043 31.3749851,48.0963973 31.3749851,48.4219169 L31.3749851,52.3281576 C31.3749851,52.6536772 31.4889176,52.9303702 31.7167812,53.1582337 C31.9446447,53.3860973 32.2213377,53.5000298 32.5468573,53.5000298 L36.453098,53.5000298 C36.7786176,53.5000298 37.0553106,53.3860973 37.2831741,53.1582337 C37.5110377,52.9303702 37.6249702,52.6536772 37.6249702,52.3281576 L37.6249702,48.4219169 Z M50.1249404,60.9218871 C50.1249404,60.5963675 50.0110079,60.3196745 49.7831443,60.091811 C49.5552808,59.8639474 49.2785877,59.7500149 48.9530682,59.7500149 L45.0468275,59.7500149 C44.7213079,59.7500149 44.4446149,59.8639474 44.2167514,60.091811 C43.9888878,60.3196745 43.8749553,60.5963675 43.8749553,60.9218871 L43.8749553,64.8281278 C43.8749553,65.1536474 43.9888878,65.4303404 44.2167514,65.6582039 C44.4446149,65.8860675 44.7213079,66 45.0468275,66 L48.9530682,66 C49.2785877,66 49.5552808,65.8860675 49.7831443,65.6582039 C50.0110079,65.4303404 50.1249404,65.1536474 50.1249404,64.8281278 L50.1249404,60.9218871 Z M50.1249404,48.4219169 C50.1249404,48.0963973 50.0110079,47.8197043 49.7831443,47.5918408 C49.5552808,47.3639772 49.2785877,47.2500447 48.9530682,47.2500447 L45.0468275,47.2500447 C44.7213079,47.2500447 44.4446149,47.3639772 44.2167514,47.5918408 C43.9888878,47.8197043 43.8749553,48.0963973 43.8749553,48.4219169 L43.8749553,52.3281576 C43.8749553,52.6536772 43.9888878,52.9303702 44.2167514,53.1582337 C44.4446149,53.3860973 44.7213079,53.5000298 45.0468275,53.5000298 L48.9530682,53.5000298 C49.2785877,53.5000298 49.5552808,53.3860973 49.7831443,53.1582337 C50.0110079,52.9303702 50.1249404,52.6536772 50.1249404,52.3281576 L50.1249404,48.4219169 Z M62.6249106,60.9218871 C62.6249106,60.5963675 62.5109781,60.3196745 62.2831145,60.091811 C62.055251,59.8639474 61.7785579,59.7500149 61.4530384,59.7500149 L57.5467977,59.7500149 C57.2212781,59.7500149 56.9445851,59.8639474 56.7167216,60.091811 C56.488858,60.3196745 56.3749255,60.5963675 56.3749255,60.9218871 L56.3749255,64.8281278 C56.3749255,65.1536474 56.488858,65.4303404 56.7167216,65.6582039 C56.9445851,65.8860675 57.2212781,66 57.5467977,66 L61.4530384,66 C61.7785579,66 62.055251,65.8860675 62.2831145,65.6582039 C62.5109781,65.4303404 62.6249106,65.1536474 62.6249106,64.8281278 L62.6249106,60.9218871 Z M62.6249106,48.4219169 C62.6249106,48.0963973 62.5109781,47.8197043 62.2831145,47.5918408 C62.055251,47.3639772 61.7785579,47.2500447 61.4530384,47.2500447 L57.5467977,47.2500447 C57.2212781,47.2500447 56.9445851,47.3639772 56.7167216,47.5918408 C56.488858,47.8197043 56.3749255,48.0963973 56.3749255,48.4219169 L56.3749255,52.3281576 C56.3749255,52.6536772 56.488858,52.9303702 56.7167216,53.1582337 C56.9445851,53.3860973 57.2212781,53.5000298 57.5467977,53.5000298 L61.4530384,53.5000298 C61.7785579,53.5000298 62.055251,53.3860973 62.2831145,53.1582337 C62.5109781,52.9303702 62.6249106,52.6536772 62.6249106,52.3281576 L62.6249106,48.4219169 Z" id="calendar-alt"></path>
        </g>
    </g>
</svg>