<?xml version="1.0" encoding="UTF-8"?>
<svg width="94px" height="94px" viewBox="0 0 94 94" version="1.1" xmlns="http://www.w3.org/2000/svg" xmlns:xlink="http://www.w3.org/1999/xlink">
    <!-- Generator: Sketch 55.2 (78181) - https://sketchapp.com -->
    <title>money-dark</title>
    <desc>Created with Sketch.</desc>
    <g id="Case-Studies" stroke="none" stroke-width="1" fill="none" fill-rule="evenodd">
        <g id="money-dark" fill="#32ADFF">
            <circle id="Oval-Copy-4" opacity="0.100000001" cx="47" cy="47" r="47"></circle>
            <path d="M53.8476076,45.0039563 C55.7356234,45.5898924 57.3469477,46.5990041 58.6815804,48.0312928 C60.0162132,49.4635816 60.8951173,51.1400089 61.3182929,53.0605777 C61.7414685,54.9811466 61.6275375,56.9179904 60.9764968,58.8711107 C60.1952487,61.0195431 58.860616,62.7285234 56.9726001,63.9980516 C55.0845843,65.2675799 52.9687034,65.9348955 50.624959,66 L50.624959,70.6874888 C50.624959,71.1432174 50.478475,71.517565 50.1855069,71.810533 C49.8925389,72.1035011 49.5181913,72.2499851 49.0624627,72.2499851 L45.9374702,72.2499851 C45.4817416,72.2499851 45.1073941,72.1035011 44.814426,71.810533 C44.5214579,71.517565 44.3749739,71.1432174 44.3749739,70.6874888 L44.3749739,66 C41.2499814,66 38.4179569,65.0234398 35.8789004,63.0703195 C35.5533809,62.7447999 35.3580688,62.3541759 35.2929643,61.8984473 C35.2278598,61.4427187 35.3906203,61.0195431 35.7812444,60.6289191 L39.101549,57.3086145 C39.3619655,57.1133024 39.6712086,56.9830949 40.0292812,56.9179904 C40.3873537,56.8528859 40.7291498,56.9505419 41.0546693,57.2109585 C42.0312295,57.8619991 43.1379972,58.1875186 44.3749739,58.1875186 L50.9179271,58.1875186 C51.6991752,58.1875186 52.3664908,57.9108271 52.9198754,57.3574425 C53.47326,56.8040579 53.7499516,56.1041908 53.7499516,55.2578381 C53.7499516,54.671902 53.5546395,54.1185174 53.1640155,53.5976858 C52.7733914,53.0768542 52.2851113,52.7187817 51.6991752,52.5234696 L41.6406054,49.5937891 C39.4270686,48.9427485 37.5716042,47.7708763 36.0742125,46.0781725 C34.5768207,44.3854687 33.6979165,42.4323484 33.4375,40.2188115 C33.3072925,38.1354836 33.6979165,36.1986383 34.6093722,34.4082784 C35.5208279,32.6179186 36.8229091,31.1856299 38.5156129,30.1114137 C40.2083167,29.0371975 42.096334,28.5000894 44.1796619,28.5000894 L44.3749739,28.5000894 L44.3749739,23.8126006 C44.3749739,23.356872 44.5214579,22.9825244 44.814426,22.6895564 C45.1073941,22.3965883 45.4817416,22.2501043 45.9374702,22.2501043 L49.0624627,22.2501043 C49.5181913,22.2501043 49.8925389,22.3965883 50.1855069,22.6895564 C50.478475,22.9825244 50.624959,23.356872 50.624959,23.8126006 L50.624959,28.5000894 C53.7499516,28.5000894 56.5494246,29.4766496 59.0233765,31.4297699 C59.4140006,31.7552895 59.6418641,32.1459136 59.7069686,32.6016421 C59.7720731,33.0573707 59.6093126,33.4479948 59.2186885,33.7735143 L55.8983839,37.1914749 C55.6379674,37.386787 55.3287243,37.5169945 54.9706518,37.582099 C54.6125792,37.6472035 54.2707832,37.582099 53.9452636,37.386787 C52.9687034,36.6706433 51.8619357,36.3125708 50.624959,36.3125708 L44.0820059,36.3125708 C43.3007577,36.3125708 42.6334421,36.5892623 42.0800575,37.1426469 C41.5266729,37.6960315 41.2499814,38.3958987 41.2499814,39.2422513 C41.2499814,39.8281874 41.4452934,40.381572 41.8359175,40.9024036 C42.2265415,41.4232352 42.7148216,41.7813077 43.3007577,41.9766198 L53.8476076,45.0039563 Z" id="dollar-sign"></path>
        </g>
    </g>
</svg>