<?xml version="1.0" encoding="UTF-8"?>
<svg width="94px" height="94px" viewBox="0 0 94 94" version="1.1" xmlns="http://www.w3.org/2000/svg" xmlns:xlink="http://www.w3.org/1999/xlink">
    <!-- Generator: Sketch 52.4 (67378) - http://www.bohemiancoding.com/sketch -->
    <title>Group 20</title>
    <desc>Created with Sketch.</desc>
    <g id="Case-Studies" stroke="none" stroke-width="1" fill="none" fill-rule="evenodd">
        <g id="Ticketek" transform="translate(-1058.000000, -1189.000000)">
            <g id="Challenge" transform="translate(0.000000, 735.000000)">
                <g id="Group-2" transform="translate(170.000000, 159.000000)">
                    <g id="Group-15" transform="translate(0.000000, 295.000000)">
                        <g id="Group-12" transform="translate(770.000000, 0.000000)">
                            <g id="Group-20" transform="translate(118.000000, 0.000000)">
                                <circle id="Oval-Copy-3" fill="#B8E2FF" cx="47" cy="47" r="47"></circle>
                                <path d="M70.4373845,34.7500745 C70.4373845,41.4557882 69.2004078,47.6081173 66.7264559,53.2070618 C64.5780235,57.8945506 61.7134475,61.9961033 58.1327264,65.5117199 C55.1379413,68.4414004 52.0129488,70.5572813 48.7577487,71.859361 C47.5858765,72.3801926 46.4140043,72.3801926 45.2421321,71.859361 C41.5312034,70.3619693 38.1132428,67.9531203 34.9882503,64.6328158 C31.5377382,61.0520946 28.8359212,56.8528859 26.8828009,52.0351895 C24.669264,46.6315571 23.5624963,40.8698521 23.5624963,34.7500745 C23.5624963,33.7735143 23.8229128,32.8946102 24.3437444,32.113362 C24.864576,31.3321139 25.5807211,30.7787293 26.4921768,30.4532098 L45.2421321,22.6407284 C46.4140043,22.1198968 47.5858765,22.1198968 48.7577487,22.6407284 L67.507704,30.4532098 C68.4191597,30.7787293 69.1353048,31.3321139 69.6561364,32.113362 C70.176968,32.8946102 70.4373845,33.7735143 70.4373845,34.7500745 Z M46.9999404,65.804688 C51.8827413,63.395839 55.8540864,59.6849104 58.9139745,54.671902 C62.2993836,49.1380605 64.0571919,42.8555239 64.1873994,35.8242907 L46.9999404,28.5977454 L46.9999404,65.804688 Z" id="shield-alt" fill="#007ACC"></path>
                            </g>
                        </g>
                    </g>
                </g>
            </g>
        </g>
    </g>
</svg>