<?xml version="1.0" encoding="UTF-8"?>
<svg width="428px" height="529px" viewBox="0 0 428 529" version="1.1" xmlns="http://www.w3.org/2000/svg" xmlns:xlink="http://www.w3.org/1999/xlink">
    <title>screenshot-icons-mobile</title>
    <defs>
        <rect id="path-1" x="0" y="0" width="32" height="32"></rect>
        <rect id="path-3" x="0" y="0" width="30" height="30"></rect>
        <rect id="path-5" x="0" y="0" width="30" height="30"></rect>
        <rect id="path-7" x="0" y="0" width="30" height="30"></rect>
        <rect id="path-9" x="0" y="0" width="30" height="30"></rect>
        <rect id="path-11" x="0" y="0" width="30" height="30"></rect>
        <rect id="path-13" x="0" y="0" width="30" height="30"></rect>
        <rect id="path-15" x="0" y="0" width="30" height="30"></rect>
        <polygon id="path-17" points="21 30 -8.8817842e-16 30 -8.8817842e-16 6.67868538e-16 13 6.67868538e-16 13 8 21 8"></polygon>
        <rect id="path-19" x="0" y="0" width="15" height="15"></rect>
        <rect id="path-21" x="0" y="0" width="30" height="30"></rect>
        <rect id="path-23" x="0" y="0" width="30" height="30"></rect>
        <rect id="path-25" x="0" y="0" width="15" height="15"></rect>
        <rect id="path-27" x="0" y="0" width="30" height="30"></rect>
        <rect id="path-29" x="0" y="0" width="15" height="15"></rect>
        <rect id="path-31" x="0" y="0" width="30" height="30"></rect>
        <rect id="path-33" x="0" y="0" width="30" height="30"></rect>
        <rect id="path-35" x="0" y="0" width="16" height="16"></rect>
        <rect id="path-37" x="0" y="0" width="16" height="16"></rect>
        <rect id="path-39" x="0" y="0" width="30" height="30"></rect>
        <rect id="path-41" x="0" y="0" width="15" height="15"></rect>
        <rect id="path-43" x="0" y="0" width="16" height="16"></rect>
        <rect id="path-45" x="0" y="0" width="16" height="16"></rect>
        <rect id="path-47" x="0" y="0" width="16" height="16"></rect>
        <rect id="path-49" x="0" y="0" width="30" height="30"></rect>
        <rect id="path-51" x="0" y="0" width="30" height="30"></rect>
        <rect id="path-53" x="0" y="0" width="30" height="30"></rect>
        <rect id="path-55" x="0" y="0" width="30" height="30"></rect>
        <rect id="path-57" x="0" y="0" width="30" height="30"></rect>
        <rect id="path-59" x="0" y="0" width="30" height="30"></rect>
        <rect id="path-61" x="0" y="0" width="16" height="16"></rect>
        <rect id="path-63" x="0" y="0" width="30" height="30"></rect>
        <rect id="path-65" x="0" y="0" width="30" height="30"></rect>
        <rect id="path-67" x="0" y="0" width="30" height="30"></rect>
        <rect id="path-69" x="0" y="0" width="30" height="30"></rect>
        <rect id="path-71" x="0" y="0" width="30" height="30"></rect>
        <rect id="path-73" x="0" y="0" width="15" height="15"></rect>
        <rect id="path-75" x="0" y="0" width="15" height="15"></rect>
        <rect id="path-77" x="0" y="0" width="30" height="30"></rect>
        <rect id="path-79" x="0" y="0" width="16" height="16"></rect>
        <rect id="path-81" x="0" y="0" width="16" height="16"></rect>
    </defs>
    <g id="screenshot-icons-mobile" stroke="none" stroke-width="1" fill="none" fill-rule="evenodd">
        <g id="data---menu---import---bim-reader---light" transform="translate(189.000000, 152.000000)">
            <mask id="mask-2" fill="white">
                <use xlink:href="#path-1"></use>
            </mask>
            <g id="Rectangle"></g>
            <g id="data_-_menu_-_import_-_bim_reader_-_light" mask="url(#mask-2)">
                <g transform="translate(2.000000, 0.135000)" id="Group_2">
                    <path d="M0,7.894 L27.834,7.894 L13.87,15.975 L0,7.894 Z M0,7.894 L13.917,0 L27.834,7.894 L0,7.894 Z" id="Union_2" fill="#FCE77D" fill-rule="nonzero"></path>
                    <polygon id="Path_1" fill="#FFC557" fill-rule="nonzero" points="0.04 7.921 13.931 15.837 13.931 31.865 0.04 23.91"></polygon>
                    <polygon id="Path_2" fill="#F5A000" fill-rule="nonzero" points="27.79 7.921 13.899 15.836 13.899 31.865 27.792 23.91"></polygon>
                </g>
            </g>
        </g>
        <g id="home---pause---light" transform="translate(330.000000, 207.000000)">
            <mask id="mask-4" fill="white">
                <use xlink:href="#path-3"></use>
            </mask>
            <g id="Rectangle"></g>
            <g id="home_-_pause_-_light" mask="url(#mask-4)" fill-rule="nonzero">
                <circle id="Ellipse_319" fill="#0173C7" cx="15" cy="15" r="15"></circle>
                <rect id="Rectangle_3154" fill="#FFFFFF" x="8" y="8" width="5" height="14"></rect>
                <rect id="Rectangle_3155" fill="#FFFFFF" x="17" y="8" width="5" height="14"></rect>
            </g>
        </g>
        <g id="home---recalculate---light" transform="translate(387.000000, 62.000000)">
            <mask id="mask-6" fill="white">
                <use xlink:href="#path-5"></use>
            </mask>
            <g id="Rectangle"></g>
            <g id="home_-_recalculate_-_light" mask="url(#mask-6)" fill-rule="nonzero">
                <g transform="translate(-0.090637, 0.063830)">
                    <path d="M17.5996368,19.2721705 L17.4906368,19.2721705 C16.6593035,21.5388371 15.1506368,22.6721705 12.9646368,22.6721705 C11.4385085,22.7233094 9.97460311,22.0653827 8.99963682,20.8901705 C7.92280788,19.4782368 7.38842063,17.7267524 7.49363682,15.9541705 C7.38674091,13.5655138 8.12496812,11.215579 9.57863682,9.31717048 C10.7560231,7.71932241 12.6188872,6.77139333 14.6036368,6.76017048 C16.3736368,6.76017048 17.4843035,7.45517048 17.9356368,8.84517048 L18.0066368,8.84517048 L18.1846368,7.08117048 L22.1936368,7.08117048 C21.6603035,12.1418371 21.3936368,15.4501705 21.3936368,17.0061705 C21.3936368,18.6695038 21.8449702,19.5011705 22.7476368,19.5011705 C23.6976368,19.5011705 24.4816368,18.8715038 25.0996368,17.6121705 C25.7765082,16.0576717 26.0933982,14.3703264 26.0266368,12.6761705 C26.1183045,10.1304184 25.1580871,7.65916943 23.3716368,5.84317048 C21.3691809,3.97996681 18.6909313,3.01831221 15.9606368,3.18217048 C12.7590281,3.10135587 9.67598289,4.39499726 7.49063682,6.73617048 C5.25645538,9.06146979 4.04112784,12.1813023 4.11363682,15.4051705 C3.96021168,18.3104021 5.04484633,21.1446233 7.09863682,23.2051705 C9.08863682,25.1058371 11.8356368,26.0561705 15.3396368,26.0561705 C17.8690311,26.0864735 20.3744875,25.5636075 22.6806368,24.5241705 L22.6806368,27.9361705 C20.1795502,28.8857887 17.514366,29.3277198 14.8406368,29.2361705 C10.9219394,29.4029711 7.08970651,28.0530939 4.14063682,25.4671705 C1.34752934,22.8576314 -0.160936537,19.1546346 0.0136368173,15.3361705 C-0.081678207,11.2522425 1.50989903,7.30947163 4.41363682,4.43617048 C7.41740876,1.45819671 11.5196717,-0.14390472 15.7466368,0.0101704792 C20.0233035,0.0101704792 23.4829702,1.15350381 26.1256368,3.44017048 C28.7550222,5.693728 30.2145198,9.02241303 30.0906368,12.4831705 C30.222855,15.1641952 29.359952,17.7995572 27.6676368,19.8831705 C26.1947177,21.6754573 23.987318,22.7015303 21.6676368,22.6721705 C20.6281199,22.7183662 19.6076274,22.382589 18.7986368,21.7281705 C18.068826,21.116532 17.6330046,20.223807 17.5996368,19.2721705 Z M15.2296368,9.86417048 C14.0793724,9.91585871 13.0624644,10.6273047 12.6196368,11.6901705 C11.9278521,12.9916103 11.5811557,14.4486303 11.6126368,15.9221705 C11.5576206,16.8600075 11.7974991,17.7915473 12.2986368,18.5861705 C12.6889707,19.1848373 13.356976,19.5438948 14.0716368,19.5392165 C15.2294665,19.5141139 16.2634845,18.8082995 16.7086368,17.7391705 C17.4146114,16.2372151 17.7447631,14.5861136 17.6706368,12.9281705 C17.7163311,12.1248652 17.4800632,11.3308211 17.0026368,10.6831705 C16.5747362,10.1452906 15.9175885,9.84156376 15.2306368,9.86417048 L15.2296368,9.86417048 Z" id="Path_254" fill="#A6A6A6"></path>
                    <circle id="Ellipse_320" fill="#309048" cx="22.0906368" cy="21.9361705" r="8"></circle>
                    <path d="M22.0906368,16.9361705 C22.5048504,16.9361705 22.8406368,17.2719569 22.8406368,17.6861705 L22.8406368,24.4731705 L24.7816368,22.1861705 C24.9597967,21.9846428 25.2322369,21.8939569 25.4956356,21.948505 C25.7590343,22.0030531 25.9730506,22.1944809 26.0565197,22.4501902 C26.1399889,22.7058996 26.0801271,22.9867272 25.8996368,23.1861705 L22.6496368,26.9361705 C22.5073562,27.0952342 22.3040497,27.1861515 22.0906368,27.1861515 C21.8772239,27.1861515 21.6739175,27.0952342 21.5316368,26.9361705 L18.2816368,23.1861705 C18.1011465,22.9867272 18.0412847,22.7058996 18.1247539,22.4501902 C18.208223,22.1944809 18.4222394,22.0030531 18.685638,21.948505 C18.9490367,21.8939569 19.2214769,21.9846428 19.3996368,22.1861705 L21.3406368,24.4731705 L21.3406368,17.6861705 C21.3406368,17.2719569 21.6764233,16.9361705 22.0906368,16.9361705 Z" id="Path" fill="#FFFFFF"></path>
                </g>
            </g>
        </g>
        <g id="job-manager---codes---light" transform="translate(80.000000, 15.000000)">
            <mask id="mask-8" fill="white">
                <use xlink:href="#path-7"></use>
            </mask>
            <g id="Rectangle"></g>
            <g id="job_manager_-_codes_-_light" mask="url(#mask-8)" fill="#0173C7" fill-rule="nonzero">
                <g transform="translate(0.984804, -0.025419)" id="_Color">
                    <path d="M18.383196,15.0134186 C19.2558718,15.9647135 19.8417466,17.1433966 20.073196,18.4134186 L20.225196,19.1134186 L20.225196,19.1134186 L20.499196,20.5594186 C20.5759302,21.0348781 20.7060875,21.5001569 20.887196,21.9464186 C21.4777716,23.1526533 22.3072065,24.2263599 23.325196,25.1024186 C23.7471183,25.5372331 23.7576861,26.2253402 23.3493153,26.6729061 C22.9409445,27.1204721 22.2547513,27.1728363 21.783196,26.7924186 C20.5312369,25.705393 19.5153369,24.3733218 18.798196,22.8784186 C18.552023,22.3011902 18.3744742,21.6970545 18.269196,21.0784186 L17.948196,19.3974186 L17.948196,19.3974186 L17.929196,19.3054186 C17.801523,18.3137831 17.3915903,17.3797195 16.748196,16.6144186 C15.659196,15.4994186 13.148196,15.7944186 12.475196,16.8564186 C11.539963,18.7147076 11.3957003,20.8721572 12.075196,22.8384186 C12.6148263,24.6644913 13.3176596,26.4383088 14.175196,28.1384186 C14.437384,28.7005314 14.2047697,29.3692239 13.6503241,29.6472588 C13.0958786,29.9252937 12.4208539,29.7117503 12.127196,29.1654186 C11.2104497,27.342831 10.4594264,25.4415104 9.88319603,23.4844186 C9.00905916,20.8884915 9.24720584,18.0466561 10.541196,15.6324186 C11.994196,13.3294186 16.255196,12.8294186 18.383196,15.0134186 Z M14.773196,18.5504186 C15.4054844,18.5296385 15.9350081,19.0251438 15.956196,19.6574186 C16.0344514,22.0176531 16.8012587,24.3034757 18.162196,26.2334186 L18.462196,26.6404186 L18.921196,27.2404186 C19.2771331,27.7157542 19.2110076,28.3842432 18.7688415,28.7806321 C18.3266754,29.177021 17.6549607,29.169984 17.221196,28.7644186 L17.108196,28.6374186 L16.649196,28.0374186 C14.8119296,25.6506085 13.7693536,22.7477638 13.668196,19.7374186 C13.6571255,19.4334279 13.7673694,19.1375079 13.9746378,18.9148585 C14.1819061,18.6922091 14.4691914,18.5611001 14.773196,18.5504186 Z M9.10619603,10.7854186 C12.1254093,8.55632046 16.1959421,8.38457136 19.392196,10.3514186 C20.7008804,11.1490375 21.8016844,12.2457289 22.604196,13.5514186 C22.8194709,13.9050126 22.8273142,14.3472215 22.6247137,14.7082271 C22.4221133,15.0692327 22.0405664,15.2929114 21.6265957,15.2933656 C21.2126249,15.2938198 20.8305881,15.0709788 20.627196,14.7104186 C20.0057538,13.7160776 19.1580308,12.882746 18.153196,12.2784186 C15.7574534,10.8301103 12.7251954,10.9674559 10.470196,12.6264186 C7.97019603,14.4794186 6.91319603,17.6544186 7.22719603,21.0014186 C7.43478845,22.9870417 8.01133616,24.9164417 8.92719603,26.6904186 C9.20631162,27.2559032 8.97610791,27.9406389 8.41206653,28.2226596 C7.84802515,28.5046803 7.16211437,28.2780019 6.87719603,27.7154186 C5.83391057,25.6879501 5.17834463,23.4835121 4.94419603,21.2154186 C4.56319603,17.1384186 5.87819603,13.1784186 9.10619603,10.7854186 Z M23.130196,17.3564186 C23.7607699,17.3258149 24.2973342,17.8109584 24.330196,18.4414186 C24.3451868,19.2485998 24.5780649,20.036723 25.004196,20.7224186 C25.2136333,21.0923456 25.5089293,21.4065049 25.865196,21.6384186 L25.958196,21.6764186 C26.3513899,21.7938005 26.6518166,22.1124513 26.7458658,22.5118693 C26.839915,22.9112872 26.7132317,23.3305078 26.4137228,23.6109973 C26.1142139,23.8914868 25.6875943,23.9904332 25.295196,23.8704186 C24.3627735,23.5202282 23.5837425,22.8523861 23.095196,21.9844186 C22.4429579,20.9585967 22.0801609,19.7755329 22.045196,18.5604186 C22.0294085,18.2567107 22.1349869,17.9591817 22.3386797,17.7333566 C22.5423725,17.5075314 22.8274739,17.371931 23.131196,17.3564186 L23.130196,17.3564186 Z M11.746196,5.76141865 C11.8714305,6.0387949 11.8811905,6.35459396 11.7733239,6.63917442 C11.6654572,6.92375487 11.4488236,7.15374223 11.171196,7.27841865 C8.56336051,8.36807171 6.3757299,10.2685298 4.93219603,12.6984186 C3.35356409,15.5220954 2.72956776,18.7802753 3.15319603,21.9874186 C3.21374591,22.3966536 3.04903704,22.8067565 2.72224658,23.0604247 C2.39545611,23.3140928 1.95731641,23.3719458 1.57588408,23.2117929 C1.19445176,23.0516401 0.928942012,22.6983443 0.881196033,22.2874186 C0.387880275,18.5796169 1.11333872,14.811936 2.94819603,11.5524186 C4.63127233,8.70529631 7.18432347,6.4740495 10.231196,5.18741865 C10.8080651,4.92782025 11.4861736,5.18474057 11.746196,5.76141865 Z M15.326196,4.56141865 C18.126196,4.61841865 20.905196,5.90341865 23.666196,8.36141865 C26.5204059,10.9814544 28.3117061,14.559428 28.699196,18.4144186 C28.7722117,19.0353252 28.3341113,19.6001783 27.7145616,19.6839308 C27.0950119,19.7676832 26.5226601,19.3394258 26.428196,18.7214186 C26.1125479,15.409721 24.5869125,12.3306791 22.143196,10.0734186 C19.760196,7.95341865 17.476196,6.89941865 15.280196,6.85441865 C14.8649614,6.85472907 14.4820419,6.63040205 14.279271,6.26804329 C14.0765001,5.90568453 14.0856025,5.4619875 14.3030642,5.10824984 C14.5205259,4.75451218 14.9123235,4.54607853 15.327196,4.56341865 L15.326196,4.56141865 Z M4.82819603,4.57841865 C5.03029804,4.80544073 5.1339349,5.10345123 5.11630635,5.40688736 C5.0986778,5.71032348 4.96122797,5.9943277 4.73419603,6.19641865 C4.27973563,6.60729512 3.8496695,7.04437321 3.44619603,7.50541865 C2.9548651,8.07871863 2.52173592,8.69943662 2.15319603,9.35841865 C1.95442521,9.72462298 1.57255198,9.95408564 1.15589563,9.9577264 C0.739239289,9.96128133 0.353460453,9.73844739 0.148395355,9.3757302 C-0.0566697429,9.01301301 -0.0487050189,8.56757296 0.169196033,8.21241865 C0.61448571,7.41941981 1.13810029,6.67302616 1.73219603,5.98441865 C2.19515287,5.45598981 2.6886647,4.95513207 3.21019603,4.48441865 C3.43721812,4.28231664 3.73522861,4.17867978 4.03866474,4.19630833 C4.34210087,4.21393688 4.62610509,4.35138671 4.82819603,4.57841865 Z M14.889196,0.0504186469 C17.9336549,0.0887230039 20.8890092,1.08328648 23.337196,2.89341865 C23.6718318,3.13985168 23.8468302,3.54813721 23.7945305,3.96041757 C23.7422308,4.37269794 23.4708301,4.72435567 23.0852616,4.87942743 C22.699693,5.03449919 22.2603875,4.96868029 21.937196,4.70741865 C19.8604243,3.18630118 17.3573837,2.35778564 14.783196,2.33941865 C12.289945,2.1532063 9.79466085,2.67305717 7.58319603,3.83941865 C7.32373261,4.00065954 7.01044799,4.05112293 6.7134771,3.97951159 C6.41650621,3.90790026 6.16065328,3.72019547 6.00319603,3.45841865 C5.83822535,3.2000459 5.78551616,2.88565851 5.8571989,2.58760921 C5.92888165,2.28955991 6.11878182,2.0335216 6.38319603,1.87841865 C8.97633237,0.443896118 11.9356552,-0.192083434 14.889196,0.0504186469 Z"></path>
                </g>
            </g>
        </g>
        <g id="view---plans---light" transform="translate(228.000000, 53.000000)">
            <mask id="mask-10" fill="white">
                <use xlink:href="#path-9"></use>
            </mask>
            <g id="Rectangle"></g>
            <g id="view_-_plans_-_light" mask="url(#mask-10)">
                <g transform="translate(-0.000000, -0.003000)" id="Group_1006">
                    <path d="M3,2.003 L30,2.003 L30,28.003 L3,28.003 C1.34314575,28.003 2.27373675e-13,26.6598542 2.27373675e-13,25.003 L2.27373675e-13,5.003 C2.27373675e-13,3.34614575 1.34314575,2.003 3,2.003 Z" id="Rectangle_465" fill="#0173C7" fill-rule="nonzero"></path>
                    <path d="M6,25.303 L6,25.303 C5.99559004,23.6492708 4.65373508,22.3109941 3,22.311 C1.3826001,22.3025637 0.0525198353,23.583431 0,25.2 L0,9.4 L0,3 C0,1.34314575 1.34314575,0 3,0 C4.65685425,0 6,1.34314575 6,3 L6,25.3 L6,25.303 Z" id="Subtraction_12" fill="#002F51" fill-rule="nonzero"></path>
                </g>
            </g>
        </g>
        <g id="view---custom---light" transform="translate(110.000000, 191.000000)">
            <mask id="mask-12" fill="white">
                <use xlink:href="#path-11"></use>
            </mask>
            <g id="Rectangle"></g>
            <g id="view_-_custom_-_light" mask="url(#mask-12)">
                <g transform="translate(-0.002000, -0.004000)" id="Group_2052">
                    <path d="M25,30.002 L21,30.002 L21,28.002 L25,28.002 L25,30.002 Z M18,30.002 L14,30.002 L14,28.002 L18,28.002 L18,30.002 Z M11,30.002 L7,30.002 L7,28.002 L11,28.002 L11,30.002 Z M4.006,29.902 L3.898,29.879 L3.898,29.879 L3.89,29.879 L3.89,29.879 C3.88503862,29.8798788 3.87996138,29.8798788 3.875,29.879 L3.875,29.879 L3.867,29.879 C3.84992165,29.8734332 3.83256477,29.8687601 3.815,29.865 L3.815,29.865 L3.815,29.865 L3.815,29.865 L3.815,29.865 C3.815,29.865 3.815,29.865 3.815,29.865 C3.815,29.865 3.815,29.865 3.815,29.865 C3.815,29.865 3.815,29.865 3.815,29.865 C3.815,29.865 3.815,29.865 3.815,29.865 C3.815,29.865 3.815,29.865 3.815,29.865 C3.815,29.865 3.815,29.865 3.815,29.865 C3.815,29.865 3.815,29.865 3.815,29.865 C3.815,29.865 3.815,29.865 3.815,29.865 C3.815,29.865 3.815,29.865 3.815,29.865 C3.815,29.865 3.815,29.865 3.815,29.865 C3.815,29.865 3.815,29.865 3.815,29.865 L3.815,29.865 C3.815,29.865 3.815,29.865 3.815,29.865 L3.815,29.865 C3.815,29.865 3.815,29.865 3.815,29.865 L3.815,29.865 C3.815,29.865 3.815,29.865 3.815,29.865 L3.815,29.865 C3.815,29.865 3.815,29.865 3.815,29.865 C3.81242785,29.8660041 3.80957215,29.8660041 3.807,29.865 C3.807,29.865 3.807,29.865 3.807,29.865 L3.807,29.865 C3.807,29.865 3.807,29.865 3.807,29.865 L3.807,29.865 L3.802,29.865 C3.802,29.865 3.802,29.865 3.802,29.865 L3.802,29.865 C3.802,29.865 3.802,29.865 3.802,29.865 C3.802,29.865 3.802,29.871 3.802,29.865 L3.802,29.865 L3.802,29.865 C3.802,29.865 3.802,29.865 3.802,29.865 L3.802,29.865 C3.802,29.859 3.802,29.865 3.802,29.865 C3.802,29.865 3.802,29.865 3.802,29.865 C3.802,29.865 3.802,29.865 3.802,29.865 C3.802,29.865 3.802,29.865 3.802,29.865 C3.802,29.865 3.802,29.865 3.802,29.865 C3.802,29.865 3.802,29.865 3.802,29.865 L3.797,29.865 C3.797,29.865 3.797,29.865 3.797,29.865 L3.797,29.865 L3.797,29.865 L3.751,29.853 L3.751,29.853 C3.74874287,29.8538433 3.74625713,29.8538433 3.744,29.853 L3.744,29.853 C3.744,29.853 3.744,29.853 3.744,29.853 C3.744,29.853 3.744,29.853 3.744,29.853 C3.744,29.853 3.744,29.853 3.744,29.853 L3.744,29.853 L3.744,29.853 L3.744,29.853 L3.744,29.853 L3.744,29.853 C2.96219115,29.6124651 2.2516176,29.1831674 1.675,28.603 L1.675,28.603 C1.675,28.603 1.675,28.603 1.675,28.603 L1.675,28.603 L1.675,28.603 L1.675,28.603 L1.67,28.597 L1.67,28.597 L1.67,28.597 L1.67,28.597 C1.67,28.597 1.67,28.597 1.67,28.597 L1.67,28.597 C1.67,28.597 1.67,28.597 1.67,28.597 L1.67,28.597 L1.67,28.597 L1.67,28.597 L1.665,28.591 L1.665,28.591 C1.65645451,28.5815567 1.64744332,28.5725455 1.638,28.564 L1.638,28.564 L1.633,28.558 L1.633,28.558 L1.633,28.558 L1.633,28.558 C1.633,28.558 1.633,28.558 1.633,28.558 C1.633,28.558 1.633,28.558 1.633,28.558 C1.633,28.558 1.633,28.558 1.633,28.558 C1.633,28.558 1.633,28.558 1.633,28.558 L1.633,28.558 C1.633,28.558 1.633,28.558 1.633,28.558 C1.633,28.558 1.633,28.558 1.633,28.558 L1.633,28.558 L1.633,28.558 L1.633,28.558 C1.633,28.558 1.633,28.558 1.633,28.558 L1.633,28.558 C1.633,28.558 1.633,28.552 1.633,28.558 C1.633,28.564 1.633,28.558 1.633,28.558 L1.633,28.558 C1.633,28.558 1.633,28.558 1.633,28.558 C1.633,28.558 1.633,28.558 1.633,28.558 C1.633,28.558 1.633,28.558 1.633,28.558 L1.633,28.558 L1.633,28.558 L1.633,28.558 L1.633,28.558 L1.633,28.558 L1.633,28.558 C1.633,28.558 1.633,28.558 1.633,28.558 C1.633,28.558 1.633,28.558 1.633,28.558 C1.633,28.558 1.633,28.558 1.633,28.558 L1.633,28.558 L1.615,28.538 L1.615,28.538 L1.615,28.538 L1.615,28.538 C1.615,28.538 1.615,28.532 1.615,28.538 L1.615,28.538 L1.615,28.538 C1.615,28.538 1.615,28.538 1.615,28.538 C1.615,28.538 1.615,28.538 1.615,28.538 C1.615,28.538 1.615,28.538 1.615,28.538 C1.615,28.538 1.615,28.538 1.615,28.538 L1.615,28.538 C1.615,28.538 1.615,28.538 1.615,28.538 C1.615,28.538 1.615,28.538 1.615,28.538 C1.615,28.538 1.615,28.538 1.615,28.538 L1.615,28.538 L1.615,28.538 C1.615,28.538 1.615,28.538 1.615,28.538 C1.615,28.538 1.615,28.538 1.615,28.538 C1.615,28.538 1.615,28.538 1.615,28.538 L1.615,28.538 L1.615,28.538 L1.615,28.538 L1.615,28.538 C1.615,28.538 1.615,28.538 1.615,28.538 C1.615,28.538 1.615,28.538 1.615,28.538 C1.615,28.538 1.615,28.538 1.615,28.538 L1.615,28.538 C1.615,28.538 1.615,28.538 1.615,28.538 L1.615,28.538 C1.615,28.538 1.615,28.532 1.615,28.538 C1.615,28.544 1.615,28.538 1.615,28.538 L1.615,28.538 C1.615,28.538 1.615,28.538 1.615,28.538 C1.615,28.538 1.615,28.538 1.615,28.538 C1.615,28.538 1.615,28.538 1.615,28.538 C1.615,28.538 1.615,28.538 1.615,28.538 L1.615,28.538 C1.615,28.538 1.615,28.538 1.615,28.538 L1.615,28.538 L1.615,28.538 C1.615,28.538 1.615,28.538 1.615,28.538 L1.615,28.532 L1.615,28.532 L1.615,28.532 L1.615,28.532 L1.615,28.532 C1.615,28.532 1.615,28.526 1.615,28.532 C1.615,28.538 1.615,28.532 1.615,28.532 L1.615,28.532 C1.615,28.532 1.615,28.532 1.615,28.532 C1.615,28.532 1.615,28.532 1.615,28.532 C1.615,28.532 1.615,28.532 1.615,28.532 C1.615,28.532 1.615,28.532 1.615,28.532 L1.615,28.532 C1.615,28.532 1.615,28.532 1.615,28.532 C1.615,28.532 1.615,28.532 1.615,28.532 L1.615,28.532 L1.615,28.532 C1.615,28.532 1.615,28.532 1.615,28.532 L1.615,28.532 C1.615,28.532 1.615,28.532 1.615,28.532 L1.615,28.532 C1.615,28.532 1.615,28.532 1.615,28.532 L1.615,28.532 C1.615,28.532 1.615,28.532 1.615,28.532 L1.615,28.532 C1.615,28.526 1.615,28.532 1.615,28.532 C1.615,28.532 1.615,28.532 1.615,28.532 L1.615,28.532 C1.615,28.532 1.615,28.532 1.615,28.532 C1.615,28.532 1.615,28.532 1.615,28.532 L1.615,28.532 C1.615,28.532 1.615,28.532 1.615,28.532 C1.615,28.532 1.615,28.532 1.615,28.532 L1.615,28.532 C1.615,28.532 1.615,28.532 1.615,28.532 C1.615,28.532 1.615,28.532 1.615,28.532 C1.615,28.532 1.615,28.532 1.615,28.532 C1.615,28.532 1.615,28.532 1.615,28.532 C1.615,28.532 1.615,28.532 1.615,28.532 C1.615,28.532 1.615,28.532 1.615,28.532 C1.615,28.532 1.615,28.532 1.615,28.532 L1.615,28.532 C1.615,28.532 1.615,28.532 1.615,28.532 C1.615,28.532 1.615,28.526 1.615,28.532 C1.615,28.538 1.615,28.532 1.615,28.532 L1.615,28.532 C1.60980892,28.5271493 1.60511867,28.521789 1.601,28.516 L1.601,28.516 L1.601,28.516 L1.601,28.516 C1.601,28.516 1.601,28.516 1.601,28.516 C1.601,28.516 1.601,28.516 1.601,28.516 L1.601,28.516 L1.601,28.516 C1.601,28.516 1.601,28.516 1.601,28.516 C1.601,28.516 1.601,28.516 1.601,28.516 C1.601,28.516 1.601,28.516 1.601,28.516 C1.601,28.516 1.601,28.516 1.601,28.516 C1.601,28.516 1.601,28.516 1.601,28.516 L1.601,28.516 L1.601,28.516 C1.601,28.516 1.601,28.516 1.601,28.516 L1.601,28.516 C1.601,28.516 1.601,28.516 1.601,28.516 C1.601,28.516 1.601,28.516 1.601,28.516 L1.601,28.516 C1.601,28.516 1.601,28.516 1.601,28.516 C1.601,28.516 1.601,28.516 1.601,28.516 L1.601,28.516 C1.601,28.516 1.601,28.516 1.601,28.516 L1.601,28.516 C1.601,28.516 1.601,28.516 1.601,28.516 L1.601,28.516 L1.601,28.516 C1.601,28.516 1.601,28.516 1.601,28.516 C1.601,28.516 1.601,28.516 1.601,28.516 L1.601,28.516 L1.601,28.516 C1.601,28.51 1.601,28.516 1.601,28.516 L1.601,28.516 L1.601,28.516 L1.573,28.481 L1.573,28.481 L1.564,28.469 L1.564,28.469 L1.564,28.469 L1.564,28.469 L1.564,28.469 C1.564,28.469 1.564,28.469 1.564,28.469 C1.564,28.469 1.564,28.469 1.564,28.469 C1.564,28.469 1.564,28.469 1.564,28.469 L1.564,28.469 L1.564,28.469 L1.564,28.469 L1.564,28.469 C1.564,28.469 1.564,28.469 1.564,28.469 L1.564,28.469 C1.564,28.469 1.564,28.469 1.564,28.469 L1.509,28.399 L1.509,28.399 L1.509,28.399 L1.509,28.399 C1.509,28.399 1.509,28.399 1.509,28.399 L1.509,28.399 L1.509,28.399 L1.509,28.399 L1.509,28.399 L1.509,28.399 L1.509,28.399 L1.509,28.399 L1.509,28.399 C1.441,28.307 1.375,28.212 1.309,28.116 L2.991,27.034 C3.42989765,27.7145846 4.12390181,28.1902261 4.917,28.354 L4.006,29.902 Z M2,24.855 L0,24.855 L0,20.855 L2,20.855 L2,24.855 Z M2,17.855 L0,17.855 L0,13.855 L2,13.855 L2,17.855 Z M2,10.855 L0,10.855 L0,6.855 L2,6.855 L2,10.855 Z M2.078,4.316 L0.13,3.865 C0.252712344,3.33665142 0.461138231,2.83197027 0.747,2.371 L0.747,2.371 C0.747,2.371 0.747,2.371 0.747,2.371 L0.747,2.371 L0.747,2.371 L0.747,2.371 L0.747,2.371 L0.747,2.371 C0.747,2.371 0.747,2.371 0.747,2.371 L0.747,2.371 L0.784,2.312 L0.784,2.312 L0.784,2.312 L0.784,2.312 L0.784,2.312 L0.784,2.312 C0.784,2.312 0.784,2.312 0.784,2.312 C0.784,2.312 0.784,2.312 0.784,2.312 L0.784,2.312 L0.784,2.312 L0.784,2.312 L0.784,2.312 C0.784,2.312 0.784,2.312 0.784,2.312 C0.784,2.312 0.784,2.312 0.784,2.312 L0.784,2.312 C0.784,2.312 0.784,2.306 0.784,2.312 C0.784,2.318 0.784,2.312 0.784,2.312 L0.784,2.312 C0.784,2.312 0.784,2.312 0.784,2.312 C0.784,2.312 0.784,2.312 0.784,2.312 L0.784,2.312 L0.784,2.312 C0.784,2.312 0.784,2.312 0.784,2.312 C0.784,2.312 0.784,2.312 0.784,2.312 C0.784,2.312 0.784,2.312 0.784,2.312 C0.784,2.312 0.784,2.312 0.784,2.312 L0.784,2.312 C0.784,2.312 0.784,2.312 0.784,2.312 C0.784,2.312 0.784,2.312 0.784,2.312 C0.784,2.312 0.784,2.312 0.784,2.312 C0.784,2.312 0.784,2.312 0.784,2.312 L0.784,2.312 L0.784,2.312 L0.784,2.312 L0.784,2.306 L0.784,2.306 L0.793,2.292 L0.793,2.292 C0.793,2.292 0.793,2.292 0.793,2.292 L0.793,2.292 C0.793,2.292 0.793,2.286 0.793,2.292 L0.793,2.292 L0.793,2.292 C0.793,2.292 0.793,2.286 0.793,2.292 C0.793,2.298 0.793,2.292 0.793,2.292 C0.793,2.292 0.793,2.292 0.793,2.292 C0.793,2.292 0.793,2.292 0.793,2.292 C0.793,2.292 0.793,2.286 0.793,2.292 C0.793,2.298 0.793,2.292 0.793,2.292 L0.793,2.292 C0.793,2.292 0.793,2.292 0.793,2.292 C0.793,2.292 0.793,2.292 0.793,2.292 C0.793,2.292 0.793,2.292 0.793,2.292 C0.793,2.292 0.793,2.292 0.793,2.292 L0.793,2.292 C0.793,2.292 0.793,2.286 0.793,2.292 C0.793,2.298 0.793,2.292 0.793,2.292 C0.793,2.292 0.793,2.292 0.793,2.292 L0.793,2.292 C0.793,2.292 0.793,2.292 0.793,2.292 C0.793,2.292 0.793,2.292 0.793,2.292 L0.793,2.292 C0.793,2.292 0.793,2.292 0.793,2.292 C0.793,2.292 0.793,2.292 0.793,2.292 C0.793,2.292 0.793,2.292 0.793,2.292 L0.793,2.292 C0.793,2.292 0.793,2.292 0.793,2.292 C0.793,2.292 0.793,2.286 0.793,2.292 C0.793,2.298 0.793,2.292 0.793,2.292 C0.793,2.292 0.793,2.292 0.793,2.292 C0.793,2.292 0.793,2.292 0.793,2.292 C0.798223512,2.28337378 0.803898049,2.27502888 0.81,2.267 L0.81,2.267 L0.81,2.267 L0.81,2.267 L0.81,2.267 L0.81,2.267 L0.81,2.267 C0.81,2.267 0.81,2.267 0.81,2.267 C0.81,2.267 0.81,2.267 0.81,2.267 L0.81,2.267 C0.81,2.267 0.81,2.267 0.81,2.267 L0.81,2.267 L0.81,2.267 C0.81,2.267 0.81,2.267 0.81,2.267 L0.81,2.267 L0.81,2.267 C0.81,2.267 0.81,2.267 0.81,2.267 L0.81,2.267 L0.81,2.267 L0.81,2.267 L0.81,2.267 L0.81,2.267 L0.81,2.267 L0.81,2.267 L0.81,2.267 L0.81,2.267 L0.81,2.261 L0.81,2.261 L0.819,2.249 L0.819,2.249 C0.831,2.233 0.843,2.218 0.855,2.2 L0.855,2.2 C1.24312446,1.68127393 1.72763665,1.24225903 2.282,0.907 L3.316,2.62 C2.7133622,3.02021741 2.27441081,3.62346507 2.079,4.32 L2.078,4.316 Z M9.289,2 L5.289,2 L5.289,0 L9.289,0 L9.289,2 Z M16.289,2 L12.289,2 L12.289,0 L16.289,0 L16.289,2 Z M23.289,2 L19.289,2 L19.289,0 L23.289,0 L23.289,2 Z M27.616,3.529 C27.216252,2.8229503 26.5497093,2.30701021 25.766,2.097 L26.275,0.163 C26.3923333,0.194333333 26.5076667,0.229333333 26.621,0.268 L26.621,0.268 C26.621,0.268 26.621,0.268 26.621,0.268 L26.621,0.268 C26.621,0.268 26.621,0.268 26.621,0.268 C26.621,0.268 26.621,0.268 26.621,0.268 C26.621,0.268 26.621,0.268 26.621,0.268 L26.621,0.268 L26.621,0.268 C26.621,0.268 26.621,0.268 26.621,0.268 C26.621,0.268 26.621,0.268 26.621,0.268 C26.621,0.268 26.621,0.268 26.621,0.268 C26.621,0.268 26.621,0.268 26.621,0.268 C26.621,0.268 26.621,0.268 26.621,0.268 L26.621,0.268 L26.621,0.268 L26.621,0.268 C26.621,0.268 26.621,0.268 26.621,0.268 L26.621,0.268 L26.621,0.268 L26.621,0.268 L26.631,0.268 L26.631,0.268 C26.6329243,0.267221598 26.6350757,0.267221598 26.637,0.268 L26.637,0.268 C26.637,0.268 26.637,0.268 26.637,0.268 C26.637,0.268 26.637,0.268 26.637,0.268 C26.637,0.268 26.637,0.268 26.637,0.268 C26.637,0.268 26.637,0.268 26.637,0.268 C26.637,0.268 26.637,0.268 26.637,0.268 L26.637,0.268 C26.637,0.268 26.637,0.274 26.637,0.268 C26.637,0.262 26.637,0.268 26.637,0.268 L26.637,0.268 C26.637,0.268 26.637,0.268 26.637,0.268 C26.637,0.268 26.637,0.268 26.637,0.268 C26.637,0.268 26.637,0.268 26.637,0.268 L26.637,0.268 C26.637,0.268 26.637,0.268 26.637,0.268 C26.637,0.268 26.637,0.268 26.637,0.268 L26.637,0.268 C26.637,0.268 26.637,0.268 26.637,0.268 L26.637,0.268 L26.637,0.268 L26.637,0.268 C27.3004087,0.518766726 27.902534,0.908477467 28.403,1.411 L28.403,1.411 L28.403,1.411 C28.403,1.411 28.403,1.411 28.403,1.411 C28.403,1.411 28.403,1.411 28.403,1.411 C28.403,1.411 28.403,1.411 28.403,1.411 L28.403,1.411 L28.403,1.411 L28.403,1.411 C28.403,1.411 28.403,1.411 28.403,1.411 C28.403,1.411 28.403,1.411 28.403,1.411 C28.403,1.411 28.403,1.411 28.403,1.411 L28.403,1.411 C28.403,1.411 28.403,1.417 28.403,1.411 L28.403,1.411 L28.403,1.411 L28.403,1.411 C28.403,1.411 28.403,1.411 28.403,1.411 L28.403,1.411 L28.408,1.417 L28.408,1.417 L28.428,1.438 L28.428,1.438 C28.428,1.438 28.428,1.438 28.428,1.438 L28.428,1.438 L28.428,1.438 L28.428,1.438 L28.428,1.438 C28.428,1.438 28.428,1.438 28.428,1.438 C28.428,1.438 28.428,1.438 28.428,1.438 L28.428,1.438 L28.428,1.438 C28.428,1.438 28.428,1.438 28.428,1.438 L28.428,1.438 L28.428,1.438 C28.428,1.438 28.428,1.438 28.428,1.438 C28.428,1.438 28.428,1.438 28.428,1.438 C28.428,1.438 28.428,1.438 28.428,1.438 L28.428,1.438 C28.428,1.438 28.428,1.438 28.428,1.438 L28.428,1.438 C28.428,1.438 28.428,1.438 28.428,1.438 C28.428,1.438 28.428,1.438 28.428,1.438 C28.428,1.438 28.428,1.438 28.428,1.438 C28.428,1.438 28.428,1.438 28.428,1.438 L28.428,1.438 C28.428,1.438 28.428,1.438 28.428,1.438 C28.428,1.438 28.428,1.438 28.428,1.438 C28.428,1.438 28.428,1.438 28.428,1.438 C28.428,1.438 28.428,1.438 28.428,1.438 L28.428,1.438 C28.428,1.438 28.428,1.438 28.428,1.438 L28.428,1.438 C28.428,1.438 28.428,1.438 28.428,1.438 C28.428,1.438 28.428,1.438 28.428,1.438 L28.428,1.438 L28.428,1.438 C28.428,1.438 28.428,1.438 28.428,1.438 C28.428,1.438 28.428,1.438 28.428,1.438 C28.4345251,1.44417468 28.4405444,1.4508628 28.446,1.458 C28.446,1.458 28.446,1.458 28.446,1.458 C28.446,1.458 28.446,1.458 28.446,1.458 C28.446,1.458 28.446,1.458 28.446,1.458 C28.446,1.458 28.446,1.458 28.446,1.458 L28.446,1.458 L28.446,1.458 L28.446,1.458 C28.446,1.458 28.446,1.464 28.446,1.458 L28.446,1.458 C28.446,1.458 28.446,1.458 28.446,1.458 L28.446,1.458 C28.446,1.458 28.446,1.458 28.446,1.458 C28.446,1.458 28.446,1.458 28.446,1.458 L28.446,1.458 L28.446,1.458 C28.446,1.458 28.446,1.458 28.446,1.458 C28.446,1.458 28.446,1.458 28.446,1.458 L28.446,1.458 C28.446,1.458 28.446,1.458 28.446,1.458 C28.446,1.458 28.446,1.458 28.446,1.458 L28.446,1.458 C28.446,1.458 28.446,1.458 28.446,1.458 L28.446,1.458 L28.446,1.458 L28.446,1.458 C28.6930828,1.73184834 28.9093766,2.03197703 29.091,2.353 L27.616,3.529 Z M30.001,9.429 L28.001,9.429 L28.001,5.429 L30.001,5.429 L30.001,9.429 Z M30.001,16.429 L28.001,16.429 L28.001,12.429 L30.001,12.429 L30.001,16.429 Z M30.001,23.429 L28.001,23.429 L28.001,19.429 L30.001,19.429 L30.001,23.429 Z M27.327,29.421 L26.394,27.651 C27.1116196,27.27258 27.6468068,26.6213454 27.879,25.844 L29.797,26.408 L29.797,26.408 C29.797,26.408 29.797,26.408 29.797,26.408 L29.797,26.408 C29.797,26.408 29.797,26.408 29.797,26.408 C29.797,26.408 29.797,26.408 29.797,26.408 L29.797,26.408 L29.797,26.408 L29.797,26.408 L29.797,26.408 L29.797,26.408 L29.797,26.408 L29.797,26.408 L29.797,26.408 L29.797,26.408 L29.797,26.408 L29.797,26.408 L29.797,26.408 L29.797,26.408 L29.797,26.408 L29.797,26.416 L29.797,26.416 L29.788,26.445 L29.788,26.445 C29.788,26.445 29.788,26.453 29.788,26.445 C29.788,26.437 29.788,26.445 29.788,26.445 L29.788,26.445 C29.788,26.445 29.788,26.445 29.788,26.445 L29.788,26.445 C29.788,26.445 29.788,26.445 29.788,26.445 L29.788,26.445 C29.788,26.445 29.788,26.445 29.788,26.445 C29.788,26.445 29.788,26.445 29.788,26.445 L29.788,26.445 L29.788,26.445 L29.788,26.445 L29.788,26.445 L29.788,26.445 C29.788,26.445 29.788,26.445 29.788,26.445 L29.788,26.445 C29.788,26.445 29.788,26.445 29.788,26.445 C29.788,26.445 29.788,26.445 29.788,26.445 C29.788,26.445 29.788,26.445 29.788,26.445 C29.788,26.445 29.788,26.445 29.788,26.445 C29.788,26.445 29.788,26.445 29.788,26.445 C29.788,26.445 29.788,26.445 29.788,26.445 C29.788,26.445 29.788,26.445 29.788,26.445 C29.788,26.445 29.788,26.445 29.788,26.445 C29.788,26.445 29.788,26.445 29.788,26.445 C29.788,26.445 29.788,26.445 29.788,26.445 C29.788,26.445 29.788,26.445 29.788,26.445 C29.788,26.445 29.788,26.445 29.788,26.445 C29.788,26.445 29.788,26.445 29.788,26.445 C29.788,26.445 29.788,26.445 29.788,26.445 L29.788,26.445 L29.788,26.445 L29.788,26.445 C29.788,26.445 29.788,26.445 29.788,26.445 C29.788,26.445 29.788,26.445 29.788,26.445 L29.788,26.445 C29.788,26.445 29.788,26.445 29.788,26.445 C29.788,26.445 29.788,26.445 29.788,26.445 L29.788,26.445 C29.788,26.453 29.788,26.461 29.781,26.466 L29.781,26.466 L29.781,26.466 L29.781,26.466 L29.781,26.466 L29.781,26.466 L29.781,26.466 C29.781,26.466 29.781,26.466 29.781,26.466 L29.781,26.466 C29.781,26.466 29.781,26.466 29.781,26.466 C29.781,26.466 29.781,26.466 29.781,26.466 C29.781,26.466 29.781,26.466 29.781,26.466 L29.781,26.466 L29.781,26.466 L29.781,26.466 L29.781,26.466 L29.781,26.466 C29.781,26.466 29.781,26.466 29.781,26.466 C29.781,26.466 29.781,26.466 29.781,26.466 C29.781,26.466 29.781,26.466 29.781,26.466 L29.781,26.472 L29.781,26.472 L29.781,26.472 L29.781,26.472 C29.7807109,26.4746588 29.7807109,26.4773412 29.781,26.48 L29.781,26.48 C29.781,26.48 29.781,26.48 29.781,26.48 L29.781,26.48 L29.781,26.48 L29.781,26.48 C29.775,26.498 29.769,26.515 29.763,26.531 L29.763,26.531 C29.7632972,26.5336584 29.7632972,26.5363416 29.763,26.539 L29.763,26.539 C29.7627028,26.5416584 29.7627028,26.5443416 29.763,26.547 L29.763,26.547 C29.5292167,27.1760736 29.1714769,27.7517898 28.711,28.24 L28.711,28.24 C28.7088844,28.243166 28.706166,28.2458844 28.703,28.248 L28.703,28.248 L28.703,28.248 L28.703,28.248 C28.687,28.264 28.672,28.279 28.656,28.297 C28.656,28.297 28.656,28.297 28.656,28.297 L28.656,28.297 C28.656,28.297 28.656,28.297 28.656,28.297 C28.656,28.297 28.656,28.297 28.656,28.297 L28.656,28.297 C28.656,28.297 28.656,28.303 28.656,28.297 C28.656,28.291 28.656,28.297 28.656,28.297 C28.656,28.297 28.656,28.297 28.656,28.297 C28.656,28.297 28.656,28.297 28.656,28.297 L28.656,28.297 C28.656,28.297 28.656,28.297 28.656,28.297 C28.656,28.297 28.656,28.297 28.656,28.297 C28.656,28.297 28.656,28.297 28.656,28.297 C28.656,28.297 28.656,28.297 28.656,28.297 C28.656,28.297 28.656,28.297 28.656,28.297 C28.656,28.297 28.656,28.297 28.656,28.297 L28.656,28.297 C28.656,28.297 28.656,28.297 28.656,28.297 C28.656,28.297 28.656,28.297 28.656,28.297 L28.656,28.297 L28.656,28.297 C28.656,28.297 28.656,28.297 28.656,28.297 C28.656,28.297 28.656,28.297 28.656,28.297 L28.656,28.297 C28.656,28.297 28.656,28.297 28.656,28.297 C28.656,28.297 28.656,28.297 28.656,28.297 L28.635,28.317 L28.635,28.317 C28.635,28.317 28.635,28.317 28.635,28.317 L28.635,28.317 L28.635,28.317 C28.635,28.317 28.635,28.317 28.635,28.317 L28.635,28.317 L28.635,28.317 C28.635,28.317 28.635,28.317 28.635,28.317 C28.635,28.317 28.635,28.317 28.635,28.317 L28.635,28.317 L28.635,28.317 C28.635,28.317 28.635,28.317 28.635,28.317 C28.635,28.317 28.635,28.317 28.635,28.317 L28.635,28.317 C28.635,28.317 28.635,28.317 28.635,28.317 L28.635,28.317 C28.635,28.317 28.635,28.317 28.635,28.317 C28.635,28.317 28.635,28.317 28.635,28.317 C28.635,28.317 28.635,28.317 28.635,28.317 L28.635,28.317 C28.635,28.317 28.635,28.317 28.635,28.317 C28.635,28.317 28.635,28.317 28.635,28.317 L28.635,28.317 L28.635,28.317 C28.635,28.317 28.635,28.317 28.635,28.317 C28.635,28.317 28.635,28.317 28.635,28.317 L28.635,28.317 C28.635,28.317 28.635,28.317 28.635,28.317 L28.635,28.317 C28.635,28.317 28.635,28.317 28.635,28.317 L28.635,28.317 C28.635,28.317 28.635,28.317 28.635,28.317 C28.635,28.317 28.635,28.317 28.635,28.317 C28.635,28.317 28.635,28.317 28.635,28.317 C28.635,28.317 28.635,28.317 28.635,28.317 L28.635,28.317 C28.635,28.317 28.635,28.317 28.635,28.317 L28.635,28.317 C28.635,28.317 28.635,28.317 28.635,28.317 L28.626,28.327 L28.626,28.327 C28.626,28.327 28.626,28.327 28.626,28.327 L28.626,28.327 L28.626,28.327 C28.626,28.327 28.626,28.327 28.626,28.327 C28.626,28.327 28.626,28.327 28.626,28.327 C28.626,28.327 28.626,28.327 28.626,28.327 C28.626,28.327 28.626,28.327 28.626,28.327 L28.626,28.327 C28.626,28.327 28.626,28.327 28.626,28.327 C28.626,28.327 28.626,28.327 28.626,28.327 C28.626,28.327 28.626,28.327 28.626,28.327 C28.626,28.327 28.626,28.327 28.626,28.327 L28.626,28.327 C28.626,28.327 28.626,28.327 28.626,28.327 C28.626,28.327 28.626,28.327 28.626,28.327 L28.626,28.327 L28.626,28.327 C28.626,28.327 28.626,28.327 28.626,28.327 C28.626,28.327 28.626,28.327 28.626,28.327 C28.626,28.327 28.626,28.327 28.626,28.327 C28.626,28.327 28.626,28.327 28.626,28.327 C28.626,28.327 28.626,28.327 28.626,28.327 C28.626,28.327 28.626,28.327 28.626,28.327 C28.626,28.327 28.626,28.327 28.626,28.327 L28.626,28.327 C28.626,28.327 28.626,28.327 28.626,28.327 C28.626,28.327 28.626,28.327 28.626,28.327 L28.626,28.327 L28.626,28.327 L28.626,28.327 C28.626,28.327 28.626,28.327 28.626,28.327 L28.626,28.327 C28.6228414,28.3308527 28.6191354,28.3342218 28.615,28.337 C28.615,28.337 28.615,28.337 28.615,28.337 C28.615,28.337 28.615,28.337 28.615,28.337 L28.615,28.337 L28.615,28.337 L28.615,28.337 C28.615,28.337 28.615,28.337 28.615,28.337 L28.615,28.337 L28.615,28.337 C28.615,28.337 28.615,28.337 28.615,28.337 C28.615,28.337 28.615,28.337 28.615,28.337 L28.615,28.337 L28.615,28.337 C28.615,28.337 28.615,28.337 28.615,28.337 L28.615,28.337 C28.615,28.337 28.615,28.337 28.615,28.337 L28.615,28.337 C28.615,28.337 28.615,28.337 28.615,28.337 L28.615,28.337 C28.615,28.337 28.615,28.337 28.615,28.337 L28.615,28.337 L28.615,28.337 L28.615,28.337 C28.615,28.337 28.615,28.337 28.615,28.337 L28.615,28.337 L28.615,28.337 L28.615,28.337 L28.615,28.337 C28.615,28.343 28.615,28.337 28.615,28.337 L28.615,28.337 C28.615,28.337 28.615,28.337 28.615,28.337 L28.615,28.337 L28.583,28.366 L28.583,28.366 L28.583,28.366 L28.583,28.366 C28.583,28.366 28.583,28.366 28.583,28.366 C28.583,28.366 28.583,28.366 28.583,28.366 C28.583,28.366 28.583,28.366 28.583,28.366 C28.583,28.366 28.583,28.366 28.583,28.366 C28.583,28.366 28.583,28.366 28.583,28.366 L28.583,28.366 C28.583,28.366 28.583,28.366 28.583,28.366 C28.583,28.366 28.583,28.366 28.583,28.366 C28.583,28.366 28.583,28.366 28.583,28.366 C28.583,28.366 28.583,28.366 28.583,28.366 L28.583,28.366 C28.583,28.366 28.583,28.366 28.583,28.366 L28.583,28.366 C28.583,28.366 28.583,28.366 28.583,28.366 L28.583,28.366 L28.583,28.366 L28.583,28.366 C28.583,28.366 28.583,28.366 28.583,28.366 L28.583,28.366 L28.583,28.366 L28.583,28.366 C28.583,28.366 28.583,28.366 28.583,28.366 L28.583,28.366 L28.583,28.366 L28.529,28.411 L28.529,28.411 L28.529,28.411 L28.529,28.411 C28.529,28.411 28.529,28.411 28.529,28.411 C28.529,28.411 28.529,28.411 28.529,28.411 C28.529,28.411 28.529,28.411 28.529,28.411 L28.529,28.411 L28.529,28.411 L28.529,28.411 L28.529,28.411 L28.529,28.411 C28.529,28.411 28.529,28.411 28.529,28.411 L28.529,28.411 C28.529,28.411 28.529,28.411 28.529,28.411 L28.529,28.411 C28.1859324,28.8125186 27.780808,29.1565368 27.329,29.43 L27.327,29.421 Z" id="Union_310" fill="#0173C7" fill-rule="nonzero"></path>
                    <path d="M16.902,8.043 L21.963,13.104 L12.025,23.043 C11.7478696,23.3201269 11.4031584,23.5200594 11.025,23.623 L5.909,25.023 C5.64930912,25.093872 5.37155404,25.0201353 5.18120936,24.8297906 C4.99086468,24.639446 4.91712798,24.3616909 4.988,24.102 L6.388,18.986 C6.49094063,18.6078416 6.6908731,18.2631304 6.968,17.986 L16.902,8.043 Z M23.993,6.013 C24.6642939,6.6840435 25.041444,7.5943241 25.041444,8.5435 C25.041444,9.4926759 24.6642939,10.4029565 23.993,11.074 L23.023,12.043 L17.963,6.983 L18.933,6.013 C20.3302895,4.6157415 22.5957105,4.6157415 23.993,6.013 Z" id="_-Color" fill="#0173C7" fill-rule="nonzero"></path>
                </g>
            </g>
        </g>
        <g id="revisions---plan-add---light" transform="translate(207.000000, 221.000000)">
            <mask id="mask-14" fill="white">
                <use xlink:href="#path-13"></use>
            </mask>
            <g id="Rectangle"></g>
            <g id="revisions_-_plan_add_-_light" mask="url(#mask-14)">
                <g transform="translate(-0.000000, -0.003000)" id="Group_1006">
                    <path d="M3,2.003 L30,2.003 L30,28.003 L3,28.003 C1.34314575,28.003 2.27373675e-13,26.6598542 2.27373675e-13,25.003 L2.27373675e-13,5.003 C2.27373675e-13,3.34614575 1.34314575,2.003 3,2.003 Z" id="Rectangle_465" fill="#309048" fill-rule="nonzero"></path>
                    <polygon id="Union_48" fill="#FFFFFF" fill-rule="nonzero" points="15.998 22.003 15.998 16.003 9.998 16.003 9.998 13.003 15.998 13.003 15.998 7.003 18.998 7.003 18.998 13.003 24.998 13.003 24.998 16.003 18.998 16.003 18.998 22.003"></polygon>
                    <path d="M6,25.303 L6,25.303 C5.99559004,23.6492708 4.65373508,22.3109941 3,22.311 C1.3826001,22.3025637 0.0525198353,23.583431 0,25.2 L0,9.4 L0,3 C0,1.34314575 1.34314575,0 3,0 C4.65685425,0 6,1.34314575 6,3 L6,25.3 L6,25.303 Z" id="Subtraction_12" fill="#0E6123" fill-rule="nonzero"></path>
                </g>
            </g>
        </g>
        <g id="report-preview---page-colour---light" transform="translate(384.000000, 131.000000)">
            <mask id="mask-16" fill="white">
                <use xlink:href="#path-15"></use>
            </mask>
            <g id="Rectangle"></g>
            <g id="report_preview_-_page_colour_-_light" mask="url(#mask-16)">
                <g transform="translate(5.000000, -0.004000)" id="Group_743">
                    <g id="Group_739" fill-rule="nonzero">
                        <polygon id="Subtraction_8" fill="#FFFFFF" points="21 30.004 0 30.004 0 0.004 14 0.004 21 7.004"></polygon>
                        <path d="M20,29.004 L20,7.416 L13.586,1 L1,1 L1,29 L20,29 M21,30 L0,30 L0,0 L14,0 L21,7 L21,30 Z" id="Subtraction_8_-_Outline" fill="#000000"></path>
                    </g>
                    <polygon id="Union_28" fill="#2A2E31" fill-rule="nonzero" points="13 8.004 13 0.004 14 0.004 14 7.004 21 7.004 21 8.004"></polygon>
                    <g id="Mask_Group_35-Clipped" transform="translate(0.001000, 0.002000)">
                        <mask id="mask-18" fill="white">
                            <use xlink:href="#path-17"></use>
                        </mask>
                        <g id="Subtraction_20"></g>
                        <g id="Mask_Group_35" mask="url(#mask-18)">
                            <g transform="translate(0.999000, 1.002000)" id="Group_1123">
                                <rect id="Rectangle_1196" fill="#3A484D" fill-rule="nonzero" x="0" y="0" width="6" height="7"></rect>
                                <rect id="Rectangle_1202" fill="#8C4081" fill-rule="nonzero" x="6" y="0" width="7" height="7"></rect>
                                <rect id="Rectangle_1206" fill="#FE00FD" fill-rule="nonzero" x="13" y="0" width="6" height="7"></rect>
                                <rect id="Rectangle_1197" fill="#466A76" fill-rule="nonzero" x="0" y="7" width="6" height="7"></rect>
                                <rect id="Rectangle_1203" fill="#8B788B" fill-rule="nonzero" x="6" y="7" width="7" height="7"></rect>
                                <rect id="Rectangle_1207" fill="#FF4E81" fill-rule="nonzero" x="13" y="7" width="6" height="7"></rect>
                                <rect id="Rectangle_1198" fill="#30BFCF" fill-rule="nonzero" x="0" y="14" width="6" height="7"></rect>
                                <rect id="Rectangle_1201" fill="#97C77D" fill-rule="nonzero" x="6" y="14" width="7" height="7"></rect>
                                <rect id="Rectangle_1205" fill="#FE993E" fill-rule="nonzero" x="13" y="14" width="6" height="7"></rect>
                                <rect id="Rectangle_1199" fill="#00FEFE" fill-rule="nonzero" x="0" y="21" width="6" height="7"></rect>
                                <rect id="Rectangle_1200" fill="#8DFC66" fill-rule="nonzero" x="6" y="21" width="7" height="7"></rect>
                                <rect id="Rectangle_1204" fill="#FEFE00" fill-rule="nonzero" x="13" y="21" width="6" height="7"></rect>
                            </g>
                        </g>
                    </g>
                </g>
            </g>
        </g>
        <g id="plan---rotate-left---light" transform="translate(33.000000, 104.000000)">
            <mask id="mask-20" fill="white">
                <use xlink:href="#path-19"></use>
            </mask>
            <g id="Rectangle"></g>
            <g id="plan_-_rotate_left_-_light" mask="url(#mask-20)" fill="#0173C7" fill-rule="nonzero">
                <g transform="translate(-0.001098, -0.001000)" id="_-Color">
                    <path d="M1.37409774,0.809 L1.37409774,3.669 C1.37409774,4.11579836 1.73629938,4.478 2.18309774,4.478 L5.04309774,4.478 C5.4898961,4.478 5.85209774,4.11579836 5.85209774,3.669 C5.85209774,3.22220164 5.4898961,2.86 5.04309774,2.86 L4.37709774,2.86 C6.67067567,1.48988323 9.60988694,1.90945604 11.4284996,3.86658858 C13.2471122,5.82372111 13.4501866,8.78577531 11.9156913,10.9727924 C10.381196,13.1598095 7.52674725,13.9765878 5.0676416,12.9323086 C2.60853594,11.8880294 1.21402455,9.2668956 1.72209774,6.644 C1.80659729,6.20520977 1.51938796,5.78099958 1.08059773,5.69650002 C0.641807507,5.61200045 0.217597313,5.89920977 0.133097738,6.338 C-0.530843327,9.77195643 1.34104736,13.1927604 4.5911553,14.4849186 C7.84126324,15.7770768 11.5509472,14.5753614 13.4260646,11.6229372 C15.3011821,8.67051292 14.8117321,4.80188094 12.2604003,2.40948033 C9.70906856,0.0170797236 5.81698755,-0.222878756 2.99109774,1.838 L2.99109774,0.809 C2.99109774,0.362201637 2.6288961,0 2.18209774,0 C1.73529938,0 1.37309774,0.362201637 1.37309774,0.809 L1.37409774,0.809 Z"></path>
                </g>
            </g>
        </g>
        <g id="job-manager-application-menu---settings---light" transform="translate(313.000000, 13.000000)">
            <mask id="mask-22" fill="white">
                <use xlink:href="#path-21"></use>
            </mask>
            <g id="Rectangle"></g>
            <g id="job_manager_application_menu_-_settings_-_light" mask="url(#mask-22)" fill="#0173C7" fill-rule="nonzero">
                <g transform="translate(2.504042, 1.500000)" id="Subtraction_10">
                    <path d="M12.8719584,27 C11.8503273,26.998923 10.8322422,26.8797997 9.8379584,26.645 C9.58976308,26.5831087 9.40579151,26.3740501 9.3759584,26.12 L9.1369584,23.933 C9.04791176,23.1648058 8.60365649,22.482874 7.9369584,22.091 C7.56807345,21.8781688 7.14983705,21.7657656 6.7239584,21.765 C6.38860788,21.7641454 6.05691951,21.8347102 5.7509584,21.972 L3.7449584,22.853 C3.66963405,22.886216 3.58828018,22.903576 3.5059584,22.904 C3.33814926,22.9019414 3.17804925,22.8332243 3.0609584,22.713 C1.66963011,21.2073827 0.632954103,19.4094298 0.0269583968,17.451 C-0.0467229749,17.2050434 0.0406847463,16.9392281 0.245958397,16.785 L2.0169584,15.473 C2.64211312,15.0119165 3.01108934,14.2812988 3.01108934,13.5045 C3.01108934,12.7277012 2.64211312,11.9970835 2.0169584,11.536 L0.245958397,10.224 C0.038840094,10.0701949 -0.0488971041,9.80257643 0.0269583968,9.556 C0.630847233,7.59933139 1.669418,5.80456624 3.0649584,4.306 C3.1758623,4.17892261 3.33629204,4.106 3.5049584,4.106 C3.58859524,4.10618923 3.67130271,4.12354759 3.7479584,4.157 L5.7409584,5.042 C6.04882749,5.17362994 6.38013053,5.24165931 6.7149584,5.242 C7.14568567,5.24326405 7.56881532,5.12858728 7.9399584,4.91 C8.60781279,4.51741962 9.0522593,3.83371275 9.1399584,3.064 L9.3829584,0.875 C9.41035642,0.617512311 9.59984993,0.40665039 9.8529584,0.352 C10.8497022,0.131869029 11.866291,0.0139259608 12.8869584,0 C13.8996072,0.0102309401 14.90829,0.128229069 15.8959584,0.352 C16.1490669,0.40665039 16.3385604,0.617512311 16.3659584,0.875 L16.6089584,3.064 C16.6897179,3.83593603 17.1342215,4.52290831 17.8052798,4.91289301 C18.4763381,5.30287771 19.2932763,5.34899074 20.0039584,5.037 L21.9969584,4.152 C22.2324734,4.04876566 22.5075873,4.10708658 22.6809584,4.297 C24.0749957,5.7966783 25.1133564,7.59108046 25.7189584,9.547 C25.7938048,9.79454601 25.7068686,10.0625328 25.5009584,10.219 L23.7299584,11.532 C23.1021319,11.9906655 22.7309716,12.7214782 22.7309716,13.499 C22.7309716,14.2765218 23.1021319,15.0073345 23.7299584,15.466 L25.5009584,16.777 C25.7088397,16.9320787 25.7975492,17.2006046 25.7229584,17.449 C25.115054,19.4045042 24.0769925,21.1990727 22.6849584,22.701 C22.5723908,22.8249487 22.4123904,22.8951307 22.2449584,22.894 C22.1613215,22.8938108 22.0786141,22.8764524 22.0019584,22.843 L20.0019584,21.96 C19.2885682,21.6489574 18.4700688,21.6938321 17.7949584,22.081 C17.1253221,22.4714341 16.6837974,23.1595728 16.6079584,23.931 L16.3689584,26.119 C16.3395417,26.3728934 16.1559186,26.5820086 15.9079584,26.644 C14.9131724,26.8799103 13.8943343,26.9993788 12.8719584,27 Z M12.8719584,8.26398066 C10.6112126,8.25788199 8.60204596,9.70398931 7.89010071,11.849716 C7.17815546,13.9954427 7.92435832,16.3557728 9.74035865,17.7023061 C11.556359,19.0488395 14.0316715,19.0772081 15.8780551,17.7726481 C17.7244387,16.4680881 18.5245403,14.1254797 17.8619584,11.964 C17.1897486,9.77000888 15.1666105,8.26988644 12.8719584,8.26398066 Z"></path>
                </g>
            </g>
        </g>
        <g id="job-manager-application-menu---licence-key---light" transform="translate(287.000000, 125.000000)">
            <mask id="mask-24" fill="white">
                <use xlink:href="#path-23"></use>
            </mask>
            <g id="Rectangle"></g>
            <g id="job_manager_application_menu_-_licence_key_-_light" mask="url(#mask-24)" fill="#A6A6A6" fill-rule="nonzero">
                <g transform="translate(-0.000000, -0.001794)" id="ic_fluent_key_24_filled">
                    <path d="M10.5,9.82579407 C10.5033104,4.40057776 14.9007834,0.00355229807 20.326,0.000794068235 C22.9156887,-0.0323220022 25.411079,0.971565973 27.2563553,2.78885508 C29.1016316,4.60614418 30.1435367,7.08590169 30.15,9.67579407 C30.1466902,15.1006202 25.7498261,19.4974842 20.325,19.5007941 C19.5399074,19.4966645 18.7584477,19.3938586 17.999,19.1947941 C17.9618766,20.2028987 17.1337879,21.0009393 16.125,21.0007941 L13.5,21.0007941 L13.5,23.6257941 C13.5,24.123075 13.3024559,24.5999886 12.9508252,24.9516193 C12.5991945,25.30325 12.1222809,25.5007941 11.625,25.5007941 L9,25.5007941 L9,27.3757941 C9,28.8255415 7.82474748,30.0007941 6.37500002,30.0007941 L2.62500002,30.0007941 C1.17564298,30.0007941 0.000552152546,28.826151 4.4408921e-16,27.3767941 L4.4408921e-16,24.1187941 C4.4408921e-16,23.0247386 0.434434907,21.9754571 1.20800002,21.2017941 L10.562,11.8507941 C10.652868,11.7523148 10.690168,11.6157968 10.662,11.4847941 C10.5599061,10.9375506 10.505701,10.3824503 10.5,9.82579407 Z M24.45,7.42579407 C24.45,6.39026016 23.6105339,5.55079407 22.575,5.55079407 C21.5394661,5.55079407 20.7,6.39026016 20.7,7.42579407 C20.7,8.46132797 21.5394661,9.30079407 22.575,9.30079407 C23.6105339,9.30079407 24.45,8.46132797 24.45,7.42579407 Z"></path>
                </g>
            </g>
        </g>
        <g id="job-manager---update-price-list---light" transform="translate(11.000000, 272.000000)">
            <mask id="mask-26" fill="white">
                <use xlink:href="#path-25"></use>
            </mask>
            <g id="Rectangle"></g>
            <g id="job_manager_-_update_price_list_-_light" mask="url(#mask-26)">
                <g transform="translate(-0.003780, 0.000000)" id="Group_98">
                    <path d="M3.77177994,13.348 L3.77177994,15.148 L2.90877994,15.148 L2.90877994,13.414 C1.90389508,13.457893 0.907793445,13.2099096 0.0407799448,12.7 L0.0407799448,11.256 C0.429403643,11.5755445 0.876325816,11.8166651 1.35677994,11.966 C1.85611067,12.1465445 2.38188468,12.2431842 2.91277994,12.252 L2.91277994,8.002 C2.01110436,7.64441235 1.20070188,7.08990846 0.540779945,6.379 C0.175691263,5.8674295 -0.0137738459,5.25131704 0.000779944766,4.623 C-0.0101059773,3.84871638 0.285336599,3.10148388 0.822779945,2.544 C1.37233123,1.95868602 2.11128374,1.58673006 2.90877994,1.494 L2.90877994,0 L3.77177994,0 L3.77177994,1.461 C4.54903846,1.42318967 5.32318504,1.58317997 6.02177994,1.926 L6.02177994,3.337 C5.36751805,2.86434139 4.57886429,2.61407526 3.77177994,2.623 L3.77177994,7.006 C4.65899266,7.36996193 5.46269126,7.91097835 6.13377994,8.596 C6.54817764,9.08329537 6.77355317,9.70334428 6.76877994,10.343 C6.78738346,11.0838616 6.50064616,11.7998008 5.97577994,12.323 C5.37103275,12.8936418 4.59783647,13.2532272 3.77177994,13.348 L3.77177994,13.348 Z M2.90877994,6.541 L2.90877994,2.673 C2.48220317,2.74707158 2.09393533,2.9652075 1.80877994,3.291 C1.53572583,3.61404484 1.39088222,4.02615516 1.40177994,4.449 C1.38417984,4.86450411 1.50056781,5.27466654 1.73377994,5.619 C2.0562268,6.00556783 2.45661528,6.319745 2.90877994,6.541 Z M3.77177994,8.434 L3.77177994,12.186 C4.83844661,11.9533333 5.37178244,11.3776667 5.37178244,10.459 C5.37311328,9.69566667 4.83977994,9.02066667 3.77177994,8.434 Z" id="Path_372" fill="#0173C7" fill-rule="nonzero"></path>
                    <g id="Group_97" transform="translate(8.003780, 4.000000)" fill="#0173C7" fill-rule="nonzero">
                        <rect id="Rectangle_69" x="0" y="0" width="7" height="1"></rect>
                        <rect id="Rectangle_70" x="0" y="3" width="7" height="1"></rect>
                        <rect id="Rectangle_71" x="0" y="6" width="7" height="1"></rect>
                    </g>
                </g>
            </g>
        </g>
        <g id="job-manager---compare---light" transform="translate(278.000000, 257.000000)">
            <mask id="mask-28" fill="white">
                <use xlink:href="#path-27"></use>
            </mask>
            <g id="Rectangle"></g>
            <g id="job_manager_-_compare_-_light" mask="url(#mask-28)">
                <g transform="translate(0.000000, 4.000000)" id="Group_1970">
                    <path d="M19,2 C14.0294373,2 10,6.02943725 10,11 C10,15.9705627 14.0294373,20 19,20 C23.9705627,20 28,15.9705627 28,11 C27.9944889,6.03172183 23.9682782,2.00551113 19,2 M19,0 C25.0751322,0 30,4.92486775 30,11 C30,17.0751322 25.0751322,22 19,22 C12.9248678,22 8,17.0751322 8,11 C8,4.92486775 12.9248678,0 19,0 Z" id="Ellipse_35" fill="#0173C7" fill-rule="nonzero"></path>
                    <path d="M11,2 C6.02943725,2 2,6.02943725 2,11 C2,15.9705627 6.02943725,20 11,20 C15.9705627,20 20,15.9705627 20,11 C19.9944889,6.03172183 15.9682782,2.00551113 11,2 M11,0 C17.0751322,0 22,4.92486775 22,11 C22,17.0751322 17.0751322,22 11,22 C4.92486775,22 0,17.0751322 0,11 C0,4.92486775 4.92486775,0 11,0 Z" id="Ellipse_36" fill="#0173C7" fill-rule="nonzero"></path>
                    <path d="M8,11.002 C8.00101363,6.46969245 10.7790955,2.40099308 15,0.75 C19.2209554,2.39964665 21.9990638,6.46813519 21.9990638,11 C21.9990638,15.5318648 19.2209554,19.6003534 15,21.25 C10.780089,19.5999993 8.00209802,15.5330205 8,11.002 Z" id="Intersection_4" fill="#83BEEC" fill-rule="nonzero"></path>
                    <path d="M15,19.067 C16.3629742,18.3914446 17.5326681,17.3817236 18.4,16.132 C20.5411888,13.0464061 20.5411888,8.95559386 18.4,5.87 C17.5327007,4.62024712 16.3629984,3.61051886 15,2.935 C11.9370188,4.45622076 9.99995557,7.58106338 9.99995557,11.001 C9.99995557,14.4209366 11.9370188,17.5457792 15,19.067 M15,21.25 C10.7790446,19.6003534 8.00093622,15.5318648 8.00093622,11 C8.00093622,6.46813519 10.7790446,2.39964665 15,0.75 C19.2209554,2.39964665 21.9990638,6.46813519 21.9990638,11 C21.9990638,15.5318648 19.2209554,19.6003534 15,21.25 Z" id="Intersection_4_-_Outline" fill="#0173C7" fill-rule="nonzero"></path>
                </g>
            </g>
        </g>
        <g id="home---hide-picked---light" transform="translate(140.000000, 121.000000)">
            <mask id="mask-30" fill="white">
                <use xlink:href="#path-29"></use>
            </mask>
            <g id="Rectangle"></g>
            <g id="home_-_hide_picked_-_light" mask="url(#mask-30)">
                <g transform="translate(0.000658, 0.000607)" id="Group_782">
                    <path d="M7.50034157,5.44939306 C9.20361905,5.44994615 10.5841566,6.83078309 10.5843401,8.53406065 C10.5845236,10.2373382 9.20428372,11.6184726 7.5010064,11.6193931 C5.79772908,11.6203126 4.41599801,10.24067 4.41434011,8.53739323 C4.4135452,7.7185074 4.73835676,6.93290295 5.31720916,6.35367541 C5.89606155,5.77444787 6.6814554,5.4491274 7.50034157,5.44939306 Z M7.50034157,2.74939323 C11.0366565,2.74947716 14.1201499,5.15379429 14.9823416,8.58339323 C15.0599376,8.89322497 14.8716733,9.20729722 14.5618416,9.28489323 C14.2520098,9.36248923 13.9379376,9.17422497 13.8603416,8.86439323 C13.1280201,5.94828628 10.5064966,3.90370464 7.49984157,3.90370464 C4.49318654,3.90370464 1.87166307,5.94828628 1.13934157,8.86439323 C1.0620217,9.17422497 0.748173315,9.36271308 0.438341574,9.28539322 C0.128509832,9.20807335 -0.0599782878,8.89422497 0.0173415718,8.58439323 C0.879236474,5.15403569 3.96336326,2.74913394 7.50034157,2.74939323 Z" id="_-Color" fill="#A6A6A6" fill-rule="nonzero"></path>
                    <path d="M14.2493416,14.499394 C14.1166427,14.4996302 13.9892923,14.4471072 13.8953416,14.3533932 L0.395341572,0.853393227 C0.200150603,0.658143301 0.200150603,0.341643153 0.395341572,0.146393227 C0.590591498,-0.0487977423 0.907091646,-0.0487977423 1.10234157,0.146393227 L14.6023416,13.6463932 C14.7448751,13.7893723 14.7874374,14.004041 14.7102387,14.1905863 C14.63304,14.3771316 14.4512292,14.4989472 14.2493416,14.499394 Z" id="Line_2" fill="#B10000" fill-rule="nonzero"></path>
                </g>
            </g>
        </g>
        <g id="application-menu---exit---light" transform="translate(79.000000, 81.000000)">
            <mask id="mask-32" fill="white">
                <use xlink:href="#path-31"></use>
            </mask>
            <g id="Rectangle"></g>
            <g id="application_menu_-_exit_-_light" mask="url(#mask-32)">
                <g id="Mask_Group_30-Clipped">
                    <mask id="mask-34" fill="white">
                        <use xlink:href="#path-33"></use>
                    </mask>
                    <g id="Rectangle_1104"></g>
                    <g id="Mask_Group_30" mask="url(#mask-34)">
                        <g transform="translate(-0.556647, -0.554909)" id="Group_687">
                            <circle id="Ellipse_65" fill="#B10000" fill-rule="nonzero" cx="15.5566466" cy="15.554909" r="15"></circle>
                            <path d="M14.5563492,25.5563492 L14.5563492,16.5563492 L5.55634919,16.5563492 C5.00406444,16.5563492 4.55634919,16.1086339 4.55634919,15.5563492 C4.55634919,15.0040644 5.00406444,14.5563492 5.55634919,14.5563492 L14.5563492,14.5563492 L14.5563492,5.55634919 C14.5563492,5.00406444 15.0040644,4.55634919 15.5563492,4.55634919 C16.1086339,4.55634919 16.5563492,5.00406444 16.5563492,5.55634919 L16.5563492,14.5563492 L25.5563492,14.5563492 C26.1086339,14.5563492 26.5563492,15.0040644 26.5563492,15.5563492 C26.5563492,16.1086339 26.1086339,16.5563492 25.5563492,16.5563492 L16.5563492,16.5563492 L16.5563492,25.5563492 C16.5563492,26.1086339 16.1086339,26.5563492 15.5563492,26.5563492 C15.0040644,26.5563492 14.5563492,26.1086339 14.5563492,25.5563492 Z" id="Union_66" fill="#FFFFFF" fill-rule="nonzero" transform="translate(15.556349, 15.556349) rotate(45.000000) translate(-15.556349, -15.556349) "></path>
                        </g>
                    </g>
                </g>
            </g>
        </g>
        <g id="Grouping-Codes---Archive---Light" transform="translate(386.000000, 244.000000)">
            <mask id="mask-36" fill="white">
                <use xlink:href="#path-35"></use>
            </mask>
            <g id="Rectangle"></g>
            <g id="Grouping_Codes_-_Archive_-_Light" mask="url(#mask-36)">
                <g transform="translate(0.000000, 1.000000)" id="Group_1043">
                    <path d="M0,10.994 L0,10.994 L0,0.4 C0,0.183 0.244,0 0.533,0 L6.4,0 C6.669,0 6.9,0.164 8.415,2 L12,2 C13.1045695,2 14,2.8954305 14,4 L4,4 C2.8954305,4 2,4.8954305 2,6 L0,10.994 Z" id="Subtraction_190" fill="#434343" fill-rule="nonzero"></path>
                    <path d="M4.001,4.001 L14.001,4.001 C15.1055695,4.001 16.001,4.8964305 16.001,6.001 L14.001,11.001 C14.001,12.1055695 13.1055695,13.001 12.001,13.001 L2.001,13.001 C0.8964305,13.001 0.001,12.1055695 0.001,11.001 L2.001,6.001 C2.001,4.8964305 2.8964305,4.001 4.001,4.001 Z" id="Path_637" fill="#434343" fill-rule="nonzero" opacity="0.5"></path>
                    <path d="M6.808,9.497 C6.69867672,9.61257542 6.6593166,9.77769478 6.70474622,9.93015922 C6.75017583,10.0826237 6.87349334,10.1992702 7.02824622,10.2361592 C7.18299911,10.2730482 7.34567673,10.2245754 7.455,10.109 L10.398,6.997 L10.398,14.554 C10.398,14.8000429 10.5974571,14.9995 10.8435,14.9995 C11.0895429,14.9995 11.289,14.8000429 11.289,14.554 L11.289,6.997 L14.233,10.11 C14.3425019,10.2255754 14.5053446,10.2739529 14.6601868,10.2369092 C14.815029,10.1998655 14.9383465,10.0830284 14.9836868,9.93040922 C15.0290271,9.77779008 14.9895019,9.61257542 14.88,9.497 L11.28,5.686 C11.189508,5.58993263 11.0694645,5.52691861 10.939,5.507 C10.8731774,5.49199763 10.8048226,5.49199763 10.739,5.507 C10.6123643,5.52846441 10.4961683,5.59059945 10.408,5.684 L6.808,9.497 Z" id="_-Color" fill="#434343" fill-rule="nonzero"></path>
                </g>
            </g>
        </g>
        <g id="Flags---Review---Light" transform="translate(79.000000, 157.000000)">
            <mask id="mask-38" fill="white">
                <use xlink:href="#path-37"></use>
            </mask>
            <g id="Rectangle"></g>
            <g id="Flags_-_Review_-_Light" mask="url(#mask-38)">
                <g transform="translate(1.000000, 1.000000)" id="Group_1349">
                    <polygon id="Path_253" fill="#8357E5" fill-rule="nonzero" points="0 0 15 0 15 10 0 10"></polygon>
                    <rect id="Rectangle_511" fill="#000000" fill-rule="nonzero" x="0" y="0" width="1" height="15"></rect>
                </g>
            </g>
        </g>
        <g id="home---doors---light" transform="translate(11.000000, 17.000000)">
            <mask id="mask-40" fill="white">
                <use xlink:href="#path-39"></use>
            </mask>
            <g id="Rectangle"></g>
            <g id="home_-_doors_-_light" mask="url(#mask-40)">
                <g transform="translate(5.000000, 0.000000)" id="Group_692">
                    <rect id="Rectangle_491" fill="#BBAA73" fill-rule="nonzero" x="0" y="0" width="20" height="30"></rect>
                    <path d="M1,1 L1,29 L19,29 L19,1 L1,1 M0,0 L20,0 L20,30 L0,30 L0,0 Z" id="Rectangle_491_-_Outline" fill="#6D6145" fill-rule="nonzero"></path>
                    <rect id="Rectangle_492" fill="#BBAA73" fill-rule="nonzero" x="3" y="3" width="6" height="10"></rect>
                    <path d="M4,4 L4,12 L8,12 L8,4 L4,4 M3,3 L9,3 L9,13 L3,13 L3,3 Z" id="Rectangle_492_-_Outline" fill="#6D6145" fill-rule="nonzero"></path>
                    <rect id="Rectangle_495" fill="#BBAA73" fill-rule="nonzero" x="11" y="3" width="6" height="10"></rect>
                    <path d="M12,4 L12,12 L16,12 L16,4 L12,4 M11,3 L17,3 L17,13 L11,13 L11,3 Z" id="Rectangle_495_-_Outline" fill="#6D6145" fill-rule="nonzero"></path>
                    <rect id="Rectangle_493" fill="#BBAA73" fill-rule="nonzero" x="3" y="17" width="6" height="10"></rect>
                    <path d="M4,18 L4,26 L8,26 L8,18 L4,18 M3,17 L9,17 L9,27 L3,27 L3,17 Z" id="Rectangle_493_-_Outline" fill="#6D6145" fill-rule="nonzero"></path>
                    <rect id="Rectangle_494" fill="#BBAA73" fill-rule="nonzero" x="11" y="17" width="6" height="10"></rect>
                    <path d="M12,18 L12,26 L16,26 L16,18 L12,18 M11,17 L17,17 L17,27 L11,27 L11,17 Z" id="Rectangle_494_-_Outline" fill="#6D6145" fill-rule="nonzero"></path>
                    <rect id="Rectangle_496" fill="#FFFDD1" fill-rule="nonzero" x="14" y="14" width="3" height="2"></rect>
                </g>
            </g>
        </g>
        <g id="view---custom-menu---new-layout---light" transform="translate(143.000000, 53.000000)">
            <mask id="mask-42" fill="white">
                <use xlink:href="#path-41"></use>
            </mask>
            <g id="Rectangle"></g>
            <g id="view_-_custom_menu_-_new_layout_-_light" mask="url(#mask-42)" fill-rule="nonzero">
                <g transform="translate(1.000000, 1.000000)">
                    <rect id="Rectangle_2130" fill="#FFFFFF" x="0" y="0" width="13" height="13"></rect>
                    <path d="M1,1 L1,12 L12,12 L12,1 L1,1 M0,0 L13,0 L13,13 L0,13 L0,0 Z" id="Rectangle_2130_-_Outline" fill="#000000"></path>
                    <polygon id="Union_203" fill="#309048" points="6 10 6 7 3 7 3 6 6 6 6 3 7 3 7 6 10 6 10 7 7 7 7 10"></polygon>
                </g>
            </g>
        </g>
        <g id="Estimate---Trade-Summary---Light" transform="translate(125.000000, 256.000000)">
            <mask id="mask-44" fill="white">
                <use xlink:href="#path-43"></use>
            </mask>
            <g id="Rectangle"></g>
            <g id="Estimate_-_Trade_Summary_-_Light" mask="url(#mask-44)" fill="#434343" fill-rule="nonzero">
                <g id="Group_2123">
                    <path d="M16,16 L0,16 L0,0 L16,0 L16,16 Z M1,2 L1,2 L1,15 L15,15 L15,2 L1,2 Z" id="Subtraction_130"></path>
                    <path d="M3,14 C2.44771525,14 2,13.5522847 2,13 L2,12 C2,11.4477153 2.44771525,11 3,11 L13,11 C13.5522847,11 14,11.4477153 14,12 L14,13 C14,13.5522847 13.5522847,14 13,14 L3,14 Z M3,10 C2.44771525,10 2,9.55228475 2,9 L2,8 C2,7.44771525 2.44771525,7 3,7 L13,7 C13.5522847,7 14,7.44771525 14,8 L14,9 C14,9.55228475 13.5522847,10 13,10 L3,10 Z M3,6 C2.44771525,6 2,5.55228475 2,5 L2,4 C2,3.44771525 2.44771525,3 3,3 L13,3 C13.5522847,3 14,3.44771525 14,4 L14,5 C14,5.55228475 13.5522847,6 13,6 L3,6 Z" id="Union_321"></path>
                </g>
            </g>
        </g>
        <g id="Estimate-Menu---Window-Counts---Light" transform="translate(55.000000, 238.000000)">
            <mask id="mask-46" fill="white">
                <use xlink:href="#path-45"></use>
            </mask>
            <g id="Rectangle"></g>
            <g id="Estimate_Menu_-_Window_Counts_-_Light" mask="url(#mask-46)">
                <g transform="translate(3.000000, 2.000000)" id="Group_1253">
                    <rect id="Rectangle_1590" fill="#E9F5FE" fill-rule="nonzero" x="1" y="0" width="9" height="11"></rect>
                    <path d="M2,1 L2,10 L9,10 L9,1 L2,1 M1,0 L10,0 L10,11 L1,11 L1,0 Z" id="Rectangle_1590_-_Outline" fill="#6D6145" fill-rule="nonzero"></path>
                    <rect id="Rectangle_1620" fill="#6D6145" fill-rule="nonzero" x="0" y="10" width="11" height="1" rx="0.5"></rect>
                    <rect id="Rectangle_1621" fill="#6D6145" fill-rule="nonzero" x="2" y="5" width="7" height="1"></rect>
                    <rect id="Rectangle_1622" fill="#6D6145" fill-rule="nonzero" x="5" y="1" width="1" height="9"></rect>
                </g>
            </g>
        </g>
        <g id="Flags---Restore-Estimate-Order---Light" transform="translate(19.000000, 173.000000)">
            <mask id="mask-48" fill="white">
                <use xlink:href="#path-47"></use>
            </mask>
            <g id="Rectangle"></g>
            <g id="Flags_-_Restore_Estimate_Order_-_Light" mask="url(#mask-48)" fill="#434343" fill-rule="nonzero">
                <g transform="translate(-0.005656, 2.000000)" id="_-Color">
                    <path d="M4.0036565,0 C4.13649903,0 4.26386967,0.0529193379 4.3576565,0.147 L7.8576565,3.647 C8.0471426,3.84318944 8.04443268,4.15504239 7.85156578,4.34790929 C7.65869889,4.54077619 7.34684594,4.5434861 7.1506565,4.354 L4.5036565,1.705 L4.5036565,11.5 C4.5036565,11.7761424 4.27979887,12 4.0036565,12 C3.72751412,12 3.5036565,11.7761424 3.5036565,11.5 L3.5036565,1.71 L0.859656497,4.354 C0.734119262,4.48397829 0.548217551,4.5361063 0.373402835,4.49034858 C0.198588119,4.44459086 0.0620656387,4.30806838 0.0163079184,4.13325366 C-0.0294498019,3.95843895 0.0226782044,3.77253724 0.152656497,3.647 L3.6206565,0.179 C3.69541058,0.0895959775 3.7990462,0.0291123863 3.9136565,0.008 L4.0036565,0 Z M12.0036565,0 C12.2797989,0 12.5036565,0.223857625 12.5036565,0.5 L12.5036565,10.29 L15.1476565,7.646 C15.2731937,7.51602171 15.4590954,7.4638937 15.6339102,7.50965142 C15.8087249,7.55540914 15.9452474,7.69193162 15.9910051,7.86674634 C16.0367628,8.04156105 15.9846348,8.22746276 15.8546565,8.353 L12.3866565,11.821 C12.3119024,11.910404 12.2082668,11.9708876 12.0936565,11.992 L12.0036565,12 C11.9240327,12.0001621 11.8455216,11.9813057 11.7746565,11.945 L11.7096565,11.905 L11.7096565,11.905 L11.6396565,11.844 L8.1496565,8.354 C7.96017039,8.15781056 7.96288031,7.84595761 8.15574721,7.65309071 C8.34861411,7.46022381 8.66046705,7.4575139 8.8566565,7.647 L11.5036565,10.295 L11.5036565,0.5 C11.5036565,0.223857625 11.7275141,0 12.0036565,0 Z"></path>
                </g>
            </g>
        </g>
        <g id="job-manager---clients---light" transform="translate(16.000000, 385.000000)">
            <mask id="mask-50" fill="white">
                <use xlink:href="#path-49"></use>
            </mask>
            <g id="Rectangle"></g>
            <g id="job_manager_-_clients_-_light" mask="url(#mask-50)" fill="#0173C7" fill-rule="nonzero">
                <g transform="translate(3.000000, -0.000000)" id="_-Color">
                    <path d="M20.813,17.9999977 C22.5143351,17.9979867 23.9172566,19.332677 24.0000669,21.032 L24.0000669,21.186 L24.0000669,21.749 C24.0112759,24.360991 22.5963471,26.7709714 20.31,28.034 C17.7656804,29.4207438 14.8959778,30.099665 12,29.9999977 C9.10411379,30.0999709 6.23441669,29.4213963 3.69,28.035 C1.48178304,26.8148408 0.0796436233,24.5216399 0,21.9999977 L0,21.746 L0,21.183 C0,19.4828431 1.3348291,18.0821538 3.033,17.9999977 L3.187,17.9999977 L20.813,17.9999977 Z M12,1.77635684e-15 C16.1421356,1.77635684e-15 19.5,3.35786438 19.5,7.5 C19.5,11.6421356 16.1421356,15 12,15 C7.85786438,15 4.5,11.6421356 4.5,7.5 C4.5,3.35786438 7.85786438,1.77635684e-15 12,1.77635684e-15 Z"></path>
                </g>
            </g>
        </g>
        <g id="job-manager---export---light" transform="translate(103.000000, 370.000000)">
            <mask id="mask-52" fill="white">
                <use xlink:href="#path-51"></use>
            </mask>
            <g id="Rectangle"></g>
            <g id="job_manager_-_export_-_light" mask="url(#mask-52)">
                <g transform="translate(-0.002000, -0.002000)" id="Group_2015">
                    <g id="Group_744" transform="translate(7.503932, 0.000000)" fill="#0173C7" fill-rule="nonzero">
                        <g id="Group_745" transform="translate(-0.000000, 0.000000)">
                            <polygon id="Union_26" transform="translate(7.071068, 7.071068) rotate(45.000000) translate(-7.071068, -7.071068) " points="2.07106781 12.0710678 2.07106781 2.07106781 12.0710678 2.07106781 12.0710678 5.07106781 5.07106781 5.07106781 5.07106781 12.0710678"></polygon>
                            <rect id="Rectangle_587" x="5.49806781" y="2.073" width="3" height="23.001"></rect>
                        </g>
                    </g>
                    <polygon id="Subtraction_115" fill="#0173C7" fill-rule="nonzero" points="30 30.002 0 30.002 0 11.002 10.007 11.002 10.007 14.002 3 14.002 3 27.002 27 27.002 27 14.002 19 14.002 19 11.002 30 11.002"></polygon>
                </g>
            </g>
        </g>
        <g id="plans---scale-plan---light" transform="translate(168.000000, 425.000000)">
            <mask id="mask-54" fill="white">
                <use xlink:href="#path-53"></use>
            </mask>
            <g id="Rectangle"></g>
            <g id="plans_-_scale_plan_-_light" mask="url(#mask-54)">
                <g transform="translate(5.996125, 0.000000)" id="Group_2066">
                    <path d="M2.62081743,26.8977111 L5.55916557,26.8977111 L4.09399197,29.910068 L2.62081743,26.8977111 Z M2.62081743,26.8977111 L2.62081743,9.28262404 L5.55916557,9.28262404 L5.55916557,26.8977111 L2.62081743,26.8977111 Z" id="Union_225" fill="#A6A6A6" fill-rule="nonzero" transform="translate(4.089991, 19.596346) rotate(15.008914) translate(-4.089991, -19.596346) "></path>
                    <path d="M12.4065799,12.2932479 L15.3449281,12.2932479 L13.8797545,9.28089098 L12.4065799,12.2932479 Z M12.4065799,12.2932479 L12.4065799,29.909335 L15.3449281,29.909335 L15.3449281,12.2932479 L12.4065799,12.2932479 Z" id="Union_226" fill="#A6A6A6" fill-rule="nonzero" transform="translate(13.875754, 19.595113) rotate(164.991086) translate(-13.875754, -19.595113) "></path>
                    <rect id="Rectangle_2405" fill="#000000" fill-rule="nonzero" x="7.788875" y="0" width="2" height="4"></rect>
                    <path d="M8.788875,13 C6.02745125,13 3.788875,10.7614237 3.788875,8 C3.788875,5.23857625 6.02745125,3 8.788875,3 C11.5502987,3 13.788875,5.23857625 13.788875,8 C13.7833732,10.7591416 11.5480166,12.9944982 8.788875,13 L8.788875,13 Z M8.788875,5.861 C7.92283053,5.86140488 7.14232506,6.38351581 6.81137159,7.18383012 C6.48041813,7.98414442 6.66420662,8.90501923 7.27702159,9.51697592 C7.88983657,10.1289326 8.81096806,10.3114303 9.61081773,9.97935547 C10.4106674,9.64728065 10.9316839,8.86604418 10.9308759,8 C10.9292198,6.81817781 9.97069835,5.861 8.788875,5.861 Z" id="Subtraction_116" fill="#484848" fill-rule="nonzero"></path>
                </g>
            </g>
        </g>
        <g id="view---takeoff---light" transform="translate(284.000000, 343.000000)">
            <mask id="mask-56" fill="white">
                <use xlink:href="#path-55"></use>
            </mask>
            <g id="Rectangle"></g>
            <g id="view_-_takeoff_-_light" mask="url(#mask-56)">
                <g id="Mask_Group_29-Clipped">
                    <mask id="mask-58" fill="white">
                        <use xlink:href="#path-57"></use>
                    </mask>
                    <g id="Rectangle_1097"></g>
                    <g id="Mask_Group_29" mask="url(#mask-58)">
                        <g transform="translate(-8.948242, -9.039252)" id="Group_1060">
                            <g transform="translate(24.457556, 24.457556) rotate(45.000000) translate(-24.457556, -24.457556) translate(8.778328, 5.548577)">
                                <path d="M5.54262147,24.3000507 L8.91862147,25.7000507 C8.53762147,26.6610507 11.5896215,20.8780507 11.5896215,20.8780507 L10.2336215,20.8080507 C9.25039413,20.7535308 8.2898506,21.1166853 7.58862147,21.8080507 L5.47262147,23.9270507 C5.41306012,23.9777565 5.38523074,24.0564867 5.39969601,24.1333592 C5.41416127,24.2102318 5.46870362,24.273462 5.54262147,24.2990507 L5.54262147,24.3000507 Z" id="Path_370" fill="#484848" fill-rule="nonzero" transform="translate(8.492776, 23.305247) rotate(-45.000000) translate(-8.492776, -23.305247) "></path>
                                <path d="M19.5436393,22.3106898 L22.9186393,20.9106898 C22.5386393,19.9496898 25.5906393,25.7336898 25.5906393,25.7336898 L24.2346393,25.8026898 C23.2514314,25.8570835 22.2909372,25.4939477 21.5896393,24.8026898 L19.4736393,22.6836898 C19.4135508,22.6330562 19.3853611,22.5540034 19.3998545,22.4767744 C19.4143478,22.3995454 19.4692814,22.3360921 19.5436393,22.3106898 Z" id="Path_371" fill="#484848" fill-rule="nonzero" transform="translate(22.493374, 23.305490) rotate(-135.000000) translate(-22.493374, -23.305490) "></path>
                                <path d="M5.6310749,18.3848524 C5.2504332,19.3458934 4.94680974,20.3356791 4.7230749,21.3448524 L4.5950749,21.9268524 L9.4350749,26.7688524 L10.0170749,26.6438524 C11.0253157,26.4189885 12.0140943,26.1143632 12.9740749,25.7328524 C15.1410749,24.8608524 17.8370749,22.8718524 17.7900749,23.0588524 C21.7070749,20.1658524 25.6710749,15.0938524 26.7500749,6.24085237 C26.8111947,5.79181526 26.6595992,5.33993928 26.3400377,5.01861329 C26.0204762,4.69728731 25.5694417,4.54320596 25.1200749,4.60185237 C16.2740749,5.69085237 11.1950749,9.65685237 8.3020749,13.5618524 L5.6310749,18.3848524 Z" id="Path_368" fill="#A6A6A6" fill-rule="nonzero" transform="translate(15.679228, 15.679228) rotate(-45.000000) translate(-15.679228, -15.679228) "></path>
                                <path d="M14.9973493,36.8179592 L14.9973493,31.8179592 C14.9973493,31.2656744 15.4450645,30.8179592 15.9973493,30.8179592 C16.549634,30.8179592 16.9973493,31.2656744 16.9973493,31.8179592 L16.9973493,36.8179592 C16.9973493,37.3702439 16.549634,37.8179592 15.9973493,37.8179592 C15.4450645,37.8179592 14.9973493,37.3702439 14.9973493,36.8179592 Z M17.9973493,33.8179592 L17.9973493,31.8179592 C17.9973493,31.2656744 18.4450645,30.8179592 18.9973493,30.8179592 C19.549634,30.8179592 19.9973493,31.2656744 19.9973493,31.8179592 L19.9973493,33.8179592 C19.9973493,34.3702439 19.549634,34.8179592 18.9973493,34.8179592 C18.4450645,34.8179592 17.9973493,34.3702439 17.9973493,33.8179592 Z M11.9973493,33.8179592 L11.9973493,31.8179592 C11.9973493,31.2656744 12.4450645,30.8179592 12.9973493,30.8179592 C13.549634,30.8179592 13.9973493,31.2656744 13.9973493,31.8179592 L13.9973493,33.8179592 C13.9973493,34.3702439 13.549634,34.8179592 12.9973493,34.8179592 C12.4450645,34.8179592 11.9973493,34.3702439 11.9973493,33.8179592 Z" id="Union_62" fill="#C70101" fill-rule="nonzero"></path>
                                <circle id="Ellipse_24" fill="#83BEEC" fill-rule="nonzero" transform="translate(15.731097, 13.315959) rotate(-45.000000) translate(-15.731097, -13.315959) " cx="15.7310967" cy="13.3159592" r="3.5"></circle>
                                <path d="M15.7310967,10.8159592 C14.3503849,10.8159592 13.2310967,11.9352473 13.2310967,13.3159592 C13.2310967,14.6966711 14.3503849,15.8159592 15.7310967,15.8159592 C17.1118086,15.8159592 18.2310967,14.6966711 18.2310967,13.3159592 C18.2310967,12.652918 17.9677046,12.0170332 17.4988637,11.5481922 C17.0300227,11.0793513 16.394138,10.8159592 15.7310967,10.8159592 M15.7310967,9.81595919 C17.6640934,9.81595919 19.2310967,11.3829626 19.2310967,13.3159592 C19.2310967,15.2489558 17.6640934,16.8159592 15.7310967,16.8159592 C13.7981001,16.8159592 12.2310967,15.2489558 12.2310967,13.3159592 C12.2310967,11.3829626 13.7981001,9.81595919 15.7310967,9.81595919 L15.7310967,9.81595919 Z" id="Ellipse_24_-_Outline" fill="#0063B1" fill-rule="nonzero" transform="translate(15.731097, 13.315959) rotate(-45.000000) translate(-15.731097, -13.315959) "></path>
                            </g>
                        </g>
                    </g>
                </g>
            </g>
        </g>
        <g id="view---shapes---light" transform="translate(223.000000, 476.000000)">
            <mask id="mask-60" fill="white">
                <use xlink:href="#path-59"></use>
            </mask>
            <g id="Rectangle"></g>
            <g id="view_-_shapes_-_light" mask="url(#mask-60)" fill-rule="nonzero">
                <g id="Group_716">
                    <rect id="Rectangle_465" fill="#0173C7" x="0" y="0" width="20" height="20"></rect>
                    <circle id="Ellipse_25" fill="#83BEEC" cx="18" cy="18" r="12"></circle>
                </g>
            </g>
        </g>
        <g id="Status---Completed---Light" transform="translate(145.000000, 495.000000)">
            <mask id="mask-62" fill="white">
                <use xlink:href="#path-61"></use>
            </mask>
            <g id="Rectangle"></g>
            <g id="Status_-_Completed_-_Light" mask="url(#mask-62)">
                <g id="Group_2271">
                    <rect id="Rectangle_2782" x="0" y="0" width="16" height="16"></rect>
                    <g id="Group_772" transform="translate(1.000000, 2.000000)" fill="#006396" fill-rule="nonzero">
                        <rect id="Rectangle_511" x="0" y="0" width="2" height="12"></rect>
                        <path d="M2,1 L2,7 L12,7 L12,1 L2,1 M1,0 L13,0 L13,8 L1,8 L1,0 Z" id="Rectangle_654"></path>
                        <path d="M10,7 L10,5 L12,5 L12,7 L10,7 Z M6,7 L6,5 L8,5 L8,7 L6,7 Z M2,7 L2,5 L4,5 L4,7 L2,7 Z M8,5 L8,3 L10,3 L10,5 L8,5 Z M4,5 L4,3 L6,3 L6,5 L4,5 Z M10,3 L10,1 L12,1 L12,3 L10,3 Z M6,3 L6,1 L8,1 L8,3 L6,3 Z M2,3 L2,1 L4,1 L4,3 L2,3 Z" id="Union_33"></path>
                    </g>
                </g>
            </g>
        </g>
        <g id="report-preview---watermark---light" transform="translate(315.000000, 480.000000)">
            <mask id="mask-64" fill="white">
                <use xlink:href="#path-63"></use>
            </mask>
            <g id="Rectangle"></g>
            <g id="report_preview_-_watermark_-_light" mask="url(#mask-64)">
                <g transform="translate(5.000000, -11154.002000)" id="Group_743">
                    <g id="Group_739" transform="translate(0.000000, 11153.998000)" fill-rule="nonzero">
                        <polygon id="Subtraction_8" fill="#FFFFFF" points="21 30.004 0 30.004 0 0.004 14 0.004 21 7.004"></polygon>
                        <path d="M20,29.004 L20,7.416 L13.586,1 L1,1 L1,29 L20,29 M21,30 L0,30 L0,0 L14,0 L21,7 L21,30 Z" id="Subtraction_8_-_Outline" fill="#000000"></path>
                    </g>
                    <polygon id="Union_28" fill="#000000" fill-rule="nonzero" points="13 11162.002 13 11154.002 14 11154.002 14 11161.002 21 11161.002 21 11162.002"></polygon>
                </g>
            </g>
        </g>
        <g id="plans---mapping---light" transform="translate(371.000000, 325.000000)">
            <mask id="mask-66" fill="white">
                <use xlink:href="#path-65"></use>
            </mask>
            <g id="Rectangle"></g>
            <g id="plans_-_mapping_-_light" mask="url(#mask-66)" fill-rule="nonzero">
                <g id="Group_777">
                    <g id="Group_776" transform="translate(3.000000, 0.000000)">
                        <polygon id="Path_267" fill="#0063B1" points="0 5 9 0 9 21 0 26"></polygon>
                        <polygon id="Path_268" fill="#1281D8" points="9 21 18 26 18 5 9 0"></polygon>
                        <polygon id="Path_269" fill="#0063B1" points="18 5 27 0 27 21 18 26"></polygon>
                    </g>
                    <g id="Group_2" transform="translate(0.000000, 12.828000)">
                        <path d="M0,4.254 L15,4.254 L7.475,8.609 L0,4.254 Z M0,4.254 L7.5,0 L15,4.254 L0,4.254 Z" id="Union_2" fill="#FCE77D"></path>
                        <polygon id="Path_1" fill="#FFC557" points="0.021 4.269 7.507 8.535 7.507 17.173 0.021 12.886"></polygon>
                        <polygon id="Path_2" fill="#F5A000" points="14.976 4.269 7.49 8.535 7.49 17.173 14.977 12.886"></polygon>
                    </g>
                </g>
            </g>
        </g>
        <g id="job-manager-application-menu---openings-library---light" transform="translate(148.000000, 299.000000)">
            <mask id="mask-68" fill="white">
                <use xlink:href="#path-67"></use>
            </mask>
            <g id="Rectangle"></g>
            <g id="job_manager_application_menu_-_openings_library_-_light" mask="url(#mask-68)">
                <g transform="translate(4.000000, 0.000000)" id="Group_689">
                    <path d="M3,0 L21,0 L21,30 L3,30 C1.34314575,30 0,28.6568542 0,27 L0,3 C0,1.34314575 1.34314575,0 3,0 Z" id="Rectangle_489" fill="#0173C7" fill-rule="nonzero"></path>
                    <path d="M2.5,25 L21,25 L21,30 L2.5,30 C1.11928813,30 0,28.8807119 0,27.5 L0,27.5 C0,26.1192881 1.11928813,25 2.5,25 Z" id="Rectangle_490" fill="#FFFFFF" fill-rule="nonzero"></path>
                    <path d="M2.5,26 C1.67157288,26 1,26.6715729 1,27.5 C1,28.3284271 1.67157288,29 2.5,29 L20,29 L20,26 L2.5,26 M2.5,25 L21,25 L21,30 L2.5,30 C1.11928813,30 0,28.8807119 0,27.5 C0,26.1192881 1.11928813,25 2.5,25 Z" id="Rectangle_490_-_Outline" fill="#000000" fill-rule="nonzero"></path>
                    <g id="Group_694" transform="translate(4.000000, 4.999000)" fill="#FFFFFF" fill-rule="nonzero">
                        <path d="M2,1 L2,14 L11,14 L11,1 L2,1 M1,4.4408921e-16 L12,4.4408921e-16 L12,15 L1,15 L1,4.4408921e-16 Z" id="Rectangle_491"></path>
                        <rect id="Rectangle_504" x="0" y="14" width="13" height="2"></rect>
                        <rect id="Rectangle_505" x="6" y="4.4408921e-16" width="1" height="15"></rect>
                        <rect id="Rectangle_506" x="1" y="7" width="11" height="1"></rect>
                    </g>
                </g>
            </g>
        </g>
        <g id="home---refresh-job---light" transform="translate(243.000000, 307.000000)">
            <mask id="mask-70" fill="white">
                <use xlink:href="#path-69"></use>
            </mask>
            <g id="Rectangle"></g>
            <g id="home_-_refresh_job_-_light" mask="url(#mask-70)" fill="#0173C7" fill-rule="nonzero">
                <g transform="translate(3.001031, -0.059568)" id="_-Color">
                    <path d="M6.45296914,5.96656757 C6.66386514,6.24118547 6.75649223,6.58859052 6.71031191,6.93175155 C6.6641316,7.27491258 6.48296011,7.58547165 6.20696914,7.79456757 C3.29619948,10.0110666 1.98927339,13.7508636 2.88588934,17.2979085 C3.7825053,20.8449535 6.70957153,23.5144892 10.3239691,24.0815676 L9.39896914,23.1595676 C9.06939164,22.8299901 8.94067697,22.3496204 9.06131071,21.8994091 C9.18194445,21.4491979 9.53359946,21.0975429 9.98381071,20.9769091 C10.434022,20.8562754 10.9143916,20.9849901 11.2439691,21.3145676 L14.5049691,24.5755676 C14.7507677,24.8196251 14.8890031,25.1516848 14.8890031,25.4980676 C14.8890031,25.8444503 14.7507677,26.17651 14.5049691,26.4205676 L11.2439691,29.6815676 C10.9136771,30.0111451 10.4326472,30.1394785 9.98207866,30.018226 C9.53151015,29.8969735 9.17985513,29.5445561 9.05957866,29.093726 C8.93930218,28.642896 9.06867711,28.1621451 9.39896914,27.8325676 L10.4989691,26.7325676 C5.71704368,26.2239729 1.72881053,22.8505243 0.434101483,18.2191953 C-0.860607564,13.5878663 0.800035962,8.63524866 4.62496914,5.72056757 C4.89958704,5.50967157 5.2469921,5.41704448 5.59015313,5.4632248 C5.93331416,5.50940511 6.24387323,5.6905766 6.45296914,5.96656757 Z M8.97096914,3.70256757 L12.2319691,0.441567567 C12.7063817,-0.0977384731 13.5281631,-0.150345005 14.0674691,0.324067588 C14.6067752,0.798480181 14.6593817,1.62026151 14.1849691,2.15956757 L14.0759691,2.28256757 L12.9759691,3.38256757 C17.6757897,3.88163881 21.6180784,7.15029117 22.9790189,11.6763519 C24.3399595,16.2024127 22.8541501,21.103239 19.2089691,24.1115676 C18.6536468,24.57024 17.8316417,24.4918898 17.3729692,23.9365675 C16.9142967,23.3812452 16.9926469,22.5592401 17.5479691,22.1005676 C20.3199013,19.8127505 21.4920919,16.1117602 20.5426734,12.6453039 C19.593255,9.17884757 16.6988112,6.5916569 13.1479691,6.03556757 L14.0729691,6.96056757 C14.421839,7.26817324 14.5801024,7.73853245 14.488143,8.19446544 C14.3961835,8.65039843 14.0679722,9.02263812 13.627143,9.17096544 C13.1863137,9.31929275 12.699839,9.22117324 12.3509691,8.91356757 L12.2279691,8.80456757 L8.97096914,5.54756757 C8.50404543,5.08388349 8.45723889,4.34442603 8.86196914,3.82556757 L8.97096914,3.70256757 L12.2319691,0.441567567 L8.97096914,3.70256757 Z"></path>
                </g>
            </g>
        </g>
        <g id="job-manager---open---light" transform="translate(51.000000, 470.000000)">
            <mask id="mask-72" fill="white">
                <use xlink:href="#path-71"></use>
            </mask>
            <g id="Rectangle"></g>
            <g id="job_manager_-_open_-_light" mask="url(#mask-72)">
                <g transform="translate(0.000000, 2.999000)" id="Group_1043">
                    <path d="M2,24.001 C0.8954305,24.001 0,23.1055695 0,22.001 L0,0.752 C0,0.337 0.446,0 1,0 L12,0 C12.452,0 12.833,0.226 15.15,3 L25,3 C26.1045695,3 27,3.8954305 27,5 L27,22 C27,23.1045695 26.1045695,24 25,24 L2,24.001 Z" id="Union_88" fill="#F7B70D" fill-rule="nonzero"></path>
                    <path d="M6,8.001 L28,8.001 C29.1045695,8.001 30,8.8964305 30,10.001 L27,22.001 C27,23.1055695 26.1045695,24.001 25,24.001 L2,24.001 C0.8954305,24.001 0,23.1055695 0,22.001 L4,10.001 C4,8.8964305 4.8954305,8.001 6,8.001 Z" id="Path_382" fill="#FFD35A" fill-rule="nonzero"></path>
                </g>
            </g>
        </g>
        <g id="job-manager---lock---light" transform="translate(201.000000, 349.000000)">
            <mask id="mask-74" fill="white">
                <use xlink:href="#path-73"></use>
            </mask>
            <g id="Rectangle"></g>
            <g id="job_manager_-_lock_-_light" mask="url(#mask-74)">
                <g transform="translate(1.997000, 0.008000)" id="Group_1735">
                    <path d="M9.003,7.992 L9.003,3.986 C9.00559635,3.19084797 8.68976874,2.42774798 8.126,1.867 C7.5633597,1.30312814 6.79956485,0.986169461 6.003,0.986 C4.34728727,0.988752645 3.00575265,2.33028727 3.003,3.986 L3.003,7.992 L2.003,7.992 L2.003,3.992 L2.008,3.992 L2.003,3.992 C2.00741204,1.78598584 3.79698143,0 6.003,0 C8.20901857,0 9.99858796,1.78598584 10.003,3.992 L9.998,3.992 L10.003,3.992 L10.003,7.992 L9.003,7.992 Z" id="Union_105" fill="#484848" fill-rule="nonzero"></path>
                    <path d="M0.001,13.99 C0.001,13.99 0.001,13.99 0.001,13.984 L0.001,13.984 L0.001,6.984 C0.001,6.43171525 0.44871525,5.984 1.001,5.984 L11.001,5.984 C11.5532847,5.984 12.001,6.43171525 12.001,6.984 L12.001,13.984 C12.001,14.5362847 11.5532847,14.984 11.001,14.984 L1.108,14.984 C1.07469058,14.9857857 1.04130942,14.9857857 1.008,14.984 C0.742609416,14.9858625 0.487363412,14.8821512 0.298484089,14.6957103 C0.109604765,14.5092693 0.0025858472,14.2553924 0.001,13.99 L0.001,13.99 Z" id="Union_304" fill="#83BEEC" fill-rule="nonzero"></path>
                    <path d="M1.015,13.99 L1.015,13.99 L1.05,13.99 L11.001,13.99 L11.001,6.99 L1.001,6.99 L1.001,13.99 L1.013,13.99 M1,14.99 C0.44771525,14.99 0,14.5422847 0,13.99 C0,13.99 0,13.99 0,13.984 L0,13.984 L0,6.984 C0,6.43171525 0.44771525,5.984 1,5.984 L11,5.984 C11.5522847,5.984 12,6.43171525 12,6.984 L12,13.984 C12,14.5362847 11.5522847,14.984 11,14.984 L1.107,14.984 C1.07180901,14.9880082 1.03641852,14.99 1.001,14.99 L1,14.99 Z" id="Union_304_-_Outline" fill="#000000" fill-rule="nonzero"></path>
                </g>
            </g>
        </g>
        <g id="home---delete---light" transform="translate(118.000000, 445.000000)">
            <mask id="mask-76" fill="white">
                <use xlink:href="#path-75"></use>
            </mask>
            <g id="Rectangle"></g>
            <g id="home_-_delete_-_light" mask="url(#mask-76)" fill-rule="nonzero">
                <g id="Group_726">
                    <path d="M7.5,1 C6.11928813,1 5,2.11928813 5,3.5 C5,4.88071187 6.11928813,6 7.5,6 C8.88071187,6 10,4.88071187 10,3.5 C10,2.83695878 9.7366079,2.20107399 9.26776695,1.73223305 C8.79892601,1.2633921 8.16304122,1 7.5,1 M7.5,-2.22044605e-16 C9.43299662,-2.22044605e-16 11,1.56700338 11,3.5 C11,5.43299662 9.43299662,7 7.5,7 C5.56700338,7 4,5.43299662 4,3.5 C4,1.56700338 5.56700338,-2.22044605e-16 7.5,-2.22044605e-16 L7.5,-2.22044605e-16 Z" id="Rectangle_546" fill="#B10000"></path>
                    <rect id="Rectangle_542" fill="#B10000" x="0" y="3" width="15" height="1"></rect>
                    <polygon id="Path_257" fill="#FFFFFF" points="2 3 13 3 12 15 3 15"></polygon>
                    <path d="M3.087,4 L3.92,14 L11.08,14 L11.913,4 L3.087,4 M2,3 L13,3 L12,15 L3,15 L2,3 Z" id="Path_257_-_Outline" fill="#B10000"></path>
                    <rect id="Rectangle_544" fill="#B10000" x="5" y="6" width="1" height="6" rx="0.5"></rect>
                    <rect id="Rectangle_545" fill="#B10000" x="9" y="6" width="1" height="6" rx="0.5"></rect>
                </g>
            </g>
        </g>
        <g id="home---window---light" transform="translate(252.000000, 415.000000)">
            <mask id="mask-78" fill="white">
                <use xlink:href="#path-77"></use>
            </mask>
            <g id="Rectangle"></g>
            <g id="home_-_window_-_light" mask="url(#mask-78)">
                <g transform="translate(3.000000, 0.000000)" id="Group_694">
                    <rect id="Rectangle_491" fill="#E9F5FE" fill-rule="nonzero" x="2" y="0" width="20" height="27"></rect>
                    <path d="M3,1 L3,26 L21,26 L21,1 L3,1 M2,0 L22,0 L22,27 L2,27 L2,0 Z" id="Rectangle_491_-_Outline" fill="#6D6145" fill-rule="nonzero"></path>
                    <rect id="Rectangle_504" fill="#BBAA73" fill-rule="nonzero" x="0" y="26" width="24" height="4"></rect>
                    <path d="M1,27 L1,29 L23,29 L23,27 L1,27 M0,26 L24,26 L24,30 L0,30 L0,26 Z" id="Rectangle_504_-_Outline" fill="#6D6145" fill-rule="nonzero"></path>
                    <rect id="Rectangle_505" fill="#E9F5FE" fill-rule="nonzero" x="11" y="0" width="2" height="26"></rect>
                    <polygon id="Rectangle_505_-_Outline" fill="#6D6145" fill-rule="nonzero" points="11 0 13 0 13 26 11 26"></polygon>
                    <rect id="Rectangle_506" fill="#E9F5FE" fill-rule="nonzero" x="2" y="12" width="20" height="2"></rect>
                    <polygon id="Rectangle_506_-_Outline" fill="#6D6145" fill-rule="nonzero" points="2 12 22 12 22 14 2 14"></polygon>
                </g>
            </g>
        </g>
        <g id="Estimate-Menu---Length-by-Centre---Light" transform="translate(56.000000, 321.000000)">
            <mask id="mask-80" fill="white">
                <use xlink:href="#path-79"></use>
            </mask>
            <g id="Rectangle"></g>
            <g id="Estimate_Menu_-_Length_by_Centre_-_Light" mask="url(#mask-80)">
                <g transform="translate(3.000000, 3.000000)" id="Group_1253">
                    <path d="M1,0 L9,0 C9.55228475,0 10,0.44771525 10,1 L10,5 C10,5.55228475 9.55228475,6 9,6 L1,6 C0.44771525,6 0,5.55228475 0,5 L0,1 C0,0.44771525 0.44771525,0 1,0 Z" id="Path_625" fill="#83BEEC" fill-rule="nonzero"></path>
                    <path d="M4,9 L0.5,9 C0.223857625,9 0,8.77614237 0,8.5 C0,8.22385763 0.223857625,8 0.5,8 L4,8 C4,7.44771525 4.44771525,7 5,7 C5.55228475,7 6,7.44771525 6,8 L9.5,8 C9.77614237,8 10,8.22385763 10,8.5 C10,8.77614237 9.77614237,9 9.5,9 L6,9 C6,9.55228475 5.55228475,10 5,10 C4.44771525,10 4,9.55228475 4,9 Z" id="Union_126" fill="#0173C7" fill-rule="nonzero"></path>
                </g>
            </g>
        </g>
        <g id="Estimate-Menu---Volume---Light" transform="translate(386.000000, 417.000000)">
            <mask id="mask-82" fill="white">
                <use xlink:href="#path-81"></use>
            </mask>
            <g id="Rectangle"></g>
            <g id="Estimate_Menu_-_Volume_-_Light" mask="url(#mask-82)">
                <g transform="translate(0.933068, 0.000000)" id="Group_2161">
                    <g id="Group_1269" transform="translate(1.756932, 0.000000)" fill-rule="nonzero">
                        <path d="M0,3.221 L11.355,3.221 L5.655,6.521 L0,3.221 Z M0,3.221 L5.678,0 L11.356,3.221 L0,3.221 Z" id="Union_2" fill="#CEE4F5"></path>
                        <polygon id="Path_1" fill="#83BEEC" points="0.016 3.232 5.683 6.461 5.683 13 0.016 9.755"></polygon>
                        <polygon id="Path_2" fill="#0173C7" points="11.337 3.232 5.67 6.461 5.67 13 11.338 9.755"></polygon>
                    </g>
                    <path d="M6.70893194,14.754 L0.786931942,11.336 C0.61800355,11.4586119 0.390240665,11.4618141 0.217931942,11.344 C-0.00930563589,11.1887039 -0.0683048858,10.8789579 0.085931942,10.651 L0.642931942,9.819 C0.797958599,9.59079866 1.10852152,9.53128156 1.33693194,9.686 C1.56623072,9.83937632 1.62798388,10.1494846 1.47493194,10.379 L1.37493194,10.522 L7.61893194,14.127 L13.3299319,10.827 C13.2613212,10.6136493 13.3430556,10.3807061 13.5299319,10.257 C13.7583424,10.1022816 14.0689053,10.1617987 14.2239319,10.39 L14.7819319,11.222 C14.9332658,11.4494355 14.874044,11.7562311 14.6489319,11.911 C14.4205215,12.0657184 14.1099586,12.0062013 13.9549319,11.778 L13.8779319,11.667 L8.05493194,15.026 L7.62593194,15.313 L6.70893194,14.754 Z" id="Union_263" fill="#0173C7" fill-rule="nonzero"></path>
                </g>
            </g>
        </g>
    </g>
</svg>