<?xml version="1.0" encoding="UTF-8"?>
<svg width="50px" height="50px" viewBox="0 0 50 50" version="1.1" xmlns="http://www.w3.org/2000/svg" xmlns:xlink="http://www.w3.org/1999/xlink">
    <!-- Generator: Sketch 55.2 (78181) - https://sketchapp.com -->
    <title>icon-boards</title>
    <desc>Created with Sketch.</desc>
    <g id="Case-Studies" stroke="none" stroke-width="1" fill="none" fill-rule="evenodd">
        <path d="M4.16666667,4 C4.07461921,4 4,4.07461921 4,4.16666667 L4,18.8333333 C4,18.9253808 4.07461921,19 4.16666667,19 L18.8333333,19 C18.9253808,19 19,18.9253808 19,18.8333333 L19,4.16666667 C19,4.07461921 18.9253808,4 18.8333333,4 L4.16666667,4 Z M4.16666667,0 L18.8333333,0 C21.1345198,0 23,1.86548021 23,4.16666667 L23,18.8333333 C23,21.1345198 21.1345198,23 18.8333333,23 L4.16666667,23 C1.86548021,23 0,21.1345198 0,18.8333333 L0,4.16666667 C0,1.86548021 1.86548021,0 4.16666667,0 Z M4.16666667,31 C4.07461921,31 4,31.0746192 4,31.1666667 L4,45.8333333 C4,45.9253808 4.07461921,46 4.16666667,46 L18.8333333,46 C18.9253808,46 19,45.9253808 19,45.8333333 L19,31.1666667 C19,31.0746192 18.9253808,31 18.8333333,31 L4.16666667,31 Z M4.16666667,27 L18.8333333,27 C21.1345198,27 23,28.8654802 23,31.1666667 L23,45.8333333 C23,48.1345198 21.1345198,50 18.8333333,50 L4.16666667,50 C1.86548021,50 0,48.1345198 0,45.8333333 L0,31.1666667 C0,28.8654802 1.86548021,27 4.16666667,27 Z M31.1666667,4 C31.0746192,4 31,4.07461921 31,4.16666667 L31,18.8333333 C31,18.9253808 31.0746192,19 31.1666667,19 L45.8333333,19 C45.9253808,19 46,18.9253808 46,18.8333333 L46,4.16666667 C46,4.07461921 45.9253808,4 45.8333333,4 L31.1666667,4 Z M31.1666667,0 L45.8333333,0 C48.1345198,0 50,1.86548021 50,4.16666667 L50,18.8333333 C50,21.1345198 48.1345198,23 45.8333333,23 L31.1666667,23 C28.8654802,23 27,21.1345198 27,18.8333333 L27,4.16666667 C27,1.86548021 28.8654802,0 31.1666667,0 Z M31.1666667,31 C31.0746192,31 31,31.0746192 31,31.1666667 L31,45.8333333 C31,45.9253808 31.0746192,46 31.1666667,46 L45.8333333,46 C45.9253808,46 46,45.9253808 46,45.8333333 L46,31.1666667 C46,31.0746192 45.9253808,31 45.8333333,31 L31.1666667,31 Z M31.1666667,27 L45.8333333,27 C48.1345198,27 50,28.8654802 50,31.1666667 L50,45.8333333 C50,48.1345198 48.1345198,50 45.8333333,50 L31.1666667,50 C28.8654802,50 27,48.1345198 27,45.8333333 L27,31.1666667 C27,28.8654802 28.8654802,27 31.1666667,27 Z" id="icon-boards" fill="#7B7B7B" fill-rule="nonzero"></path>
    </g>
</svg>