<?xml version="1.0" encoding="UTF-8"?>
<svg width="50px" height="48px" viewBox="0 0 50 48" version="1.1" xmlns="http://www.w3.org/2000/svg" xmlns:xlink="http://www.w3.org/1999/xlink">
    <!-- Generator: Sketch 51.2 (57519) - http://www.bohemiancoding.com/sketch -->
    <title>icon-today</title>
    <desc>Created with Sketch.</desc>
    <defs></defs>
    <g id="Case-Studies" stroke="none" stroke-width="1" fill="none" fill-rule="evenodd">
        <g id="Kohab" transform="translate(-169.000000, -2418.000000)" fill="#0B324B">
            <g id="Group-5" transform="translate(169.000000, 2418.000000)">
                <path d="M24.6007646,38.6313976 C24.3167734,38.6880311 24.0423447,38.8057221 23.7980976,38.9844706 L12.0322028,47.5981176 C11.651585,47.8767059 11.2377093,48 10.8376911,48 C10.6538253,48 10.4727824,47.9740172 10.2990194,47.9252534 C10.1743373,47.9748467 10.0450808,48 9.91247426,48 C9.55126977,48 9.19468426,47.8125589 8.98036344,47.5102041 C8.84548913,47.3208791 8.71246241,47.0043956 8.84918432,46.5814757 L8.86779546,46.5237128 C8.76479242,46.165493 8.76212743,45.7646685 8.89672493,45.3477647 L13.414252,31.3383529 C13.4355495,31.2722099 13.4532786,31.2055757 13.4675155,31.1386884 C13.3396616,30.3975508 12.9324519,29.7149711 12.2967934,29.2492936 L0.446330037,20.5676609 C-0.13289046,20.1428571 -0.00263513269,19.5513344 0.0518688694,19.3808477 C0.0574741954,19.3630669 0.0635979628,19.3452249 0.0702444013,19.3273689 C-0.254904514,18.1419543 0.573956941,16.7567059 2.0345181,16.7567059 L16.6356461,16.7567059 C17.5179035,16.7567059 18.2994634,16.1891765 18.5692216,15.3524706 L23.0664245,1.40517647 C23.3685168,0.468705882 24.1842584,0 25,0 C25.8157416,0 26.6314832,0.468705882 26.9335755,1.40517647 L31.4307784,15.3524706 C31.7005366,16.1891765 32.4820965,16.7567059 33.3643539,16.7567059 L47.9654819,16.7567059 C49.9267723,16.7567059 50.7489807,19.2545882 49.1673843,20.4122353 L37.3174211,29.088 C36.612539,29.6028235 36.3187612,30.5091765 36.585748,31.3383529 L41.1032751,45.3477647 C41.5614946,46.7670588 40.4288794,48 39.1623089,48 C38.9864128,48 38.8078373,47.9761606 38.6305882,47.9257611 C38.504465,47.9740051 38.3705925,48 38.2360794,48 C38.0051302,48 37.7843428,47.9237049 37.5801838,47.7748823 L25.8156335,39.1544741 C25.450599,38.8869808 25.0375791,38.7100744 24.6007646,38.6313976 Z" id="icon-today"></path>
            </g>
        </g>
    </g>
</svg>