<?xml version="1.0" encoding="UTF-8"?>
<svg width="50px" height="52px" viewBox="0 0 50 52" version="1.1" xmlns="http://www.w3.org/2000/svg" xmlns:xlink="http://www.w3.org/1999/xlink">
    <!-- Generator: Sketch 55.2 (78181) - https://sketchapp.com -->
    <title>icon-inspections-dark</title>
    <desc>Created with Sketch.</desc>
    <g id="Case-Studies" stroke="none" stroke-width="1" fill="none" fill-rule="evenodd">
        <g id="icon-inspections-dark" fill="#C0C0C0">
            <path d="M42,6 L43.75,6 C47.2017797,6 50,8.79822031 50,12.25 L50,45.75 C50,49.2017797 47.2017797,52 43.75,52 L6.25,52 C2.79822031,52 4.22721094e-16,49.2017797 0,45.75 L0,12.25 C-4.22721094e-16,8.79822031 2.79822031,6 6.25,6 L8,6 L8,8 C8,10.209139 9.790861,12 12,12 C14.209139,12 16,10.209139 16,8 L16,6 L34,6 L34,8 C34,10.209139 35.790861,12 38,12 C40.209139,12 42,10.209139 42,8 L42,6 Z M4,19 L4,45.9166667 C4,47.0672599 4.9327401,48 6.08333333,48 L43.9166667,48 C45.0672599,48 46,47.0672599 46,45.9166667 L46,19 L4,19 Z M12,0 C13.1045695,-2.02906125e-16 14,0.8954305 14,2 L14,8 C14,9.1045695 13.1045695,10 12,10 C10.8954305,10 10,9.1045695 10,8 L10,2 C10,0.8954305 10.8954305,2.02906125e-16 12,0 Z M38,0 C39.1045695,-2.02906125e-16 40,0.8954305 40,2 L40,8 C40,9.1045695 39.1045695,10 38,10 C36.8954305,10 36,9.1045695 36,8 L36,2 C36,0.8954305 36.8954305,2.02906125e-16 38,0 Z" id="Rectangle-7"></path>
            <path d="M35.4166667,41.6 L39.5833333,41.6 L39.5833333,37.44 L35.4166667,37.44 L35.4166667,41.6 Z M35.4166667,43.68 L35.4166667,47.84 L33.3333333,47.84 L33.3333333,43.68 L29.1666667,43.68 L29.1666667,47.84 L27.0833333,47.84 L27.0833333,43.68 L22.9166667,43.68 L22.9166667,47.84 L20.8333333,47.84 L20.8333333,43.68 L16.6666667,43.68 L16.6666667,47.84 L14.5833333,47.84 L14.5833333,43.68 L10.4166667,43.68 L10.4166667,47.84 L8.33333333,47.84 L8.33333333,43.68 L4.16666667,43.68 L4.16666667,41.6 L8.33333333,41.6 L8.33333333,37.44 L4.16666667,37.44 L4.16666667,35.36 L8.33333333,35.36 L8.33333333,31.2 L4.16666667,31.2 L4.16666667,29.12 L8.33333333,29.12 L8.33333333,24.96 L4.16666667,24.96 L4.16666667,22.88 L8.33333333,22.88 L8.33333333,18.72 L10.4166667,18.72 L10.4166667,22.88 L14.5833333,22.88 L14.5833333,18.72 L16.6666667,18.72 L16.6666667,22.88 L20.8333333,22.88 L20.8333333,18.72 L22.9166667,18.72 L22.9166667,22.88 L27.0833333,22.88 L27.0833333,18.72 L29.1666667,18.72 L29.1666667,22.88 L33.3333333,22.88 L33.3333333,18.72 L35.4166667,18.72 L35.4166667,22.88 L39.5833333,22.88 L39.5833333,18.72 L41.6666667,18.72 L41.6666667,22.88 L45.8333333,22.88 L45.8333333,24.96 L41.6666667,24.96 L41.6666667,29.12 L45.8333333,29.12 L45.8333333,31.2 L41.6666667,31.2 L41.6666667,35.36 L45.8333333,35.36 L45.8333333,37.44 L41.6666667,37.44 L41.6666667,41.6 L45.8333333,41.6 L45.8333333,43.68 L41.6666667,43.68 L41.6666667,47.84 L39.5833333,47.84 L39.5833333,43.68 L35.4166667,43.68 Z M33.3333333,41.6 L33.3333333,37.44 L29.1666667,37.44 L29.1666667,41.6 L33.3333333,41.6 Z M27.0833333,41.6 L27.0833333,37.44 L22.9166667,37.44 L22.9166667,41.6 L27.0833333,41.6 Z M20.8333333,41.6 L20.8333333,37.44 L16.6666667,37.44 L16.6666667,41.6 L20.8333333,41.6 Z M14.5833333,41.6 L14.5833333,37.44 L10.4166667,37.44 L10.4166667,41.6 L14.5833333,41.6 Z M35.4166667,35.36 L39.5833333,35.36 L39.5833333,31.2 L35.4166667,31.2 L35.4166667,35.36 Z M33.3333333,35.36 L33.3333333,31.2 L29.1666667,31.2 L29.1666667,35.36 L33.3333333,35.36 Z M27.0833333,35.36 L27.0833333,31.2 L22.9166667,31.2 L22.9166667,35.36 L27.0833333,35.36 Z M20.8333333,35.36 L20.8333333,31.2 L16.6666667,31.2 L16.6666667,35.36 L20.8333333,35.36 Z M14.5833333,35.36 L14.5833333,31.2 L10.4166667,31.2 L10.4166667,35.36 L14.5833333,35.36 Z M35.4166667,29.12 L39.5833333,29.12 L39.5833333,24.96 L35.4166667,24.96 L35.4166667,29.12 Z M33.3333333,29.12 L33.3333333,24.96 L29.1666667,24.96 L29.1666667,29.12 L33.3333333,29.12 Z M27.0833333,29.12 L27.0833333,24.96 L22.9166667,24.96 L22.9166667,29.12 L27.0833333,29.12 Z M20.8333333,29.12 L20.8333333,24.96 L16.6666667,24.96 L16.6666667,29.12 L20.8333333,29.12 Z M14.5833333,29.12 L14.5833333,24.96 L10.4166667,24.96 L10.4166667,29.12 L14.5833333,29.12 Z" id="Combined-Shape" opacity="0.200000003"></path>
        </g>
    </g>
</svg>