<?xml version="1.0" encoding="UTF-8" standalone="no"?>
<svg width="31px" height="55px" viewBox="0 0 31 55" version="1.1" xmlns="http://www.w3.org/2000/svg" xmlns:xlink="http://www.w3.org/1999/xlink">
    <!-- Generator: Sketch 3.7.1 (28215) - http://www.bohemiancoding.com/sketch -->
    <title>Rectangle 6</title>
    <desc>Created with Sketch.</desc>
    <defs></defs>
    <g id="Portfolio-Pages" stroke="none" stroke-width="1" fill="none" fill-rule="evenodd">
        <g id="Retailer-Portal" transform="translate(-99.000000, -3639.000000)" fill="#CA4750">
            <g id="Process" transform="translate(0.000000, 2950.000000)">
                <g id="Slideshow" transform="translate(97.000000, 390.248007)">
                    <path d="M47.5902256,307.548552 C46.8583669,306.607016 45.7152406,306 44.4306923,306 L12.4307434,306 C10.2271426,306 8.43071786,307.790861 8.43071786,310 C8.43071786,312.204644 10.2215903,314 12.4307434,314 L41.1378246,314 L41.1378246,342.707081 C41.1378246,344.910682 42.9286856,346.707107 45.1378246,346.707107 C47.3424685,346.707107 49.1378246,344.916234 49.1378246,342.707081 L49.1378246,310.707132 C49.1378246,309.425379 48.531919,308.281386 47.5902256,307.548552 Z" id="Rectangle-6" transform="translate(28.784271, 326.353553) scale(-1, 1) rotate(-315.000000) translate(-28.784271, -326.353553) "></path>
                </g>
            </g>
        </g>
    </g>
</svg>