<svg xmlns="http://www.w3.org/2000/svg" xmlns:xlink="http://www.w3.org/1999/xlink" width="510" height="343" viewBox="0 0 510 343"><defs><circle id="a" cx="35" cy="35" r="35"/><circle id="b" cx="35" cy="35" r="35"/><circle id="c" cx="35" cy="35" r="35"/><circle id="d" cx="35" cy="35" r="35"/><circle id="e" cx="35" cy="35" r="35"/><circle id="f" cx="35" cy="35" r="35"/><linearGradient id="g" x1="25.407%" x2="78.641%" y1="11.893%" y2="84.955%"><stop offset="0%" stop-color="#4E5FD3"/><stop offset="46.257%" stop-color="#913BAF"/><stop offset="76.146%" stop-color="#D52D88"/><stop offset="100%" stop-color="#F26D4F"/></linearGradient><radialGradient id="i" cx="30.274%" cy="100%" r="93.395%" fx="30.274%" fy="100%" gradientTransform="matrix(.84656 .53229 -.38307 .60925 .43 .23)"><stop offset="0%" stop-color="#FED276"/><stop offset="17.024%" stop-color="#FDBD61" stop-opacity=".975"/><stop offset="45.408%" stop-color="#F6804D"/><stop offset="100%" stop-color="#E83D5C" stop-opacity="0"/></radialGradient><circle id="h" cx="35" cy="35" r="35"/><circle id="j" cx="35" cy="35" r="35"/><circle id="k" cx="35" cy="35" r="35"/><circle id="m" cx="35" cy="35" r="35"/><circle id="n" cx="35" cy="35" r="35"/><circle id="o" cx="35" cy="35" r="35"/><circle id="p" cx="35" cy="35" r="35"/><circle id="q" cx="35" cy="35" r="35"/></defs><g fill="none" fill-rule="evenodd"><g transform="translate(166)"><use fill="#3ABCCA" xlink:href="#a"/><circle cx="35" cy="35" r="34" stroke="#000" stroke-opacity=".1" stroke-width="2"/><path fill="#FFF" d="M36.689 30.9A2.213 2.213 0 0 1 36 29.26V16.126H22.62c-.656 0-1.213.225-1.672.676-.46.45-.689.998-.689 1.641V50.89c0 .644.23 1.191.689 1.641a2.3 2.3 0 0 0 1.672.676h26.76c.656 0 1.214-.225 1.672-.676.46-.45.689-.997.689-1.641V31.577h-13.38a2.298 2.298 0 0 1-1.672-.676zm8.535 15.909a.774.774 0 0 1-.566.217H27.342a.775.775 0 0 1-.565-.217.745.745 0 0 1-.222-.555v-1.545c0-.226.074-.41.222-.556a.776.776 0 0 1 .565-.217h17.316c.23 0 .418.073.566.217.147.145.22.33.22.556v1.545c0 .225-.073.41-.22.555zm0-6.18a.774.774 0 0 1-.566.218H27.342a.775.775 0 0 1-.565-.218.745.745 0 0 1-.222-.555V38.53c0-.225.074-.41.222-.555a.774.774 0 0 1 .565-.217h17.316c.23 0 .418.072.566.217.147.145.22.33.22.555v1.545c0 .226-.073.41-.22.555zm-2.829-22.86L50.07 25.3c.82.805 1.353 1.867 1.599 3.187h-12.52V16.199c1.345.242 2.427.765 3.247 1.57z"/></g><g transform="translate(110 88)"><use fill="#35ABE1" xlink:href="#b"/><circle cx="35" cy="35" r="34" stroke="#000" stroke-opacity=".1" stroke-width="2"/><path fill="#FFF" d="M50.668 30.566l1.121-6.043h-5.715l2.024-10.007h-6.07l-2.024 10.007h-6.399l2.024-10.007h-6.043l-2.023 10.007H21.93l-1.149 6.043h5.606l-1.422 6.891h-5.66l-1.149 6.098h5.633L21.684 54h6.043l2.105-10.445h6.398L34.125 54h6.07l2.106-10.445h5.742l1.121-6.098H43.45l1.45-6.89h5.769zm-18.54-.52h7.192l-1.668 7.958h-7.136l1.613-7.957z"/></g><g transform="translate(0 88)"><use fill="#724BB8" xlink:href="#c"/><circle cx="35" cy="35" r="34" stroke="#000" stroke-opacity=".1" stroke-width="2"/><path fill="#FFF" d="M55.987 34.943c-1.342-1.682-3.043-2.765-5.104-3.247a6.018 6.018 0 0 0 .983-3.333c0-1.706-.6-3.163-1.797-4.37-1.198-1.208-2.643-1.811-4.336-1.811-1.534 0-2.86.499-3.977 1.497-.942-2.286-2.44-4.137-4.492-5.554C35.211 16.71 32.924 16 30.4 16c-3.386 0-6.277 1.208-8.673 3.622-2.396 2.415-3.594 5.329-3.594 8.742 0 .241.016.587.048 1.038-1.852.87-3.346 2.185-4.48 3.948C12.567 35.113 12 37.057 12 39.182c0 2.978 1.05 5.525 3.15 7.642C17.25 48.942 19.78 50 22.734 50H48.8c2.54 0 4.708-.906 6.505-2.717C57.1 45.473 58 43.287 58 40.727c0-2.173-.672-4.102-2.013-5.784z"/></g><g transform="translate(440 88)"><use fill="#236792" xlink:href="#d"/><circle cx="35" cy="35" r="34" stroke="#000" stroke-opacity=".1" stroke-width="2"/><g fill="#FFF"><path d="M28.064 38.732c.328-.7.027-1.533-.672-1.86a8.374 8.374 0 0 1-4.808-7.605 8.341 8.341 0 0 1 4.502-7.366c.683-.357.95-1.202.59-1.886a1.398 1.398 0 0 0-1.885-.595 11.126 11.126 0 0 0-6.004 9.83 11.185 11.185 0 0 0 6.42 10.154c.19.09.393.134.59.134.524 0 1.026-.3 1.267-.806z"/><path d="M25.114 28.934a6.432 6.432 0 0 0 3.698 5.851 1.4 1.4 0 0 0 1.863-.672 1.403 1.403 0 0 0-.677-1.863 3.625 3.625 0 1 1-.131-6.502 1.399 1.399 0 0 0-1.29-2.48 6.403 6.403 0 0 0-3.463 5.666z"/><path d="M24.928 42.02a14.159 14.159 0 0 1-8.119-12.846 14.105 14.105 0 0 1 7.605-12.451 1.398 1.398 0 0 0-1.29-2.48 16.892 16.892 0 0 0-9.112 14.915c-.033 6.564 3.786 12.609 9.73 15.395.191.09.394.131.596.131a1.4 1.4 0 0 0 1.267-.803c.328-.7.022-1.532-.677-1.86zm26.59-12.77a11.127 11.127 0 0 0-6.004-9.83 1.4 1.4 0 0 0-1.885.595c-.36.684-.092 1.53.59 1.886a8.341 8.341 0 0 1 4.502 7.366 8.374 8.374 0 0 1-4.807 7.605 1.399 1.399 0 0 0 1.185 2.532 11.185 11.185 0 0 0 6.42-10.153z"/><path d="M41.307 32.25a1.403 1.403 0 0 0-.677 1.863 1.4 1.4 0 0 0 1.863.672 6.432 6.432 0 0 0 3.699-5.851 6.403 6.403 0 0 0-3.464-5.666 1.399 1.399 0 1 0-1.29 2.48 3.624 3.624 0 0 1-.13 6.502z"/><path d="M48.18 14.242a1.404 1.404 0 0 0-1.884.595c-.361.685-.093 1.53.595 1.886a14.104 14.104 0 0 1 7.605 12.448 14.16 14.16 0 0 1-8.118 12.85 1.401 1.401 0 0 0-.678 1.86 1.4 1.4 0 0 0 1.863.672c5.944-2.786 9.763-8.83 9.73-15.395a16.892 16.892 0 0 0-9.113-14.916zM37.275 30.84c.328-.377.547-.855.547-1.393a2.143 2.143 0 0 0-2.142-2.141 2.14 2.14 0 0 0-2.142 2.141c0 .533.213 1.006.536 1.383l-7.556 22.667a1.398 1.398 0 0 0 .885 1.77 1.394 1.394 0 0 0 1.77-.885l.519-1.557h11.927l.519 1.557a1.394 1.394 0 0 0 1.764.885 1.395 1.395 0 0 0 .89-1.765L37.276 30.84zm1.64 13.833h-6.508l3.262-9.79 3.245 9.79zm-8.289 5.355l.852-2.557h8.365l.847 2.557H30.626z"/></g></g><g transform="translate(220 88)"><use fill="#F6A235" xlink:href="#e"/><circle cx="35" cy="35" r="34" stroke="#000" stroke-opacity=".1" stroke-width="2"/><g fill="#FFF"><path d="M35 40c4.963 0 9-4.026 9-8.975v-12.05C44 14.026 39.963 10 35 10s-9 4.026-9 8.975v12.05C26 35.974 30.037 40 35 40z"/><path d="M46.964 36c-1.13 0-1.68.425-1.93.74-.048.077-.096.156-.15.234-.027.053-.043.097-.043.097l-.01-.011c-2.187 3.141-5.692 5.2-9.658 5.2-3.974 0-7.484-2.066-9.67-5.219 0 .005-.006.019-.006.019l-.005-.038c-.12-.172-.231-.352-.343-.532-.291-.251-.818-.487-1.808-.484-1.537.002-1.416.796-1.242 1.215 2.331 4.425 6.603 7.554 11.6 8.073v7.586h-6.934c-.815 0-1.476.699-1.476 1.56 0 .86.661 1.56 1.476 1.56h16.821c.815 0 1.476-.7 1.476-1.56 0-.861-.661-1.56-1.476-1.56h-6.934v-7.592c4.628-.484 8.632-3.2 11.053-7.115.13-.303.904-2.173-.741-2.173z"/></g></g><g transform="translate(276)"><use fill="#1DA1F2" xlink:href="#f"/><circle cx="35" cy="35" r="34" stroke="#000" stroke-opacity=".1" stroke-width="2"/><path fill="#FFF" fill-rule="nonzero" d="M51.675 28.576c0-.378 0-.753-.025-1.127A17.741 17.741 0 0 0 56 22.935a17.405 17.405 0 0 1-5.008 1.372 8.75 8.75 0 0 0 3.833-4.823 17.474 17.474 0 0 1-5.537 2.117 8.728 8.728 0 0 0-14.86 7.952 24.755 24.755 0 0 1-17.97-9.11 8.726 8.726 0 0 0 2.7 11.64A8.655 8.655 0 0 1 15.2 30.99v.111a8.723 8.723 0 0 0 6.995 8.548 8.706 8.706 0 0 1-3.937.15 8.73 8.73 0 0 0 8.147 6.055A17.496 17.496 0 0 1 13.5 49.469a24.686 24.686 0 0 0 13.365 3.91c16.038.007 24.81-13.28 24.81-24.803z"/></g><g transform="translate(386)"><use fill="url(#g)" xlink:href="#h"/><use fill="url(#i)" xlink:href="#h"/><circle cx="35" cy="35" r="34" stroke="#000" stroke-opacity=".1" stroke-width="2"/><g fill="#FFF"><path d="M35 17.784c5.607 0 6.271.021 8.486.122 2.047.094 3.16.436 3.9.723.98.381 1.679.836 2.414 1.571.735.735 1.19 1.435 1.57 2.415.288.74.63 1.852.724 3.9.1 2.214.122 2.878.122 8.485 0 5.607-.021 6.271-.122 8.486-.094 2.047-.436 3.16-.723 3.9-.381.98-.836 1.68-1.571 2.414-.735.735-1.435 1.19-2.415 1.57-.74.288-1.852.63-3.9.724-2.213.1-2.877.122-8.485.122s-6.272-.021-8.486-.122c-2.047-.094-3.16-.436-3.9-.723-.98-.381-1.68-.836-2.414-1.571-.735-.735-1.19-1.435-1.57-2.415-.288-.74-.63-1.852-.724-3.9-.1-2.214-.122-2.878-.122-8.485 0-5.607.021-6.271.122-8.486.094-2.047.436-3.16.723-3.9.381-.98.836-1.679 1.571-2.414.735-.735 1.435-1.19 2.415-1.57.74-.288 1.852-.63 3.9-.724 2.214-.1 2.878-.122 8.485-.122M35 14c-5.703 0-6.418.024-8.658.126-2.236.102-3.762.457-5.098.977a10.294 10.294 0 0 0-3.72 2.422 10.294 10.294 0 0 0-2.422 3.72c-.519 1.335-.874 2.862-.976 5.097C14.024 28.582 14 29.297 14 35c0 5.703.024 6.418.126 8.658.102 2.236.457 3.762.976 5.098a10.294 10.294 0 0 0 2.423 3.72 10.294 10.294 0 0 0 3.72 2.422c1.335.519 2.861.874 5.097.976 2.24.102 2.955.126 8.658.126 5.703 0 6.418-.024 8.658-.126 2.235-.102 3.762-.457 5.098-.976a10.294 10.294 0 0 0 3.72-2.423 10.294 10.294 0 0 0 2.421-3.72c.52-1.335.875-2.861.977-5.097.102-2.24.126-2.955.126-8.658 0-5.703-.024-6.418-.126-8.658-.102-2.235-.457-3.762-.977-5.098a10.294 10.294 0 0 0-2.422-3.72 10.294 10.294 0 0 0-3.72-2.421c-1.335-.52-2.862-.875-5.097-.977C41.418 14.024 40.703 14 35 14"/><path d="M35 24c-6.075 0-11 4.925-11 11s4.925 11 11 11 11-4.925 11-11-4.925-11-11-11zm0 18.14a7.14 7.14 0 1 1 0-14.28 7.14 7.14 0 0 1 0 14.28zM50 25a3 3 0 1 1-6 0 3 3 0 0 1 6 0"/></g></g><g transform="translate(276 176)"><use fill="#CA1F20" xlink:href="#j"/><circle cx="35" cy="35" r="34" stroke="#000" stroke-opacity=".1" stroke-width="2"/><path fill="#FFF" d="M30.564 40.562l-.002-13.298 12.787 6.672-12.785 6.626zM58.64 24.96s-.462-3.261-1.881-4.697c-1.8-1.885-3.817-1.895-4.742-2.005-6.623-.479-16.557-.479-16.557-.479h-.02s-9.934 0-16.557.479c-.925.11-2.941.12-4.742 2.005-1.418 1.436-1.88 4.697-1.88 4.697s-.473 3.83-.473 7.66v3.59c0 3.83.473 7.659.473 7.659s.462 3.261 1.88 4.697c1.8 1.885 4.165 1.826 5.219 2.023 3.786.363 16.09.476 16.09.476s9.944-.015 16.567-.494c.925-.11 2.942-.12 4.742-2.005 1.419-1.436 1.88-4.697 1.88-4.697s.473-3.83.473-7.66v-3.59c0-3.83-.472-7.66-.472-7.66z"/></g><g transform="translate(56 176)"><mask id="l" fill="#fff"><use xlink:href="#k"/></mask><use fill="#FFF" xlink:href="#k"/><g mask="url(#l)"><use fill="#EC192B" xlink:href="#m"/><circle cx="35" cy="35" r="34" stroke="#000" stroke-opacity=".1" stroke-width="2"/></g><path fill="#FFF" d="M46.869 29.787v-2.13c-.012-3.123-2.624-5.65-5.847-5.657H19.843c-3.224.01-5.833 2.537-5.843 5.66v14.68c.01 3.123 2.62 5.65 5.843 5.66h21.18c3.223-.007 5.836-2.536 5.846-5.66v-2.132l6.93 4.194c2.309 1.399 4.201.383 4.201-2.254V27.844c-.005-2.647-1.897-3.653-4.207-2.254l-6.924 4.197z" mask="url(#l)"/></g><g transform="translate(166 176)"><use fill="#A7D17B" xlink:href="#n"/><circle cx="35" cy="35" r="34" stroke="#000" stroke-opacity=".1" stroke-width="2"/><path fill="#FFF" d="M20.587 51.428c0 2.115 2.007 3.084 3.65 1.733 0 0 3.933-3.242 5.443-4.48a29.63 29.63 0 0 0 5.32.474c12.063 0 22-7.175 22-16.308S47.063 16.54 35 16.54s-22 7.175-22 16.308c0 4.856 2.841 9.302 7.597 12.349-.01.62-.01 6.232-.01 6.232z"/></g><g transform="translate(330 88)"><use fill="#2BB490" xlink:href="#o"/><circle cx="35" cy="35" r="34" stroke="#000" stroke-opacity=".1" stroke-width="2"/><g fill="#FFF"><path d="M57.265 26.919c.98-.98.98-2.52 0-3.501l-8.683-8.683a2.45 2.45 0 0 0-3.5 0L42 17.816 54.184 30l3.08-3.081zM20 40.675L31.325 52 52 31.457 40.543 20zM16.052 52.98c-.138.687 0 1.51.414 2.06.414.548 1.105.96 1.934.96.138 0 .414 0 .552-.137L30 53.118 18.814 42l-2.762 10.98z"/></g></g><g transform="translate(56)"><use fill="#E34B85" xlink:href="#p"/><circle cx="35" cy="35" r="34" stroke="#000" stroke-opacity=".1" stroke-width="2"/><g transform="translate(15 21)"><rect width="40" height="24" stroke="#FFF" stroke-width="3" rx="2"/><rect width="22" height="3" x="9" y="28" fill="#FFF" rx="1.5"/></g></g><g transform="translate(386 176)"><use fill="#FF5930" xlink:href="#q"/><circle cx="35" cy="35" r="34" stroke="#000" stroke-opacity=".1" stroke-width="2"/><g fill="#FFF"><path d="M56.81 18H15.19c-.659 0-1.19.517-1.19 1.153v31.694c0 .638.534 1.153 1.19 1.153h41.62c.659 0 1.19-.517 1.19-1.153V19.153c.003-.636-.531-1.153-1.19-1.153zM56 50H16V20h39.995v30H56z"/><path d="M53.67 46.048L40.24 32.336a1.105 1.105 0 0 0-1.587 0l-7.67 7.83-2.655-2.711a1.105 1.105 0 0 0-1.587 0l-8.416 8.593a1.048 1.048 0 0 0-.14.174c-.017.027-.03.06-.046.086-.019.035-.04.071-.054.11-.015.038-.024.077-.034.117-.01.034-.022.063-.03.098-.028.147-.028.3 0 .447.006.034.02.064.03.099.011.039.019.078.034.115.014.04.035.074.054.11.015.03.03.06.047.087.081.125.187.233.31.317.027.02.058.032.087.047.034.02.07.042.106.056a.951.951 0 0 0 .113.035c.033.01.062.022.096.03.072.014.147.024.22.024h33.665c.014 0 .031-.005.046-.005.014 0 .034.005.048.005.287 0 .573-.113.795-.337a1.155 1.155 0 0 0-.003-1.615zM27 24c-2.758 0-5 2.243-5 5 0 2.758 2.242 5 5 5s5-2.242 5-5c0-2.757-2.245-5-5-5z"/></g></g><path fill="#F7F7F7" d="M408 293h102v50H408z"/><path fill="#D6D6D6" d="M306 293h102v50H306z"/><path fill="#212121" d="M204 293h102v50H204z"/><path fill="#2196F3" d="M0 293h102v50H0z"/><path fill="#02263E" d="M102 293h102v50H102z"/><path stroke="#000" stroke-opacity=".1" d="M.5 293.5h509v49H.5z"/></g></svg>