<?xml version="1.0" encoding="UTF-8" standalone="no"?>
<svg width="114px" height="114px" viewBox="0 0 114 114" version="1.1" xmlns="http://www.w3.org/2000/svg" xmlns:xlink="http://www.w3.org/1999/xlink">
    <!-- Generator: Sketch 3.7.2 (28276) - http://www.bohemiancoding.com/sketch -->
    <title>Like</title>
    <desc>Created with Sketch.</desc>
    <defs></defs>
    <g id="Portfolio-Pages" stroke="none" stroke-width="1" fill="none" fill-rule="evenodd">
        <g id="Night-Light" transform="translate(-170.000000, -4315.000000)">
            <g id="Solution" transform="translate(0.000000, 1836.000000)">
                <g id="Like" transform="translate(170.000000, 2479.000000)">
                    <ellipse id="Like-Oval" fill="#5DB1C5" cx="57" cy="57" rx="57" ry="57"></ellipse>
                    <path d="M78.0615384,43.0174875 C78.2265593,43.0058998 78.3933024,43 78.5615384,43 C82.1513893,43 85.0615384,45.6862915 85.0615384,49 C85.0615384,50.9466984 84.057191,52.6768633 82.5007113,53.7730654 C84.0397799,54.6593677 85.0615384,56.2212091 85.0615384,58 C85.0615384,60.1763039 83.5320805,62.0278587 81.3970131,62.714802 C82.9937154,63.5898384 84.0615384,65.181554 84.0615384,67 C84.0615384,69.2372838 82.445169,71.1313646 80.2161336,71.7697848 C81.3349209,72.497478 82.0615384,73.6733121 82.0615384,75 C82.0615384,77.0589127 80.3115137,78.7545009 78.0615384,78.9755872 L78.0615384,79 L49.0585387,79 C46.8510564,79 45.0615384,77.2147544 45.0615384,75.0098214 L45.0615384,46.0074199 C45.0615384,45.1991747 45.3775436,44.4653978 45.8940752,43.9250025 C48.1503036,41.0176028 57.5367145,32.2430008 58.0000004,29 C58.5000004,25.5 59.849338,20 62.0713014,20 L62.7394711,20 C65.6787678,20 68.3094751,22.3797899 68.4808522,25.3040928 C68.4808522,25.3040928 70.0615387,36.9346809 64.0615387,43 L78.0615384,43 L78.0615384,43.0174875 Z M26,50.9901786 C26,48.7864638 27.7873299,47 29.9931023,47 L36.0068977,47 C38.2122272,47 40,48.7852456 40,50.9901786 L40,79.0098214 C40,81.2135362 38.2126701,83 36.0068977,83 L29.9931023,83 C27.7877728,83 26,81.2147544 26,79.0098214 L26,50.9901786 Z" fill="#FFFFFF"></path>
                </g>
            </g>
        </g>
    </g>
</svg>